<?xml version="1.0" encoding="utf-8"?>
<!-- Generator: Adobe Illustrator 16.0.0, SVG Export Plug-In . SVG Version: 6.00 Build 0)  -->
<!DOCTYPE svg PUBLIC "-//W3C//DTD SVG 1.1//EN" "http://www.w3.org/Graphics/SVG/1.1/DTD/svg11.dtd">
<svg version="1.1" id="Layer_1" xmlns="http://www.w3.org/2000/svg" xmlns:xlink="http://www.w3.org/1999/xlink" x="0px" y="0px"
   width="90px" height="90px" viewBox="0 0 90 90" enable-background="new 0 0 90 90" xml:space="preserve">
<g>
  <g>
    <g>
      <path fill="#0094ff" d="M45,89.45C20.491,89.45,0.55,69.51,0.55,45S20.491,0.55,45,0.55C69.51,0.55,89.45,20.49,89.45,45
        S69.51,89.45,45,89.45z M45,3.05C21.869,3.05,3.05,21.869,3.05,45S21.869,86.95,45,86.95C68.131,86.95,86.95,68.131,86.95,45
        S68.131,3.05,45,3.05z"/>
    </g>
    <g>
      <path fill="#0094ff" d="M76.461,75.607h-2.5V33.311c0-3.047-2.226-5.526-4.961-5.526H20.944c-2.736,0-4.962,2.479-4.962,5.526
        v42.296h-2.5V33.311c0-4.426,3.347-8.026,7.462-8.026H69c4.114,0,7.461,3.601,7.461,8.026V75.607z"/>
    </g>
    <g>
      <rect x="14.789" y="32.061" fill="#0094ff" width="60.423" height="2.5"/>
    </g>
    <g>
      <ellipse fill="#0094ff" cx="21" cy="29.979" rx="0.733" ry="0.791"/>
      <path fill="#0094ff" d="M21,31.27c-0.681,0-1.234-0.579-1.234-1.291S20.32,28.688,21,28.688c0.68,0,1.233,0.579,1.233,1.291
        S21.681,31.27,21,31.27z M21,29.688c-0.129,0-0.234,0.13-0.234,0.291c0,0.158,0.107,0.291,0.234,0.291
        c0.126,0,0.233-0.133,0.233-0.291S21.127,29.688,21,29.688z"/>
    </g>
    <g>
      <ellipse fill="#0094ff" cx="24.557" cy="29.979" rx="0.734" ry="0.791"/>
      <path fill="#0094ff" d="M24.557,31.27c-0.68,0-1.233-0.579-1.233-1.291s0.553-1.291,1.233-1.291c0.681,0,1.234,0.579,1.234,1.291
        S25.238,31.27,24.557,31.27z M24.557,29.688c-0.126,0-0.233,0.133-0.233,0.291s0.107,0.291,0.233,0.291
        c0.127,0,0.234-0.133,0.234-0.291C24.792,29.819,24.687,29.688,24.557,29.688z"/>
    </g>
    <g>
      <ellipse fill="#0094ff" cx="28.171" cy="29.979" rx="0.734" ry="0.791"/>
      <path fill="#0094ff" d="M28.171,31.27c-0.68,0-1.233-0.579-1.233-1.291s0.553-1.291,1.233-1.291c0.681,0,1.234,0.579,1.234,1.291
        S28.852,31.27,28.171,31.27z M28.171,29.688c-0.126,0-0.233,0.133-0.233,0.291s0.107,0.291,0.233,0.291
        c0.127,0,0.234-0.133,0.234-0.291S28.298,29.688,28.171,29.688z"/>
    </g>
    <g>
      <path fill="#0094ff" d="M42.854,44.838H23.88c-0.69,0-1.25-0.56-1.25-1.25s0.56-1.25,1.25-1.25h18.974
        c0.69,0,1.25,0.56,1.25,1.25S43.544,44.838,42.854,44.838z"/>
    </g>
    <g>
      <path fill="#0094ff" d="M42.854,52.292H23.88c-0.69,0-1.25-0.56-1.25-1.25s0.56-1.25,1.25-1.25h18.974
        c0.69,0,1.25,0.56,1.25,1.25S43.544,52.292,42.854,52.292z"/>
    </g>
    <g>
      <path fill="#0094ff" d="M42.854,59.747H23.88c-0.69,0-1.25-0.56-1.25-1.25s0.56-1.25,1.25-1.25h18.974
        c0.69,0,1.25,0.56,1.25,1.25S43.544,59.747,42.854,59.747z"/>
    </g>
    <g>
      <path fill="#0094ff" d="M64.426,67.201H23.88c-0.69,0-1.25-0.56-1.25-1.25s0.56-1.25,1.25-1.25h40.546
        c0.69,0,1.25,0.56,1.25,1.25S65.117,67.201,64.426,67.201z"/>
    </g>
    <g>
      <path fill="#0094ff" d="M64.426,74.655H23.88c-0.69,0-1.25-0.56-1.25-1.25s0.56-1.25,1.25-1.25h40.546
        c0.69,0,1.25,0.56,1.25,1.25S65.117,74.655,64.426,74.655z"/>
    </g>
  </g>
  <g>
    <path fill="#0094ff" d="M64.426,59.747H48.388c-0.69,0-1.25-0.56-1.25-1.25V42.628c0-0.69,0.56-1.25,1.25-1.25h16.038
      c0.69,0,1.25,0.56,1.25,1.25v15.868C65.676,59.187,65.117,59.747,64.426,59.747z M49.638,57.247h13.538V43.878H49.638V57.247z"/>
  </g>
</g>
<g>
</g>
<g>
</g>
<g>
</g>
<g>
</g>
<g>
</g>
<g>
</g>
<g>
</g>
<g>
</g>
<g>
</g>
<g>
</g>
<g>
</g>
<g>
</g>
<g>
</g>
<g>
</g>
<g>
</g>
</svg>
