<?xml version="1.0" encoding="utf-8"?>
<!-- Generator: Adobe Illustrator 16.0.0, SVG Export Plug-In . SVG Version: 6.00 Build 0)  -->
<!DOCTYPE svg PUBLIC "-//W3C//DTD SVG 1.1//EN" "http://www.w3.org/Graphics/SVG/1.1/DTD/svg11.dtd">
<svg version="1.1" id="Layer_1" xmlns="http://www.w3.org/2000/svg" xmlns:xlink="http://www.w3.org/1999/xlink" x="0px" y="0px"
   width="90px" height="90px" viewBox="0 0 90 90" enable-background="new 0 0 90 90" xml:space="preserve">
<g>
  <g>
    <path fill="#0094ff" d="M45,89.45C20.491,89.45,0.55,69.51,0.55,45S20.491,0.55,45,0.55C69.51,0.55,89.45,20.49,89.45,45
      S69.51,89.45,45,89.45z M45,3.05C21.869,3.05,3.05,21.869,3.05,45S21.869,86.95,45,86.95C68.131,86.95,86.95,68.131,86.95,45
      S68.131,3.05,45,3.05z"/>
  </g>
  <g>
    <g>
      <path fill="#0094ff" d="M29.076,63.247h-4.574c-0.69,0-1.25-0.56-1.25-1.25V22.355c0-0.69,0.56-1.25,1.25-1.25H37.32v2.5H25.751
        v37.142h3.324V63.247z"/>
    </g>
    <g>
      <path fill="#0094ff" d="M54.149,63.247H33.593v-2.5h19.306v-4.396h2.5v5.646C55.399,62.688,54.839,63.247,54.149,63.247z"/>
    </g>
    <g>
      <g>
        <g>
          <path fill="#0094ff" d="M66.967,57.657H44.662v-2.5h21.056V27.784h-8.633c-0.676,0-1.23-0.538-1.25-1.214l-0.246-8.556H38.57
            V41.33h-2.5V16.765c0-0.69,0.56-1.25,1.25-1.25h19.483c0.676,0,1.23,0.538,1.25,1.214l0.246,8.556h8.668
            c0.69,0,1.25,0.56,1.25,1.25v29.873C68.217,57.098,67.658,57.657,66.967,57.657z"/>
        </g>
        <g>

            <rect x="54.836" y="20.399" transform="matrix(0.721 0.693 -0.693 0.721 32.2709 -36.8439)" fill="#0094ff" width="14.098" height="2.5"/>
        </g>
      </g>
      <g>
        <path fill="#0094ff" d="M61.885,34.843H42.177c-0.69,0-1.25-0.56-1.25-1.25s0.56-1.25,1.25-1.25h19.708
          c0.69,0,1.25,0.56,1.25,1.25S62.576,34.843,61.885,34.843z"/>
      </g>
      <g>
        <path fill="#0094ff" d="M61.885,39.36H42.177c-0.69,0-1.25-0.56-1.25-1.25s0.56-1.25,1.25-1.25h19.708
          c0.69,0,1.25,0.56,1.25,1.25S62.576,39.36,61.885,39.36z"/>
      </g>
      <g>
        <path fill="#0094ff" d="M61.885,43.878H49.913c-0.69,0-1.25-0.56-1.25-1.25s0.56-1.25,1.25-1.25h11.973
          c0.69,0,1.25,0.56,1.25,1.25S62.576,43.878,61.885,43.878z"/>
      </g>
    </g>
    <g>
      <g>
        <path fill="#0094ff" d="M40.144,59.013c-5.266,0-9.551-4.285-9.551-9.552c0-5.266,4.285-9.551,9.551-9.551
          c5.267,0,9.551,4.285,9.551,9.551C49.695,54.728,45.41,59.013,40.144,59.013z M40.144,42.41c-3.888,0-7.051,3.163-7.051,7.051
          c0,3.888,3.163,7.052,7.051,7.052c3.888,0,7.051-3.164,7.051-7.052C47.195,45.573,44.032,42.41,40.144,42.41z"/>
      </g>
      <g>
        <path fill="#0094ff" d="M33.423,60.312c-0.248,0-0.498-0.073-0.716-0.226c-0.565-0.396-0.703-1.175-0.307-1.741l1.977-2.824
          c0.396-0.565,1.176-0.703,1.741-0.307c0.565,0.396,0.703,1.175,0.307,1.741l-1.977,2.824
          C34.205,60.125,33.817,60.312,33.423,60.312z"/>
      </g>
      <g>
        <path fill="#0094ff" d="M24.52,74.456c-0.572,0-1.107-0.171-1.548-0.494c-1.422-1.044-1.492-3.298-0.159-5.132l6.37-9.074
          c0.869-1.249,2.164-2.027,3.376-2.027c0.572,0,1.107,0.171,1.548,0.494c1.423,1.043,1.493,3.297,0.159,5.131l-6.369,9.075
          C27.027,73.677,25.732,74.456,24.52,74.456z M32.608,60.238c-0.337,0-0.897,0.259-1.376,0.949l-6.385,9.095
          c-0.602,0.828-0.528,1.566-0.396,1.663l0.069,0.01c0.265,0,0.837-0.255,1.327-0.959l6.385-9.096
          c0.602-0.828,0.528-1.565,0.396-1.661C32.622,60.238,32.615,60.238,32.608,60.238z"/>
      </g>
    </g>
  </g>
</g>
<g>
</g>
<g>
</g>
<g>
</g>
<g>
</g>
<g>
</g>
<g>
</g>
<g>
</g>
<g>
</g>
<g>
</g>
<g>
</g>
<g>
</g>
<g>
</g>
<g>
</g>
<g>
</g>
<g>
</g>
</svg>
