<?xml version="1.0" encoding="utf-8"?>
<!DOCTYPE svg PUBLIC "-//W3C//DTD SVG 1.1//EN" "http://www.w3.org/Graphics/SVG/1.1/DTD/svg11.dtd">
<svg version="1.1" id="Layer_2" xmlns="http://www.w3.org/2000/svg" xmlns:xlink="http://www.w3.org/1999/xlink" x="0px" y="0px"
	 width="2352.487px" height="327.629px" viewBox="0 0 2352.487 327.629" enable-background="new 0 0 2352.487 327.629"
	 xml:space="preserve">
<g>
	<polygon fill="#0094FF" points="419.056,273.767 450.136,273.767 450.136,122.813 506.579,122.813 506.579,96.122 362.853,96.122
		362.853,122.813 419.056,122.813 	"/>
	<path fill="#0094FF" d="M569.963,96.122h-33.071l-68.115,177.645h32.066l16.657-46.94h70.854l16.663,46.94h30.444l1.836-2.688
		L569.963,96.122z M525.953,203.347l26.845-76.561h0.5h0.244l26.61,76.561H525.953z"/>
	<polygon fill="#0094FF" points="671.008,273.767 716.009,205.845 760.268,273.767 798.071,273.767 735.163,181.706 793.84,96.122
		759.026,96.122 717.015,158.819 676.725,96.122 639.675,96.122 698.359,181.706 637.297,271.078 638.332,273.767 	"/>
</g>
<polygon fill="#0094FF" points="149.776,327.592 149.213,326.13 148.215,327.592 "/>
<g>
	<polygon fill="#0094FF" points="891.225,269.783 922.313,269.783 922.313,190.84 1002.622,190.84 1002.622,165.413
		922.313,165.413 922.313,118.827 1013.813,118.827 1013.813,92.137 891.225,92.137 	"/>
	<path fill="#0094FF" d="M1099.181,88.12c-53.315,0-85.139,42.271-85.139,92.835c0,50.569,31.823,92.846,85.139,92.846
		c53.321,0,85.148-42.276,85.148-92.846C1184.329,130.392,1152.502,88.12,1099.181,88.12z M1099.181,248.378
		c-38.111,0-54.06-33.461-54.06-67.423c0-33.956,15.948-67.415,54.06-67.415c38.123,0,54.066,33.459,54.066,67.415
		C1153.245,214.917,1137.303,248.378,1099.181,248.378z"/>
	<path fill="#0094FF" d="M1310.295,195.634c0,23.876-1.487,51.499-41.717,51.499c-40.235,0-41.716-27.623-41.716-51.499V92.135
		h-31.093v113.688c0,45.497,29.096,68.012,72.809,68.012c43.714,0,72.807-22.512,72.807-68.012V92.135h-31.09V195.634
		L1310.295,195.634z"/>
	<polygon fill="#0094FF" points="1475.26,223.009 1474.762,223.009 1393.909,92.137 1361.135,92.137 1361.135,269.783
		1390.688,269.783 1390.688,139.162 1391.429,139.162 1472.037,269.783 1504.798,269.783 1504.798,92.137 1475.26,92.137 	"/>
	<path fill="#0094FF" d="M1605.447,92.176h-73.48v177.578l73.48,0.002c54.565,0,78.205-39.841,78.205-88.801
		C1683.652,132.004,1660.013,92.176,1605.447,92.176z M1593.542,244.34h-30.499V117.588h30.499c48.604,0,59.019,27.83,59.019,63.367
		C1652.561,216.505,1642.143,244.34,1593.542,244.34z"/>
	<path fill="#0094FF" d="M1748.979,92.137l-68.117,177.646h32.064l16.654-46.939h70.862l16.663,46.939h33.318l-68.376-177.646
		H1748.979z M1738.042,199.375l26.847-76.567h0.496h0.244l26.612,76.567H1738.042z"/>
	<polygon fill="#0094FF" points="1820.604,118.827 1876.787,118.827 1876.787,269.783 1907.878,269.783 1907.878,118.827
		1964.315,118.827 1964.315,92.137 1820.604,92.137 	"/>
	<rect x="1975.037" y="92.137" fill="#0094FF" width="31.075" height="177.646"/>
	<path fill="#0094FF" d="M2104.66,88.12c-53.312,0-85.146,42.271-85.146,92.835c0,50.569,31.835,92.846,85.146,92.846
		c53.334,0,85.153-42.276,85.153-92.846C2189.813,130.392,2157.994,88.12,2104.66,88.12z M2104.66,248.378
		c-38.118,0-54.055-33.461-54.055-67.423c0-33.955,15.937-67.415,54.055-67.415c38.137,0,54.063,33.46,54.063,67.415
		C2158.724,214.917,2142.801,248.378,2104.66,248.378z"/>
	<polygon fill="#0094FF" points="2316.15,92.139 2316.15,223.009 2315.672,223.009 2234.791,92.139 2202.029,92.139
		2202.029,269.783 2231.579,269.783 2231.579,139.162 2232.319,139.162 2312.928,269.783 2345.7,269.783 2345.7,92.139 	"/>
</g>
<g>
	<path fill="#0094FF" d="M127.119,263.771v59.763c2.021,0.461,4.062,0.879,6.111,1.263v-59.699l5.66,1.278v59.394
		c1.905,0.289,3.825,0.535,5.752,0.756v-58.963l5.846,1.276v58.263c1.938,0.155,3.886,0.271,5.841,0.356v-57.339l5.84,1.273v56.217
		c0.487,0.005,0.973,0.02,1.46,0.02c1.466,0,2.927-0.021,4.384-0.061v-54.896l5.843,1.282V327.3c1.956-0.12,3.903-0.271,5.843-0.456
		v-51.619l5.841,1.192v49.745c1.99-0.268,3.969-0.568,5.938-0.906v-47.566l5.837,1.278v45.181c1.934-0.404,3.852-0.849,5.756-1.317
		v-42.583l5.841,1.193v39.834c1.932-0.555,3.846-1.15,5.746-1.773v-36.787l5.851,1.273v33.478c2.025-0.752,4.033-1.543,6.021-2.372
		v-29.828l5.85,1.289v25.963c1.934-0.896,3.853-1.819,5.745-2.789v-21.903l5.844,1.19v17.558c1.975-1.114,3.921-2.271,5.843-3.464
		V290.29l5.842,1.278v7.746c4.763-3.244,9.341-6.735,13.727-10.453l-151.015-32.574l-21.178,8.396l-27.021-4.285l-29.749,11.254
		c1.392,1.593,2.813,3.156,4.264,4.692l22.653-8.825v28.768c1.887,1.376,3.803,2.714,5.751,4.011V267.52l20.447,3.193v41.169
		c2.4,1.14,4.838,2.226,7.304,3.251v-45.336l14.604-5.381v55.994c1.934,0.595,3.885,1.146,5.846,1.672V262.5L127.119,263.771z"/>
	<path fill="#0094FF" d="M97.179,254.645l21.176-8.854l158.606,36.228c0.607-0.582,1.205-1.168,1.803-1.76l-160.361-38.799
		c-1.102,1.104-21.224,8.35-21.224,8.35l-27.021-5.205l-39.583,14.647c1.023,1.429,2.073,2.833,3.141,4.228l36.535-13.395
		L97.179,254.645z"/>
	<path fill="#0094FF" d="M67.968,186.684c-0.66,0-1.192,0.527-1.192,1.184v10.726c0,0.655,0.532,1.19,1.192,1.19
		c0.653,0,1.186-0.535,1.186-1.19v-10.726C69.154,187.211,68.621,186.684,67.968,186.684z"/>
	<path fill="#0094FF" d="M76.727,184.93c-0.651,0-1.186,0.526-1.186,1.183v10.727c0,0.65,0.532,1.184,1.186,1.184
		c0.659,0,1.188-0.533,1.188-1.184v-10.727C77.914,185.456,77.386,184.93,76.727,184.93z"/>
	<path fill="#0094FF" d="M85.404,183.649c-0.66,0-1.191,0.527-1.191,1.184v10.725c0,0.656,0.532,1.19,1.191,1.19
		c0.652,0,1.186-0.534,1.186-1.19v-10.725C86.589,184.177,86.058,183.649,85.404,183.649z"/>
	<path fill="#0094FF" d="M94.254,182.916c-0.653,0-1.185,0.532-1.185,1.188v10.728c0,0.655,0.53,1.19,1.185,1.19
		c0.658,0,1.188-0.535,1.188-1.19v-10.728C95.44,183.448,94.912,182.916,94.254,182.916z"/>
	<path fill="#0094FF" d="M102.562,182.83c-0.655,0-1.186,0.527-1.186,1.185v10.721c0,0.655,0.528,1.188,1.186,1.188
		c0.656,0,1.188-0.533,1.188-1.188v-10.721C103.75,183.357,103.217,182.83,102.562,182.83z"/>
	<path fill="#0094FF" d="M110.686,183.468c-0.654,0-1.188,0.529-1.188,1.183v10.727c0,0.655,0.532,1.189,1.188,1.189
		c0.657,0,1.189-0.534,1.189-1.189V184.65C111.875,183.997,111.343,183.468,110.686,183.468z"/>
	<path fill="#0094FF" d="M60.751,188.764c-0.649,0-1.185,0.521-1.185,1.183v10.724c0,0.652,0.536,1.188,1.185,1.188
		c0.657,0,1.193-0.535,1.193-1.188v-10.724C61.944,189.285,61.408,188.764,60.751,188.764z"/>
	<path fill="#0094FF" d="M54.002,192.658c-0.581,0-1.049,0.474-1.049,1.056v9.398c0,0.576,0.468,1.051,1.049,1.051
		c0.576,0,1.043-0.475,1.043-1.051v-9.398C55.045,193.132,54.578,192.658,54.002,192.658z"/>
	<path fill="#0094FF" d="M48.113,196.45c-0.583,0-1.052,0.469-1.052,1.05v8.127c0,0.576,0.469,1.05,1.052,1.05
		c0.581,0,1.05-0.474,1.05-1.05V197.5C49.163,196.919,48.694,196.45,48.113,196.45z"/>
	<path fill="#0094FF" d="M91.836,243.705c8.904,0.018,12.563,2.361,12.609-0.153c0.033-1.864-4.26-2.866-12.789-2.702
		c-10.73,0.192-11.914,1.021-11.879,3.25C79.798,245.703,82.205,243.688,91.836,243.705z"/>
	<path fill="#0094FF" d="M102.288,153.959c-0.554,0-1,0.445-1,1.003v1.916c0,0.555,0.446,1.004,1,1.004
		c0.557,0,1.004-0.449,1.004-1.004v-1.916C103.292,154.404,102.845,153.959,102.288,153.959z"/>
	<path fill="#0094FF" d="M94.986,153.912c-0.557,0-1.006,0.448-1.006,1.004v1.915c0,0.559,0.45,1.007,1.006,1.007
		c0.552,0,1.007-0.448,1.007-1.007v-1.915C95.993,154.36,95.538,153.912,94.986,153.912z"/>
	<path fill="#0094FF" d="M87.59,154.369c-0.554,0-1.001,0.45-1.001,1.007v1.912c0,0.556,0.447,1.004,1.001,1.004
		s1.008-0.448,1.008-1.004v-1.912C88.598,154.819,88.144,154.369,87.59,154.369z"/>
	<path fill="#0094FF" d="M80.381,155.466c-0.553,0-1.001,0.449-1.001,1.003v1.917c0,0.554,0.448,1.003,1.001,1.003
		s1.003-0.449,1.003-1.003v-1.917C81.384,155.915,80.934,155.466,80.381,155.466z"/>
	<path fill="#0094FF" d="M73.443,157.382c-0.557,0-1.004,0.45-1.004,1.004v1.369c0,0.554,0.447,1.005,1.004,1.005
		c0.554,0,1.004-0.451,1.004-1.005v-1.369C74.447,157.832,73.997,157.382,73.443,157.382z"/>
	<path fill="#0094FF" d="M67.146,159.479c-0.555,0-1.008,0.451-1.008,1.009v0.727c0,0.555,0.454,1.005,1.008,1.005
		c0.554,0,1.005-0.45,1.005-1.005v-0.727C68.15,159.93,67.699,159.479,67.146,159.479z"/>
	<path fill="#0094FF" d="M61.482,161.899c-0.554,0-1.002,0.451-1.002,1.005v0.731c0,0.554,0.448,1.005,1.002,1.005
		c0.556,0,1.008-0.451,1.008-1.005v-0.731C62.49,162.351,62.039,161.899,61.482,161.899z"/>
	<path fill="#0094FF" d="M163.629,0.371C73.263,0.371,0,73.632,0,163.999c0,34.096,10.434,65.754,28.277,91.964l4.726-2.141v-17.805
		c0-3.01,3.286-3.373,3.286-1.459c0,0,0,11.873,0,14.061c0,3.285,3.194,4.107,3.194,0.729c0-2.097,0-20.176,0-20.265
		c0-3.282,4.387-3.743,4.387-1.729c0,4.199,0,17.155,0,19.537c0,2.369,3.373,2.004,3.373,0c0-2.015,0-22.826,0-22.645
		c0-2.645,5.298-3.287,5.298-1.278c0,0,0,17.712,0,20.722c0,2.646,3.101,2.561,3.101,0c0-2.281,0-22.633,0-22.729
		c0-2.101,7.303-3.374,7.303-0.91c0,0.182,0,16.887,0,19.902c0,3.008,3.285,2.463,3.285,0.181c0-2.278,0-18.894,0-21.181
		c0-2.372,1.941-3.49,3.47-2.623c2.371,1.343,3.287-0.114,3.468,2.257c0.238,3.099,0,17.353,0,19.354
		c0,2.279,3.288,2.098,3.288-0.185c0-1.272,0-20.632,0-21.634c0-0.55,4.292-2.098,4.646-0.15c0.308,1.663,3.748,0.517,3.748,2.433
		c0,2.471,0,17.164,0,18.26c0,2.007,3.196,2.007,3.196,0c0-1.189,0-19.989,0-21.457c0-1.638,4.748-1.092,4.744,1.031
		c0,1.755,4.066,0.497,4.109,1.71c0.093,2.555,0,17.067,0,18.808c0,2.1,3.195,2.006,3.195,0c0-1.646,0-20.45,0-21.641
		c0-1.091,3.74-2.008,4.188,0.103c0.398,1.901,4.119,1.137,4.119,3.277c0,4.108,0,15.521,0,18.53c0,2.375,3.191,1.734,3.191-0.545
		c0-2.281,0-16.614,0-19.356c0-1.372,3.602-1.959,4.564-0.352c1.37,2.27,3.744,1.037,3.744,2.634c0,3.197,0.091,14.885,0,16.894
		c0,2.917,3.195,3.288,3.195,0.272c0-2.373-0.033-17.446,0-17.53c1.001-2.373,4.927,4.199,6.756,1.461c0,0,4.652-5.751-1.275-7.298
		c-42.652-11.158-72.118,0.085-85.266,6.936c-0.902,0.466-3.896,1.893-6.64,3.5c-2.555,1.51-4.672,3.151-4.584,2.801
		c1.477-5.916,1.275-6.027,8.335-10.082c25.736-14.779,59.973-16.333,92.079-7.996c7.028,1.825,12.868,5.109,12.868,3.563
		c0-1.555-3.522-3.212-10.769-5.752c-10.411-3.647-60.708-14.97-99.502,10.222c-1.688,1.095,4.656-6.207,8.673-7.851v-6.297
		l-2.831-4.747v-3.38c23.461-17.432,64.813-16.613,84.896-11.315c6.785,1.785,11.773,4.563,11.908,2.912
		c0.139-1.649-12.135-5.574-14.924-6.201c-21.997-4.925-50.188-3.738-73.266,5.377c-3.044,1.2-5.549,2.877-5.781,2.428
		c-0.394-0.777,2.314-4.43,3.737-5.794c18.713-17.891,61.069-12.688,63.353-12.416c5.825,0.697,15.064,3.287,15.157,2.042
		c0.097-1.245-5.946-3.255-14.696-4.322c-30.671-3.744-48.384,2.646-56.854,6.358c-1.721,0.754-2.583,1.292-3.274,0.952
		c-0.7-0.326,0.292-3.094,0.879-4.484c0,0,7.578-19.258,29.691-33.208c-0.058,0.038,1.803-5.951,5.91-9.146c0,0,0-6.572,0-8.306
		c0-1.737-2.895-5.536-2.895-5.536s-0.71-1.458-0.025-2.407c4.471-6.205,8.033-9.036,8.033-11.409c0-3.014,0.729-18.987,2.92-18.987
		c2.193,0,2.918,16.521,2.918,19.716c0,3.015,4.569,5.846,7.947,10.775c0.618,0.905-0.186,2.464-0.186,2.464
		s-2.463,2.921-2.559,5.385c-0.125,3.377-0.045,8.229,0.042,8.295c4.432,3.297,6.025,9.226,5.894,9.141
		c28.117,18.258,29.771,41.617,30.579,42.176c7.579,5.198,11.688,14.693,11.688,14.693s0.27,2.005,0.035,4.207
		c-0.229,2.2-3.097,4.731-3.097,4.731l0.043,4.302c5.479,3.103,11.597,10.127,13.06,12.68c0.864,1.531-0.646,7.583-0.646,7.583
		s-1.732,4.016-3.558,7.114c-0.397,0.681,0,10.957,0,10.957l126.34,29.708c26.72-29.122,43.032-67.947,43.032-110.585
		C327.255,73.632,253.999,0.371,163.629,0.371z"/>
</g>
</svg>
