<?xml version="1.0" encoding="utf-8"?>
<!-- Generator: Adobe Illustrator 16.0.0, SVG Export Plug-In . SVG Version: 6.00 Build 0)  -->
<!DOCTYPE svg PUBLIC "-//W3C//DTD SVG 1.1//EN" "http://www.w3.org/Graphics/SVG/1.1/DTD/svg11.dtd">
<svg version="1.1" id="Layer_1" xmlns="http://www.w3.org/2000/svg" xmlns:xlink="http://www.w3.org/1999/xlink" x="0px" y="0px"
   width="90px" height="90px" viewBox="0 0 90 90" enable-background="new 0 0 90 90" xml:space="preserve">
<g>
  <g>
    <path fill="#0094ff" d="M45,89.45C20.49,89.45,0.55,69.51,0.55,45S20.49,0.55,45,0.55S89.45,20.49,89.45,45S69.51,89.45,45,89.45z
       M45,3.05C21.869,3.05,3.05,21.869,3.05,45c0,23.132,18.819,41.95,41.95,41.95S86.95,68.132,86.95,45
      C86.95,21.869,68.131,3.05,45,3.05z"/>
  </g>
  <g>
    <g>
      <path fill="#0094ff" d="M72.502,50.429c-0.404,0-0.801-0.195-1.042-0.557l-0.226-0.339l-0.99-1.374
        c-0.039-0.055-0.074-0.111-0.104-0.171l-0.072-0.145l-3.13-4.558l-4.233,6.294c-0.022,0.034-0.046,0.067-0.072,0.1l-0.227,0.282
        c-0.432,0.537-1.218,0.625-1.757,0.191c-0.538-0.432-0.624-1.219-0.192-1.757l0.188-0.234l2.062-3.121l0.942-1.297l2.211-3.376
        c0.225-0.349,0.609-0.563,1.024-0.57c0.435-0.021,0.808,0.189,1.046,0.528l4.239,6.16c0.035,0.05,0.066,0.102,0.093,0.156
        l0.068,0.137l1.21,1.707c0.382,0.574,0.227,1.351-0.348,1.733C72.981,50.361,72.74,50.429,72.502,50.429z"/>
    </g>
    <g>
      <path fill="#0094ff" d="M46.355,72.734c-0.067,0-0.135-0.005-0.204-0.017c-0.484-0.08-0.877-0.437-1.004-0.911l-3.947-15.671
        l-0.807,1.938l-0.492,1.314l-0.581,1.396l-0.491,1.313l-0.582,1.398c-0.218,0.522-0.762,0.832-1.323,0.757
        c-0.562-0.076-1.001-0.521-1.071-1.084l-1.232-9.855l-2.508,4.839c-0.033,0.066-0.072,0.13-0.117,0.188l-0.169,0.227
        c-0.323,0.432-0.887,0.609-1.396,0.438c-0.511-0.169-0.856-0.647-0.856-1.186v-0.097l-0.539-2.585l-0.235-1.405l-0.555-2.661
        l-0.291-1.68c-0.117-0.681,0.339-1.327,1.02-1.444c0.685-0.113,1.327,0.34,1.444,1.02l0.978,5.14l0.568-1.139l2.322-4.363
        c0.254-0.49,0.8-0.756,1.343-0.653s0.954,0.549,1.011,1.099l1.091,9.002l0.336-0.898l1.146-2.751l0.492-1.314l0.558-1.34
        c0.172-0.491,0.635-0.854,1.177-0.854c0.65,0,1.184,0.471,1.244,1.102l0.308,1.229l0.383,1.309l3.485,13.938l5.569-8.184
        c0.384-0.574,1.16-0.729,1.734-0.346s0.729,1.159,0.346,1.733l-7.115,10.503C47.162,72.529,46.769,72.734,46.355,72.734z"/>
    </g>
    <g>
      <path fill="#0094ff" d="M7.052,50.43c-0.141,0-0.285-0.024-0.425-0.075c-0.649-0.234-0.985-0.951-0.751-1.601l7.405-20.858
        c0.175-0.459,0.604-0.773,1.094-0.803c0.489-0.028,0.953,0.232,1.181,0.668l2.212,4.122l0.465-1.396l0.38-1.31l0.467-1.401
        l2.977-9.609c0.15-0.528,0.631-0.93,1.202-0.93c0.661,0,1.202,0.487,1.247,1.135l0.259,1.244L25,21.021l0.556,2.661l0.235,1.405
        l0.837,4.186l0.236,1.404l0.273,1.306l0.271,1.533c0.168,0.669-0.239,1.349-0.909,1.516c-0.672,0.17-1.349-0.239-1.516-0.908
        l-0.057-0.227c-0.008-0.032-0.015-0.065-0.021-0.099l-0.226-1.355l-0.273-1.305l-0.236-1.404l-0.837-4.187l-0.357-1.989
        l-0.212,0.729l-0.467,1.4l-0.834,2.84l-0.465,1.396l-0.38,1.309l-0.467,1.401l-0.783,2.52c-0.015,0.536-0.371,1.005-0.887,1.162
        c-0.524,0.16-1.095-0.044-1.402-0.502l-0.113-0.169c-0.021-0.032-0.042-0.065-0.06-0.1l-2.231-4.119l-0.469,1.252l-0.436,1.311
        l-0.524,1.4l-0.436,1.311l-0.524,1.4l-0.436,1.311l-0.524,1.399l-0.436,1.311l-0.524,1.4L9.932,44.83l-0.524,1.4l-0.436,1.311
        l-0.745,2.063C8.043,50.112,7.563,50.43,7.052,50.43z"/>
    </g>
    <g>
      <path fill="#0094ff" d="M56.408,69.516c-0.039,0-0.078-0.002-0.117-0.005c-0.466-0.044-0.869-0.345-1.043-0.779L49.27,53.879
        l-2.003,2.416c-0.284,0.348-0.734,0.515-1.177,0.441c-0.443-0.076-0.812-0.384-0.965-0.806l-3.216-8.915l-0.526-1.633
        l-1.236-3.349l-2.994,3.709c-0.27,0.325-0.683,0.491-1.104,0.442c-0.419-0.049-0.785-0.306-0.974-0.683l-6.467-12.992
        L17.932,48.124c-0.236,0.313-0.606,0.498-0.999,0.498c0,0-0.001,0-0.002,0c-0.393-0.001-0.763-0.187-0.999-0.501l-0.124-0.165
        l-2.677-2.737l-0.165,0.148l-2.865,2.697l-2.203,2.033c-0.507,0.469-1.298,0.438-1.766-0.071
        c-0.468-0.507-0.437-1.298,0.071-1.766l6.169-5.717c0.505-0.452,1.279-0.42,1.744,0.075l0.903,0.96l1.769,1.786l0.178-0.268
        L27.208,30.16l0.456-0.768c0.232-0.386,0.632-0.614,1.104-0.606c0.45,0.011,0.859,0.264,1.071,0.661l3.855,7.652l2.757,5.57
        l3.183-3.947c0.291-0.349,0.746-0.513,1.191-0.429s0.811,0.402,0.955,0.832l0.839,2.404l1.124,3.036l0.526,1.632l2.485,6.794
        l1.885-2.317c0.275-0.357,0.723-0.541,1.17-0.474c0.447,0.064,0.825,0.366,0.987,0.788l4.109,10.189l1.755,4.367l11.017-17.062
        c0.384-0.574,1.161-0.728,1.734-0.345c0.574,0.384,0.728,1.16,0.344,1.734l-0.227,0.339l-0.761,1.253l-0.882,1.297l-0.756,1.245
        l-5.794,8.863l-3.876,6.067C57.229,69.301,56.831,69.516,56.408,69.516z"/>
    </g>
    <g>
      <path fill="#0094ff" d="M66.063,68.443c-0.064,0-0.128-0.005-0.192-0.015c-0.409-0.064-0.76-0.326-0.938-0.701l-0.508-1.072
        l-0.697-1.624l-1.454-3.128l-0.671-1.563l-0.369-0.686c-0.327-0.608-0.1-1.366,0.508-1.693c0.607-0.327,1.365-0.101,1.693,0.508
        l0.396,0.734c0.018,0.032,0.034,0.066,0.048,0.1l0.678,1.581l1.869,4.098l13.556-14.553H7.052c-0.69,0-1.25-0.56-1.25-1.25
        s0.56-1.25,1.25-1.25h75.84c0.505,0,0.961,0.305,1.155,0.771c0.193,0.468,0.086,1.005-0.271,1.362l-1.447,1.504L66.977,68.046
        C66.739,68.302,66.407,68.443,66.063,68.443z"/>
    </g>
    <g>
      <path fill="#0094ff" d="M57.875,50.43c-0.485,0-0.947-0.284-1.149-0.759l-0.508-1.186l-3.09-6.721l-2.252,3.872
        c-0.234,0.396-0.662,0.632-1.129,0.612c-0.46-0.02-0.873-0.291-1.073-0.706l-6.391-13.12l-5.646,7.665l-1.378,1.781
        c-0.422,0.546-1.208,0.646-1.753,0.223s-0.646-1.207-0.223-1.753l5.986-7.962l1.785-2.512l0.485-0.61
        c0.271-0.338,0.694-0.511,1.126-0.461c0.43,0.053,0.803,0.323,0.984,0.717l0.34,0.734l2.355,4.709l0.757,1.686l2.809,5.685
        l2.245-3.922c0.231-0.412,0.681-0.662,1.146-0.637c0.471,0.021,0.89,0.306,1.084,0.735l4.64,10.186
        c0.272,0.635-0.022,1.37-0.657,1.642C58.207,50.396,58.04,50.43,57.875,50.43z"/>
    </g>
    <g>

        <path fill="none" stroke="#0094ff" stroke-width="2.5" stroke-linecap="round" stroke-linejoin="round" stroke-miterlimit="10" d="
        M49.97,46.017"/>
    </g>
    <g>

        <path fill="none" stroke="#0094ff" stroke-width="2.5" stroke-linecap="round" stroke-linejoin="round" stroke-miterlimit="10" d="
        M49.97,46.524"/>
    </g>
    <g>

        <path fill="none" stroke="#0094ff" stroke-width="2.5" stroke-linecap="round" stroke-linejoin="round" stroke-miterlimit="10" d="
        M67.023,68.943"/>
    </g>
    <g>
      <g>
        <path fill="#0094ff" d="M44.604,51.316H29.471c-0.276,0-0.5-0.224-0.5-0.5s0.224-0.5,0.5-0.5h15.134c0.276,0,0.5,0.224,0.5,0.5
          S44.881,51.316,44.604,51.316z"/>
      </g>
      <g>
        <path fill="#0094ff" d="M33.818,52.672h-4.065c-0.276,0-0.5-0.224-0.5-0.5s0.224-0.5,0.5-0.5h4.065c0.276,0,0.5,0.224,0.5,0.5
          S34.095,52.672,33.818,52.672z"/>
      </g>
      <g>
        <path fill="#0094ff" d="M49.913,52.672h-0.848c-0.276,0-0.5-0.224-0.5-0.5s0.224-0.5,0.5-0.5h0.848c0.276,0,0.5,0.224,0.5,0.5
          S50.189,52.672,49.913,52.672z"/>
      </g>
      <g>
        <path fill="#0094ff" d="M45.112,52.672h-9.374c-0.276,0-0.5-0.224-0.5-0.5s0.224-0.5,0.5-0.5h9.374c0.276,0,0.5,0.224,0.5,0.5
          S45.389,52.672,45.112,52.672z"/>
      </g>
      <g>
        <path fill="#0094ff" d="M50.478,54.027h-2.541c-0.276,0-0.5-0.224-0.5-0.5s0.224-0.5,0.5-0.5h2.541c0.276,0,0.5,0.224,0.5,0.5
          S50.754,54.027,50.478,54.027z"/>
      </g>
      <g>
        <path fill="#0094ff" d="M45.621,54.027h-9.713c-0.276,0-0.5-0.224-0.5-0.5s0.224-0.5,0.5-0.5h9.713c0.276,0,0.5,0.224,0.5,0.5
          S45.897,54.027,45.621,54.027z"/>
      </g>
      <g>
        <path fill="#0094ff" d="M33.085,54.027h-3.05c-0.276,0-0.5-0.224-0.5-0.5s0.224-0.5,0.5-0.5h3.05c0.276,0,0.5,0.224,0.5,0.5
          S33.361,54.027,33.085,54.027z"/>
      </g>
      <g>
        <path fill="#0094ff" d="M51.042,55.383h-8.865c-0.276,0-0.5-0.224-0.5-0.5s0.224-0.5,0.5-0.5h8.865c0.276,0,0.5,0.224,0.5,0.5
          S51.318,55.383,51.042,55.383z"/>
      </g>
      <g>
        <path fill="#0094ff" d="M40.369,55.383h-4.292c-0.276,0-0.5-0.224-0.5-0.5s0.224-0.5,0.5-0.5h4.292c0.276,0,0.5,0.224,0.5,0.5
          S40.646,55.383,40.369,55.383z"/>
      </g>
      <g>
        <path fill="#0094ff" d="M32.407,55.383h-2.146c-0.276,0-0.5-0.224-0.5-0.5s0.224-0.5,0.5-0.5h2.146c0.276,0,0.5,0.224,0.5,0.5
          S32.684,55.383,32.407,55.383z"/>
      </g>
      <g>
        <path fill="#0094ff" d="M39.805,56.737h-3.558c-0.276,0-0.5-0.224-0.5-0.5s0.224-0.5,0.5-0.5h3.558c0.276,0,0.5,0.224,0.5,0.5
          S40.081,56.737,39.805,56.737z"/>
      </g>
      <g>
        <path fill="#0094ff" d="M51.551,56.737h-9.036c-0.276,0-0.5-0.224-0.5-0.5s0.224-0.5,0.5-0.5h9.036c0.276,0,0.5,0.224,0.5,0.5
          S51.827,56.737,51.551,56.737z"/>
      </g>
      <g>
        <path fill="#0094ff" d="M31.673,56.737h-1.13c-0.276,0-0.5-0.224-0.5-0.5s0.224-0.5,0.5-0.5h1.13c0.276,0,0.5,0.224,0.5,0.5
          S31.949,56.737,31.673,56.737z"/>
      </g>
      <g>
        <path fill="#0094ff" d="M39.24,58.093h-2.824c-0.276,0-0.5-0.224-0.5-0.5s0.224-0.5,0.5-0.5h2.824c0.276,0,0.5,0.224,0.5,0.5
          S39.517,58.093,39.24,58.093z"/>
      </g>
      <g>
        <path fill="#0094ff" d="M52.115,58.093h-9.261c-0.276,0-0.5-0.224-0.5-0.5s0.224-0.5,0.5-0.5h9.261c0.276,0,0.5,0.224,0.5,0.5
          S52.392,58.093,52.115,58.093z"/>
      </g>
      <g>
        <path fill="#0094ff" d="M30.995,58.093h-0.169c-0.276,0-0.5-0.224-0.5-0.5s0.224-0.5,0.5-0.5h0.169c0.276,0,0.5,0.224,0.5,0.5
          S31.271,58.093,30.995,58.093z"/>
      </g>
      <g>
        <path fill="#0094ff" d="M38.731,59.448h-2.146c-0.276,0-0.5-0.224-0.5-0.5s0.224-0.5,0.5-0.5h2.146c0.276,0,0.5,0.224,0.5,0.5
          S39.008,59.448,38.731,59.448z"/>
      </g>
      <g>
        <path fill="#0094ff" d="M52.623,59.448h-9.431c-0.276,0-0.5-0.224-0.5-0.5s0.224-0.5,0.5-0.5h9.431c0.276,0,0.5,0.224,0.5,0.5
          S52.899,59.448,52.623,59.448z"/>
      </g>
      <g>
        <path fill="#0094ff" d="M38.167,60.804h-1.412c-0.276,0-0.5-0.224-0.5-0.5s0.224-0.5,0.5-0.5h1.412c0.276,0,0.5,0.224,0.5,0.5
          S38.443,60.804,38.167,60.804z"/>
      </g>
      <g>
        <path fill="#0094ff" d="M53.188,60.804h-9.657c-0.276,0-0.5-0.224-0.5-0.5s0.224-0.5,0.5-0.5h9.657c0.276,0,0.5,0.224,0.5,0.5
          S53.465,60.804,53.188,60.804z"/>
      </g>
      <g>
        <path fill="#0094ff" d="M37.659,62.159h-0.734c-0.276,0-0.5-0.224-0.5-0.5s0.224-0.5,0.5-0.5h0.734c0.276,0,0.5,0.224,0.5,0.5
          S37.936,62.159,37.659,62.159z"/>
      </g>
      <g>
        <path fill="#0094ff" d="M53.979,62.159H43.87c-0.276,0-0.5-0.224-0.5-0.5s0.224-0.5,0.5-0.5h10.108c0.276,0,0.5,0.224,0.5,0.5
          S54.255,62.159,53.979,62.159z"/>
      </g>
      <g>
        <path fill="#0094ff" d="M52.059,63.515h-7.85c-0.276,0-0.5-0.224-0.5-0.5s0.224-0.5,0.5-0.5h7.85c0.276,0,0.5,0.224,0.5,0.5
          S52.335,63.515,52.059,63.515z"/>
      </g>
      <g>
        <path fill="#0094ff" d="M51.155,64.869h-6.607c-0.276,0-0.5-0.224-0.5-0.5s0.224-0.5,0.5-0.5h6.607c0.276,0,0.5,0.224,0.5,0.5
          S51.432,64.869,51.155,64.869z"/>
      </g>
      <g>
        <path fill="#0094ff" d="M50.252,66.225h-5.365c-0.276,0-0.5-0.224-0.5-0.5s0.224-0.5,0.5-0.5h5.365c0.276,0,0.5,0.224,0.5,0.5
          S50.528,66.225,50.252,66.225z"/>
      </g>
      <g>
        <path fill="#0094ff" d="M49.349,67.58h-4.123c-0.276,0-0.5-0.224-0.5-0.5s0.224-0.5,0.5-0.5h4.123c0.276,0,0.5,0.224,0.5,0.5
          S49.625,67.58,49.349,67.58z"/>
      </g>
      <g>
        <path fill="#0094ff" d="M48.388,68.936h-2.823c-0.276,0-0.5-0.224-0.5-0.5s0.224-0.5,0.5-0.5h2.823c0.276,0,0.5,0.224,0.5,0.5
          S48.664,68.936,48.388,68.936z"/>
      </g>
      <g>
        <path fill="#0094ff" d="M47.484,70.291h-1.581c-0.276,0-0.5-0.224-0.5-0.5s0.224-0.5,0.5-0.5h1.581c0.276,0,0.5,0.224,0.5,0.5
          S47.761,70.291,47.484,70.291z"/>
      </g>
    </g>
    <g>
      <g>
        <path fill="#0094ff" d="M67.588,42.507h-1.299c-0.276,0-0.5-0.224-0.5-0.5s0.224-0.5,0.5-0.5h1.299c0.276,0,0.5,0.224,0.5,0.5
          S67.864,42.507,67.588,42.507z"/>
      </g>
      <g>
        <path fill="#0094ff" d="M68.491,43.862h-3.105c-0.276,0-0.5-0.224-0.5-0.5s0.224-0.5,0.5-0.5h3.105c0.276,0,0.5,0.224,0.5,0.5
          S68.768,43.862,68.491,43.862z"/>
      </g>
      <g>
        <path fill="#0094ff" d="M69.452,45.218h-4.97c-0.276,0-0.5-0.224-0.5-0.5s0.224-0.5,0.5-0.5h4.97c0.276,0,0.5,0.224,0.5,0.5
          S69.729,45.218,69.452,45.218z"/>
      </g>
      <g>
        <path fill="#0094ff" d="M70.355,46.573h-6.833c-0.276,0-0.5-0.224-0.5-0.5s0.224-0.5,0.5-0.5h6.833c0.276,0,0.5,0.224,0.5,0.5
          S70.632,46.573,70.355,46.573z"/>
      </g>
      <g>
        <path fill="#0094ff" d="M71.259,47.929h-8.641c-0.276,0-0.5-0.224-0.5-0.5s0.224-0.5,0.5-0.5h8.641c0.276,0,0.5,0.224,0.5,0.5
          S71.535,47.929,71.259,47.929z"/>
      </g>
    </g>
    <g>
      <g>
        <path fill="#0094ff" d="M25.122,28.672h-4.856c-0.276,0-0.5-0.224-0.5-0.5s0.224-0.5,0.5-0.5h4.856c0.276,0,0.5,0.224,0.5,0.5
          S25.398,28.672,25.122,28.672z"/>
      </g>
      <g>
        <path fill="#0094ff" d="M25.404,30.027h-5.591c-0.276,0-0.5-0.224-0.5-0.5s0.224-0.5,0.5-0.5h5.591c0.276,0,0.5,0.224,0.5,0.5
          S25.681,30.027,25.404,30.027z"/>
      </g>
      <g>
        <path fill="#0094ff" d="M15.07,30.027h-1.073c-0.276,0-0.5-0.224-0.5-0.5s0.224-0.5,0.5-0.5h1.073c0.276,0,0.5,0.224,0.5,0.5
          S15.347,30.027,15.07,30.027z"/>
      </g>
      <g>
        <path fill="#0094ff" d="M25.631,31.383h-6.212c-0.276,0-0.5-0.224-0.5-0.5s0.224-0.5,0.5-0.5h6.212c0.276,0,0.5,0.224,0.5,0.5
          S25.907,31.383,25.631,31.383z"/>
      </g>
      <g>
        <path fill="#0094ff" d="M15.805,31.383h-2.259c-0.276,0-0.5-0.224-0.5-0.5s0.224-0.5,0.5-0.5h2.259c0.276,0,0.5,0.224,0.5,0.5
          S16.081,31.383,15.805,31.383z"/>
      </g>
      <g>
        <path fill="#0094ff" d="M29.188,31.383h-0.96c-0.276,0-0.5-0.224-0.5-0.5s0.224-0.5,0.5-0.5h0.96c0.276,0,0.5,0.224,0.5,0.5
          S29.465,31.383,29.188,31.383z"/>
      </g>
      <g>
        <path fill="#0094ff" d="M16.539,32.737h-3.502c-0.276,0-0.5-0.224-0.5-0.5s0.224-0.5,0.5-0.5h3.502c0.276,0,0.5,0.224,0.5,0.5
          S16.815,32.737,16.539,32.737z"/>
      </g>
      <g>
        <path fill="#0094ff" d="M27.269,32.737h-8.302c-0.276,0-0.5-0.224-0.5-0.5s0.224-0.5,0.5-0.5h8.302c0.276,0,0.5,0.224,0.5,0.5
          S27.545,32.737,27.269,32.737z"/>
      </g>
      <g>
        <path fill="#0094ff" d="M26.364,34.093H12.586c-0.276,0-0.5-0.224-0.5-0.5s0.224-0.5,0.5-0.5h13.778c0.276,0,0.5,0.224,0.5,0.5
          S26.641,34.093,26.364,34.093z"/>
      </g>
      <g>
        <path fill="#0094ff" d="M25.404,35.448H12.077c-0.276,0-0.5-0.224-0.5-0.5s0.224-0.5,0.5-0.5h13.327c0.276,0,0.5,0.224,0.5,0.5
          S25.681,35.448,25.404,35.448z"/>
      </g>
      <g>
        <path fill="#0094ff" d="M24.501,36.804H11.626c-0.276,0-0.5-0.224-0.5-0.5s0.224-0.5,0.5-0.5h12.875c0.276,0,0.5,0.224,0.5,0.5
          S24.777,36.804,24.501,36.804z"/>
      </g>
      <g>
        <path fill="#0094ff" d="M32.633,38.159h-0.057c-0.276,0-0.5-0.224-0.5-0.5s0.224-0.5,0.5-0.5s0.528,0.224,0.528,0.5
          S32.909,38.159,32.633,38.159z"/>
      </g>
      <g>
        <path fill="#0094ff" d="M23.598,38.159h-12.48c-0.276,0-0.5-0.224-0.5-0.5s0.224-0.5,0.5-0.5h12.48c0.276,0,0.5,0.224,0.5,0.5
          S23.874,38.159,23.598,38.159z"/>
      </g>
      <g>
        <path fill="#0094ff" d="M22.638,39.515H10.666c-0.276,0-0.5-0.224-0.5-0.5s0.224-0.5,0.5-0.5h11.972c0.276,0,0.5,0.224,0.5,0.5
          S22.914,39.515,22.638,39.515z"/>
      </g>
      <g>
        <path fill="#0094ff" d="M21.734,40.869H10.157c-0.276,0-0.5-0.224-0.5-0.5s0.224-0.5,0.5-0.5h11.577c0.276,0,0.5,0.224,0.5,0.5
          S22.011,40.869,21.734,40.869z"/>
      </g>
      <g>
        <path fill="#0094ff" d="M20.774,42.225H9.706c-0.276,0-0.5-0.224-0.5-0.5s0.224-0.5,0.5-0.5h11.068c0.276,0,0.5,0.224,0.5,0.5
          S21.051,42.225,20.774,42.225z"/>
      </g>
      <g>
        <path fill="#0094ff" d="M19.87,43.58H9.197c-0.276,0-0.5-0.224-0.5-0.5s0.224-0.5,0.5-0.5H19.87c0.276,0,0.5,0.224,0.5,0.5
          S20.146,43.58,19.87,43.58z"/>
      </g>
      <g>
        <path fill="#0094ff" d="M18.967,44.936H8.746c-0.276,0-0.5-0.224-0.5-0.5s0.224-0.5,0.5-0.5h10.221c0.276,0,0.5,0.224,0.5,0.5
          S19.243,44.936,18.967,44.936z"/>
      </g>
      <g>
        <path fill="#0094ff" d="M10.722,46.291H8.237c-0.276,0-0.5-0.224-0.5-0.5s0.224-0.5,0.5-0.5h2.484c0.276,0,0.5,0.224,0.5,0.5
          S10.998,46.291,10.722,46.291z"/>
      </g>
      <g>
        <path fill="#0094ff" d="M18.007,46.291h-2.541c-0.276,0-0.5-0.224-0.5-0.5s0.224-0.5,0.5-0.5h2.541c0.276,0,0.5,0.224,0.5,0.5
          S18.283,46.291,18.007,46.291z"/>
      </g>
      <g>
        <path fill="#0094ff" d="M9.254,47.646H7.786c-0.276,0-0.5-0.224-0.5-0.5s0.224-0.5,0.5-0.5h1.468c0.276,0,0.5,0.224,0.5,0.5
          S9.53,47.646,9.254,47.646z"/>
      </g>
      <g>
        <path fill="#0094ff" d="M17.104,47.646h-0.339c-0.276,0-0.5-0.224-0.5-0.5s0.224-0.5,0.5-0.5h0.339c0.276,0,0.5,0.224,0.5,0.5
          S17.38,47.646,17.104,47.646z"/>
      </g>
    </g>
    <g>
      <g>
        <path fill="#0094ff" d="M23.255,19.02c-0.13,0-0.25-0.06-0.35-0.149c-0.09-0.101-0.15-0.221-0.15-0.351
          c0-0.14,0.05-0.26,0.15-0.359c0.2-0.19,0.52-0.181,0.7,0c0.1,0.1,0.15,0.229,0.15,0.359c0,0.12-0.05,0.25-0.14,0.351
          C23.515,18.97,23.385,19.02,23.255,19.02z"/>
      </g>
      <g>
        <path fill="#0094ff" d="M23.541,20.371h-0.734c-0.276,0-0.5-0.224-0.5-0.5s0.224-0.5,0.5-0.5h0.734c0.276,0,0.5,0.224,0.5,0.5
          S23.817,20.371,23.541,20.371z"/>
      </g>
      <g>
        <path fill="#0094ff" d="M23.767,21.726h-1.355c-0.276,0-0.5-0.224-0.5-0.5s0.224-0.5,0.5-0.5h1.355c0.276,0,0.5,0.224,0.5,0.5
          S24.043,21.726,23.767,21.726z"/>
      </g>
      <g>
        <path fill="#0094ff" d="M24.05,23.081h-2.09c-0.276,0-0.5-0.224-0.5-0.5s0.224-0.5,0.5-0.5h2.09c0.276,0,0.5,0.224,0.5,0.5
          S24.326,23.081,24.05,23.081z"/>
      </g>
      <g>
        <path fill="#0094ff" d="M24.332,24.437h-2.768c-0.276,0-0.5-0.224-0.5-0.5s0.224-0.5,0.5-0.5h2.768c0.276,0,0.5,0.224,0.5,0.5
          S24.608,24.437,24.332,24.437z"/>
      </g>
      <g>
        <path fill="#0094ff" d="M24.558,25.792h-3.445c-0.276,0-0.5-0.224-0.5-0.5s0.224-0.5,0.5-0.5h3.445c0.276,0,0.5,0.224,0.5,0.5
          S24.834,25.792,24.558,25.792z"/>
      </g>
      <g>
        <path fill="#0094ff" d="M24.84,27.147h-4.122c-0.276,0-0.5-0.224-0.5-0.5s0.224-0.5,0.5-0.5h4.122c0.276,0,0.5,0.224,0.5,0.5
          S25.116,27.147,24.84,27.147z"/>
      </g>
    </g>
    <g>
      <g>
        <g>
          <g>
            <path fill="#0094ff" d="M54.485,42.229c-0.13,0-0.26-0.06-0.35-0.149c-0.1-0.101-0.15-0.221-0.15-0.351
              c0-0.14,0.06-0.27,0.15-0.359c0.18-0.181,0.51-0.19,0.7,0c0.1,0.09,0.15,0.22,0.15,0.359c0,0.13-0.05,0.25-0.14,0.351
              C54.745,42.17,54.615,42.229,54.485,42.229z"/>
          </g>
          <g>
            <path fill="#0094ff" d="M53.155,41.939c-0.27-0.05-0.45-0.319-0.4-0.59l0,0c0.05-0.27,0.31-0.45,0.58-0.399l0,0
              c0.27,0.05,0.45,0.31,0.4,0.58l0,0c-0.04,0.239-0.25,0.409-0.49,0.409l0,0C53.215,41.939,53.185,41.939,53.155,41.939z"/>
          </g>
          <g>
            <path fill="#0094ff" d="M52.005,41.72c-0.13,0-0.26-0.05-0.35-0.15c-0.1-0.1-0.15-0.22-0.15-0.35c0-0.14,0.05-0.26,0.14-0.36
              c0.19-0.18,0.53-0.18,0.71,0.011c0.09,0.08,0.15,0.21,0.15,0.35c0,0.13-0.06,0.26-0.15,0.35
              C52.265,41.66,52.135,41.72,52.005,41.72z"/>
          </g>
        </g>
      </g>
      <g>
        <g>
          <g>
            <path fill="#0094ff" d="M47.545,40.81c-0.14,0-0.26-0.05-0.36-0.14c-0.09-0.101-0.14-0.22-0.14-0.36
              c0-0.13,0.05-0.26,0.15-0.35c0.16-0.18,0.51-0.19,0.7,0c0.09,0.09,0.15,0.22,0.15,0.35s-0.05,0.26-0.15,0.351
              C47.795,40.76,47.675,40.81,47.545,40.81z"/>
          </g>
          <g>
            <path fill="#0094ff" d="M45.865,40.47c-0.27-0.06-0.45-0.33-0.4-0.59l0,0c0.06-0.271,0.32-0.45,0.6-0.4l0,0
              c0.26,0.061,0.44,0.32,0.39,0.59l0,0c-0.05,0.24-0.26,0.4-0.5,0.4l0,0C45.925,40.47,45.895,40.47,45.865,40.47z
               M43.075,39.899c-0.27-0.05-0.44-0.319-0.38-0.59l0,0c0.05-0.27,0.31-0.439,0.58-0.39l0,0c0.27,0.05,0.45,0.32,0.39,0.59l0,0
              c-0.04,0.24-0.25,0.4-0.49,0.4l0,0C43.145,39.91,43.115,39.91,43.075,39.899z M40.295,39.34c-0.27-0.06-0.44-0.32-0.39-0.59
              l0,0c0.06-0.271,0.32-0.45,0.59-0.391l0,0c0.27,0.051,0.45,0.32,0.39,0.591l0,0c-0.04,0.229-0.25,0.399-0.49,0.399l0,0
              C40.365,39.35,40.335,39.34,40.295,39.34z M37.515,38.77c-0.27-0.05-0.44-0.31-0.39-0.59l0,0c0.06-0.27,0.32-0.439,0.59-0.39
              l0,0c0.27,0.06,0.45,0.319,0.39,0.59l0,0c-0.05,0.24-0.25,0.4-0.49,0.4l0,0C37.585,38.78,37.555,38.78,37.515,38.77z"/>
          </g>
          <g>
            <path fill="#0094ff" d="M36.535,38.609c-0.14,0-0.26-0.05-0.36-0.14c-0.09-0.1-0.15-0.229-0.15-0.36
              c0-0.14,0.06-0.27,0.16-0.359c0.16-0.17,0.51-0.181,0.7,0.01c0.09,0.09,0.14,0.22,0.14,0.35c0,0.131-0.05,0.261-0.14,0.351
              C36.785,38.56,36.655,38.609,36.535,38.609z"/>
          </g>
        </g>
      </g>
      <g>
        <g>
          <g>
            <path fill="#0094ff" d="M45.965,37.649c-0.14,0-0.27-0.05-0.36-0.149c-0.09-0.09-0.14-0.22-0.14-0.351
              c0-0.13,0.05-0.26,0.15-0.359c0.16-0.17,0.51-0.181,0.7,0.01c0.09,0.09,0.15,0.22,0.15,0.35c0,0.131-0.06,0.261-0.15,0.351
              C46.215,37.6,46.095,37.649,45.965,37.649z"/>
          </g>
          <g>
            <path fill="#0094ff" d="M44.395,37.3c-0.27-0.05-0.45-0.32-0.39-0.59l0,0c0.05-0.271,0.31-0.44,0.58-0.391l0,0
              c0.28,0.051,0.45,0.32,0.4,0.591l0,0c-0.05,0.239-0.26,0.399-0.49,0.399l0,0C44.465,37.31,44.425,37.31,44.395,37.3z
               M41.705,36.76c-0.27-0.05-0.45-0.31-0.39-0.58l0,0c0.05-0.27,0.32-0.45,0.59-0.399l0,0c0.27,0.06,0.44,0.319,0.39,0.59l0,0
              c-0.05,0.239-0.26,0.399-0.49,0.399l0,0C41.775,36.77,41.735,36.77,41.705,36.76z"/>
          </g>
          <g>
            <path fill="#0094ff" d="M38.395,36.13c-0.13,0-0.26-0.061-0.35-0.15c-0.1-0.1-0.15-0.22-0.15-0.35c0-0.14,0.05-0.26,0.14-0.36
              c0.19-0.189,0.53-0.18,0.71,0.011c0.09,0.079,0.15,0.21,0.15,0.35c0,0.13-0.06,0.26-0.15,0.35
              C38.655,36.069,38.525,36.13,38.395,36.13z"/>
          </g>
        </g>
      </g>
      <g>
        <g>
          <g>
            <path fill="#0094ff" d="M53.755,40.64c-0.13,0-0.26-0.05-0.36-0.14c-0.09-0.101-0.14-0.23-0.14-0.36s0.05-0.25,0.14-0.35
              c0.2-0.19,0.52-0.19,0.71,0c0.1,0.1,0.15,0.22,0.15,0.35s-0.05,0.26-0.15,0.36C54.015,40.59,53.885,40.64,53.755,40.64z"/>
          </g>
          <g>
            <path fill="#0094ff" d="M52.735,40.42c-0.13,0-0.25-0.05-0.35-0.14c-0.1-0.11-0.15-0.23-0.15-0.36s0.06-0.26,0.15-0.36
              c0.19-0.189,0.53-0.18,0.71,0.01c0.09,0.08,0.14,0.211,0.14,0.351c0,0.13-0.05,0.26-0.15,0.35
              C52.995,40.359,52.865,40.42,52.735,40.42z"/>
          </g>
        </g>
      </g>
      <g>
        <g>
          <g>
            <path fill="#0094ff" d="M46.745,39.229c-0.13,0-0.25-0.05-0.35-0.14c-0.09-0.1-0.14-0.23-0.14-0.36s0.05-0.26,0.14-0.35
              c0.2-0.2,0.53-0.19,0.71,0c0.09,0.09,0.15,0.22,0.15,0.35c0,0.141-0.06,0.271-0.16,0.36
              C47.015,39.18,46.885,39.229,46.745,39.229z"/>
          </g>
          <g>
            <path fill="#0094ff" d="M45.125,38.88c-0.27-0.05-0.44-0.32-0.39-0.59l0,0c0.06-0.271,0.32-0.44,0.59-0.391l0,0
              c0.27,0.061,0.45,0.32,0.39,0.591l0,0c-0.05,0.239-0.26,0.399-0.49,0.399l0,0C45.195,38.89,45.165,38.89,45.125,38.88z
               M42.385,38.33c-0.27-0.05-0.45-0.32-0.39-0.59l0,0c0.05-0.271,0.32-0.44,0.59-0.391l0,0c0.27,0.061,0.44,0.32,0.39,0.59l0,0
              c-0.05,0.24-0.26,0.4-0.49,0.4l0,0C42.455,38.34,42.415,38.34,42.385,38.33z M39.645,37.78c-0.27-0.061-0.45-0.32-0.39-0.591
              l0,0c0.05-0.27,0.32-0.449,0.59-0.39l0,0c0.27,0.05,0.44,0.32,0.39,0.59l0,0c-0.05,0.23-0.26,0.4-0.49,0.4l0,0
              C39.715,37.79,39.675,37.78,39.645,37.78z"/>
          </g>
          <g>
            <path fill="#0094ff" d="M37.485,37.37c-0.13,0-0.25-0.051-0.35-0.141c-0.09-0.109-0.14-0.229-0.14-0.359
              s0.05-0.261,0.14-0.351c0.19-0.2,0.53-0.189,0.71,0c0.09,0.08,0.14,0.21,0.14,0.351c0,0.13-0.05,0.26-0.14,0.35
              S37.625,37.37,37.485,37.37z"/>
          </g>
        </g>
      </g>
      <g>
        <g>
          <g>
            <path fill="#0094ff" d="M38.055,43.189c-0.13,0-0.26-0.06-0.35-0.149c-0.1-0.101-0.15-0.221-0.15-0.351
              c0-0.14,0.05-0.27,0.15-0.359c0.17-0.181,0.51-0.19,0.7,0c0.09,0.09,0.15,0.22,0.15,0.359c0,0.13-0.05,0.25-0.15,0.351
              C38.315,43.13,38.185,43.189,38.055,43.189z"/>
          </g>
          <g>
            <path fill="#0094ff" d="M36.405,42.84c-0.28-0.04-0.47-0.29-0.43-0.56l0,0c0.04-0.28,0.29-0.471,0.57-0.431l0,0
              c0.27,0.04,0.46,0.29,0.42,0.57l0,0c-0.03,0.25-0.25,0.43-0.49,0.43l0,0C36.445,42.85,36.425,42.84,36.405,42.84z"/>
          </g>
          <g>
            <path fill="#0094ff" d="M34.945,42.56c-0.13,0-0.26-0.05-0.35-0.14c-0.09-0.101-0.15-0.22-0.15-0.36
              c0-0.13,0.06-0.26,0.15-0.35c0.19-0.19,0.53-0.19,0.71,0c0.09,0.09,0.14,0.22,0.14,0.35c0,0.141-0.05,0.271-0.15,0.36
              C35.215,42.51,35.085,42.56,34.945,42.56z"/>
          </g>
        </g>
      </g>
      <g>
        <g>
          <g>
            <path fill="#0094ff" d="M42.005,43.979c-0.13,0-0.26-0.06-0.35-0.149c-0.1-0.101-0.15-0.221-0.15-0.351
              c0-0.14,0.06-0.26,0.15-0.359c0.18-0.181,0.51-0.19,0.7,0c0.1,0.1,0.15,0.229,0.15,0.359s-0.05,0.25-0.14,0.351
              C42.265,43.93,42.135,43.979,42.005,43.979z"/>
          </g>
          <g>
            <path fill="#0094ff" d="M55.075,46.6c-0.27-0.06-0.45-0.319-0.39-0.59l0,0c0.05-0.27,0.31-0.45,0.58-0.39l0,0
              c0.28,0.05,0.45,0.319,0.4,0.59l0,0c-0.05,0.229-0.26,0.399-0.49,0.399l0,0C55.145,46.609,55.105,46.6,55.075,46.6z
               M52.195,46.02c-0.27-0.05-0.45-0.31-0.4-0.58l0,0c0.06-0.27,0.32-0.449,0.59-0.39l0,0c0.27,0.05,0.45,0.31,0.4,0.58l0,0
              c-0.05,0.24-0.26,0.4-0.49,0.4l0,0C52.255,46.03,52.225,46.03,52.195,46.02z M49.315,45.45c-0.28-0.051-0.45-0.311-0.4-0.591
              l0,0c0.06-0.27,0.32-0.439,0.59-0.39l0,0c0.27,0.061,0.45,0.32,0.39,0.59l0,0c-0.04,0.24-0.25,0.4-0.49,0.4l0,0
              C49.375,45.46,49.345,45.46,49.315,45.45z M46.425,44.88c-0.27-0.061-0.44-0.32-0.39-0.59l0,0
              c0.05-0.271,0.32-0.45,0.59-0.391l0,0c0.27,0.051,0.44,0.32,0.39,0.591l0,0c-0.05,0.229-0.25,0.399-0.49,0.399l0,0
              C46.495,44.89,46.465,44.88,46.425,44.88z M43.545,44.3c-0.27-0.05-0.44-0.31-0.39-0.58l0,0c0.05-0.27,0.32-0.45,0.59-0.4l0,0
              c0.27,0.061,0.44,0.32,0.39,0.591l0,0c-0.05,0.239-0.26,0.399-0.49,0.399l0,0C43.615,44.31,43.585,44.31,43.545,44.3z"/>
          </g>
          <g>
            <path fill="#0094ff" d="M56.635,46.91c-0.13,0-0.26-0.051-0.35-0.141c-0.1-0.1-0.15-0.229-0.15-0.359s0.05-0.261,0.14-0.351
              c0.21-0.2,0.53-0.189,0.71,0c0.1,0.09,0.15,0.221,0.15,0.351s-0.05,0.26-0.14,0.35C56.895,46.859,56.765,46.91,56.635,46.91z"
              />
          </g>
        </g>
      </g>
      <g>
        <g>
          <g>
            <path fill="#0094ff" d="M35.515,39.8c-0.13,0-0.26-0.05-0.35-0.15c-0.1-0.1-0.15-0.22-0.15-0.35s0.05-0.26,0.14-0.35
              c0.21-0.2,0.53-0.19,0.71-0.011c0.09,0.101,0.15,0.221,0.15,0.36c0,0.13-0.05,0.26-0.15,0.35
              C35.775,39.74,35.645,39.8,35.515,39.8z"/>
          </g>
          <g>
            <path fill="#0094ff" d="M45.515,41.83c-0.27-0.05-0.45-0.32-0.39-0.59l0,0c0.05-0.271,0.32-0.44,0.59-0.391l0,0
              c0.27,0.061,0.44,0.32,0.39,0.59l0,0c-0.05,0.24-0.26,0.4-0.49,0.4l0,0C45.585,41.84,45.545,41.84,45.515,41.83z
               M42.675,41.25c-0.27-0.061-0.44-0.32-0.39-0.59l0,0c0.06-0.271,0.32-0.45,0.59-0.391l0,0c0.27,0.05,0.45,0.32,0.39,0.59l0,0
              c-0.05,0.24-0.26,0.4-0.49,0.4l0,0C42.745,41.26,42.715,41.26,42.675,41.25z M39.845,40.67c-0.27-0.05-0.45-0.311-0.4-0.58
              l0,0c0.06-0.271,0.32-0.45,0.59-0.4l0,0c0.27,0.051,0.45,0.311,0.39,0.591l0,0c-0.04,0.239-0.25,0.399-0.49,0.399l0,0
              C39.905,40.68,39.875,40.68,39.845,40.67z M36.995,40.13c-0.27-0.061-0.44-0.32-0.39-0.59l0,0c0.05-0.271,0.31-0.45,0.58-0.4
              l0,0c0.27,0.061,0.45,0.32,0.4,0.59l0,0c-0.05,0.24-0.25,0.41-0.49,0.41l0,0C37.065,40.14,37.035,40.13,36.995,40.13z"/>
          </g>
          <g>
            <path fill="#0094ff" d="M48.335,42.399c-0.13,0-0.26-0.06-0.35-0.149c-0.1-0.101-0.15-0.22-0.15-0.36
              c0-0.13,0.05-0.25,0.14-0.35c0.21-0.19,0.52-0.19,0.71,0c0.09,0.1,0.15,0.22,0.15,0.35c0,0.141-0.06,0.26-0.15,0.36
              C48.595,42.34,48.465,42.399,48.335,42.399z"/>
          </g>
        </g>
      </g>
      <g>
        <g>
          <g>
            <path fill="#0094ff" d="M55.225,43.81c-0.14,0-0.26-0.06-0.36-0.149c-0.09-0.091-0.14-0.221-0.14-0.351
              c0-0.14,0.05-0.27,0.15-0.359c0.18-0.181,0.5-0.19,0.7,0c0.09,0.1,0.15,0.22,0.15,0.359c0,0.13-0.05,0.25-0.14,0.351
              C55.475,43.76,55.355,43.81,55.225,43.81z"/>
          </g>
          <g>
            <path fill="#0094ff" d="M53.135,43.399c-0.27-0.06-0.44-0.33-0.38-0.6l0,0c0.06-0.27,0.33-0.44,0.6-0.38l0,0
              c0.27,0.06,0.44,0.33,0.38,0.6l0,0c-0.05,0.23-0.26,0.391-0.49,0.391l0,0C53.205,43.41,53.175,43.41,53.135,43.399z"/>
          </g>
          <g>
            <path fill="#0094ff" d="M51.265,42.96c-0.13,0-0.25-0.05-0.35-0.141c-0.1-0.1-0.15-0.229-0.15-0.359s0.06-0.26,0.15-0.351
              c0.2-0.199,0.51-0.189,0.7-0.01c0.1,0.101,0.15,0.23,0.15,0.36s-0.05,0.26-0.14,0.35C51.525,42.91,51.395,42.96,51.265,42.96z
              "/>
          </g>
        </g>
      </g>
      <g>
        <g>
          <g>
            <path fill="#0094ff" d="M35.235,41.149c-0.14,0-0.27-0.05-0.36-0.149c-0.09-0.09-0.14-0.22-0.14-0.351
              c0-0.13,0.05-0.26,0.14-0.35c0.18-0.18,0.52-0.19,0.71,0c0.09,0.09,0.15,0.22,0.15,0.35c0,0.131-0.06,0.261-0.15,0.351
              C35.485,41.1,35.365,41.149,35.235,41.149z"/>
          </g>
          <g>
            <path fill="#0094ff" d="M52.115,44.58c-0.27-0.05-0.45-0.311-0.39-0.58l0,0c0.05-0.28,0.31-0.45,0.58-0.4l0,0
              c0.27,0.061,0.45,0.32,0.4,0.59l0,0c-0.05,0.24-0.26,0.4-0.49,0.4l0,0C52.185,44.59,52.145,44.59,52.115,44.58z
               M49.055,43.979c-0.27-0.05-0.45-0.31-0.39-0.58l0,0c0.05-0.27,0.31-0.449,0.58-0.399l0,0c0.27,0.05,0.45,0.31,0.4,0.59l0,0
              c-0.05,0.24-0.26,0.4-0.49,0.4l0,0C49.125,43.99,49.085,43.99,49.055,43.979z M45.995,43.37c-0.27-0.051-0.45-0.32-0.39-0.59
              l0,0c0.05-0.271,0.32-0.44,0.59-0.391l0,0c0.27,0.05,0.44,0.32,0.39,0.59l0,0c-0.05,0.24-0.26,0.4-0.49,0.4l0,0
              C46.065,43.38,46.025,43.38,45.995,43.37z M42.945,42.76c-0.28-0.05-0.45-0.32-0.4-0.59l0,0c0.06-0.271,0.32-0.44,0.59-0.39
              l0,0c0.27,0.05,0.45,0.319,0.39,0.59l0,0c-0.04,0.239-0.25,0.399-0.49,0.399l0,0C43.005,42.77,42.975,42.77,42.945,42.76z
               M39.885,42.13c-0.27-0.05-0.45-0.32-0.39-0.59l0,0c0.06-0.271,0.32-0.44,0.59-0.38l0,0c0.27,0.05,0.44,0.319,0.39,0.59l0,0
              c-0.05,0.229-0.26,0.399-0.49,0.399l0,0C39.955,42.149,39.915,42.14,39.885,42.13z M36.835,41.54
              c-0.27-0.05-0.45-0.311-0.4-0.59l0,0c0.05-0.271,0.31-0.45,0.58-0.391l0,0c0.27,0.05,0.45,0.311,0.4,0.58l0,0
              c-0.04,0.24-0.25,0.41-0.49,0.41l0,0C36.895,41.55,36.865,41.55,36.835,41.54z"/>
          </g>
          <g>
            <path fill="#0094ff" d="M55.895,45.33c-0.13,0-0.25-0.05-0.35-0.141c-0.1-0.1-0.15-0.229-0.15-0.359s0.06-0.261,0.15-0.351
              c0.19-0.189,0.52-0.189,0.71,0c0.09,0.09,0.14,0.221,0.14,0.351s-0.05,0.26-0.14,0.359
              C56.155,45.28,56.035,45.33,55.895,45.33z"/>
          </g>
        </g>
      </g>
      <g>
        <g>
          <g>
            <path fill="#0094ff" d="M48.955,49.68c-0.13,0-0.26-0.05-0.35-0.149c-0.1-0.091-0.15-0.221-0.15-0.351
              c0-0.14,0.05-0.27,0.15-0.36c0.18-0.18,0.51-0.18,0.7,0.011c0.09,0.08,0.15,0.21,0.15,0.35c0,0.13-0.05,0.26-0.15,0.351
              C49.215,49.63,49.085,49.68,48.955,49.68z"/>
          </g>
          <g>
            <path fill="#0094ff" d="M47.095,49.33c-0.27-0.061-0.44-0.32-0.38-0.59l0,0c0.06-0.271,0.32-0.45,0.59-0.391l0,0
              c0.27,0.061,0.44,0.32,0.39,0.59l0,0c-0.05,0.24-0.26,0.4-0.49,0.4l0,0C47.165,49.34,47.135,49.34,47.095,49.33z"/>
          </g>
          <g>
            <path fill="#0094ff" d="M43.645,48.609c-0.13,0-0.26-0.06-0.35-0.149c-0.1-0.09-0.15-0.22-0.15-0.351
              c0-0.14,0.05-0.26,0.15-0.359c0.18-0.181,0.52-0.181,0.7,0c0.1,0.1,0.15,0.22,0.15,0.359c0,0.131-0.05,0.261-0.15,0.351
              C43.905,48.55,43.775,48.609,43.645,48.609z"/>
          </g>
        </g>
      </g>
      <g>
        <g>
          <g>
            <path fill="#0094ff" d="M61.715,49.399c-0.13,0-0.26-0.05-0.35-0.149c-0.1-0.101-0.15-0.22-0.15-0.351
              c0-0.14,0.05-0.26,0.14-0.359c0.2-0.19,0.52-0.181,0.71,0c0.1,0.1,0.15,0.229,0.15,0.359c0,0.131-0.05,0.25-0.14,0.351
              C61.975,49.35,61.845,49.399,61.715,49.399z"/>
          </g>
          <g>
            <path fill="#0094ff" d="M61.655,49.399c-0.13,0-0.25-0.05-0.35-0.149c-0.09-0.101-0.15-0.22-0.15-0.351
              c0-0.14,0.06-0.26,0.15-0.359c0.2-0.19,0.53-0.181,0.71,0c0.09,0.1,0.14,0.229,0.14,0.359c0,0.131-0.05,0.25-0.14,0.351
              C61.925,49.34,61.795,49.399,61.655,49.399z"/>
          </g>
        </g>
      </g>
      <g>
        <g>
          <g>
            <path fill="#0094ff" d="M37.035,44.43c-0.13,0-0.26-0.06-0.35-0.149c-0.1-0.091-0.15-0.221-0.15-0.351
              c0-0.14,0.05-0.26,0.15-0.36c0.18-0.18,0.52-0.18,0.71,0c0.09,0.101,0.14,0.221,0.14,0.36c0,0.13-0.05,0.26-0.14,0.351
              C37.295,44.37,37.165,44.43,37.035,44.43z"/>
          </g>
          <g>
            <path fill="#0094ff" d="M35.515,44.09c-0.13,0-0.26-0.05-0.36-0.15c-0.09-0.1-0.14-0.22-0.14-0.35s0.05-0.26,0.14-0.35
              c0.2-0.2,0.51-0.19,0.71-0.011c0.1,0.101,0.15,0.23,0.15,0.36s-0.05,0.25-0.14,0.35C35.765,44.04,35.645,44.09,35.515,44.09z"
              />
          </g>
        </g>
      </g>
      <g>
        <g>
          <g>
            <path fill="#0094ff" d="M57.365,48.49c-0.13,0-0.25-0.051-0.35-0.141c-0.1-0.1-0.15-0.229-0.15-0.359
              c0-0.131,0.06-0.261,0.15-0.351c0.2-0.189,0.52-0.189,0.71,0c0.09,0.09,0.14,0.22,0.14,0.351c0,0.13-0.05,0.26-0.14,0.35
              C57.625,48.439,57.495,48.49,57.365,48.49z"/>
          </g>
          <g>
            <path fill="#0094ff" d="M55.635,48.14c-0.27-0.05-0.45-0.31-0.4-0.58l0,0c0.06-0.27,0.32-0.45,0.59-0.399l0,0
              c0.27,0.06,0.45,0.319,0.39,0.59l0,0c-0.04,0.24-0.25,0.399-0.48,0.399l0,0C55.695,48.149,55.665,48.149,55.635,48.14z
               M52.715,47.56c-0.27-0.06-0.44-0.319-0.39-0.59l0,0c0.06-0.27,0.32-0.45,0.59-0.39l0,0c0.27,0.05,0.45,0.319,0.39,0.59l0,0
              c-0.05,0.24-0.25,0.399-0.49,0.399l0,0C52.785,47.569,52.755,47.569,52.715,47.56z M49.805,46.97
              c-0.27-0.05-0.44-0.31-0.39-0.58l0,0c0.05-0.28,0.32-0.45,0.59-0.399l0,0c0.27,0.06,0.44,0.319,0.39,0.59l0,0
              c-0.05,0.239-0.26,0.399-0.49,0.399l0,0C49.875,46.979,49.845,46.979,49.805,46.97z M46.895,46.39
              c-0.27-0.05-0.45-0.32-0.39-0.59l0,0c0.05-0.27,0.31-0.45,0.59-0.39l0,0c0.27,0.05,0.44,0.319,0.39,0.59l0,0
              c-0.05,0.229-0.26,0.399-0.49,0.399l0,0C46.955,46.399,46.925,46.399,46.895,46.39z M43.985,45.8
              c-0.27-0.05-0.45-0.31-0.4-0.58l0,0c0.06-0.27,0.32-0.45,0.59-0.4l0,0c0.27,0.061,0.45,0.32,0.39,0.591l0,0
              c-0.04,0.239-0.25,0.399-0.49,0.399l0,0C44.045,45.81,44.015,45.81,43.985,45.8z"/>
          </g>
          <g>
            <path fill="#0094ff" d="M42.575,45.5c-0.14,0-0.26-0.05-0.36-0.15c-0.09-0.09-0.14-0.22-0.14-0.35s0.05-0.26,0.15-0.36
              c0.16-0.17,0.51-0.18,0.7,0.01c0.09,0.091,0.15,0.221,0.15,0.351s-0.06,0.26-0.15,0.35C42.825,45.45,42.705,45.5,42.575,45.5z
              "/>
          </g>
        </g>
      </g>
      <g>
        <g>
          <g>
            <path fill="#0094ff" d="M56.015,49.68c-0.13,0-0.26-0.05-0.35-0.14c-0.1-0.11-0.15-0.23-0.15-0.36s0.05-0.26,0.14-0.35
              c0.2-0.2,0.53-0.19,0.71,0c0.09,0.09,0.15,0.22,0.15,0.35s-0.05,0.25-0.15,0.351C56.275,49.63,56.145,49.68,56.015,49.68z"/>
          </g>
          <g>
            <path fill="#0094ff" d="M54.335,49.33c-0.27-0.05-0.45-0.32-0.39-0.59l0,0c0.05-0.271,0.31-0.44,0.58-0.391l0,0
              c0.27,0.05,0.45,0.32,0.4,0.59l0,0c-0.05,0.24-0.26,0.4-0.49,0.4l0,0C54.395,49.34,54.365,49.34,54.335,49.33z M51.465,48.76
              c-0.27-0.05-0.44-0.32-0.39-0.59l0,0c0.05-0.271,0.32-0.44,0.59-0.39l0,0c0.27,0.05,0.44,0.319,0.39,0.59l0,0
              c-0.05,0.239-0.26,0.399-0.49,0.399l0,0C51.535,48.77,51.505,48.77,51.465,48.76z M48.605,48.189
              c-0.27-0.05-0.45-0.319-0.39-0.59l0,0c0.05-0.27,0.31-0.439,0.58-0.39l0,0c0.27,0.05,0.45,0.32,0.4,0.59l0,0
              c-0.05,0.24-0.26,0.4-0.49,0.4l0,0C48.665,48.2,48.635,48.2,48.605,48.189z M45.735,47.62c-0.27-0.051-0.44-0.32-0.39-0.59
              l0,0c0.06-0.271,0.32-0.44,0.59-0.391l0,0c0.27,0.05,0.45,0.32,0.39,0.59l0,0c-0.05,0.24-0.25,0.4-0.49,0.4l0,0
              C45.805,47.63,45.775,47.63,45.735,47.62z"/>
          </g>
          <g>
            <path fill="#0094ff" d="M43.085,47.08c-0.14,0-0.27-0.05-0.36-0.141c-0.09-0.1-0.15-0.229-0.15-0.359s0.06-0.261,0.15-0.351
              c0.19-0.189,0.51-0.189,0.71-0.01c0.09,0.11,0.15,0.23,0.15,0.36s-0.06,0.26-0.15,0.35
              C43.335,47.03,43.205,47.08,43.085,47.08z"/>
          </g>
        </g>
      </g>
      <g>
        <g>
          <g>
            <path fill="#0094ff" d="M42.855,31.27c-0.13,0-0.26-0.05-0.35-0.149c-0.1-0.09-0.15-0.221-0.15-0.351s0.05-0.26,0.15-0.35
              c0.18-0.19,0.51-0.19,0.7-0.01c0.1,0.109,0.15,0.229,0.15,0.359s-0.05,0.261-0.14,0.351
              C43.105,31.22,42.985,31.27,42.855,31.27z"/>
          </g>
          <g>
            <path fill="#0094ff" d="M42.065,31.1c-0.13,0-0.26-0.05-0.35-0.14c-0.1-0.101-0.15-0.23-0.15-0.36s0.05-0.26,0.15-0.35
              c0.18-0.19,0.52-0.19,0.7,0c0.09,0.09,0.15,0.22,0.15,0.35s-0.05,0.26-0.14,0.351C42.325,31.05,42.195,31.1,42.065,31.1z"/>
          </g>
        </g>
      </g>
      <g>
        <g>
          <g>
            <path fill="#0094ff" d="M39.295,34.88c-0.13,0-0.26-0.05-0.35-0.14c-0.1-0.101-0.15-0.23-0.15-0.36s0.05-0.25,0.14-0.35
              c0.21-0.19,0.53-0.181,0.71,0c0.1,0.09,0.15,0.22,0.15,0.35c0,0.14-0.05,0.27-0.15,0.36
              C39.555,34.83,39.425,34.88,39.295,34.88z"/>
          </g>
          <g>
            <path fill="#0094ff" d="M43.275,35.67c-0.27-0.05-0.45-0.32-0.39-0.59l0,0c0.05-0.271,0.31-0.44,0.58-0.391l0,0
              c0.27,0.051,0.45,0.32,0.4,0.591l0,0c-0.05,0.229-0.26,0.399-0.49,0.399l0,0C43.345,35.68,43.305,35.68,43.275,35.67z
               M40.665,35.16c-0.27-0.061-0.44-0.32-0.39-0.591l0,0c0.05-0.27,0.31-0.449,0.59-0.39l0,0c0.27,0.05,0.44,0.311,0.39,0.58l0,0
              c-0.05,0.24-0.25,0.41-0.49,0.41l0,0C40.735,35.17,40.705,35.16,40.665,35.16z"/>
          </g>
          <g>
            <path fill="#0094ff" d="M45.225,36.01c-0.13,0-0.25-0.05-0.35-0.14c-0.1-0.101-0.15-0.23-0.15-0.36s0.05-0.26,0.15-0.35
              c0.2-0.19,0.52-0.19,0.7,0c0.1,0.09,0.15,0.22,0.15,0.35c0,0.14-0.05,0.26-0.15,0.36C45.485,35.96,45.355,36.01,45.225,36.01z
              "/>
          </g>
          <g>
            <path fill="#0094ff" d="M45.225,36.069c-0.13,0-0.26-0.05-0.35-0.14c-0.1-0.11-0.15-0.229-0.15-0.36
              c0-0.13,0.05-0.26,0.15-0.35c0.18-0.189,0.52-0.189,0.71,0c0.09,0.09,0.14,0.22,0.14,0.35c0,0.131-0.05,0.261-0.15,0.351
              C45.485,36.02,45.355,36.069,45.225,36.069z"/>
          </g>
        </g>
      </g>
      <g>
        <g>
          <g>
            <path fill="#0094ff" d="M43.645,32.85c-0.13,0-0.25-0.05-0.35-0.14c-0.1-0.11-0.15-0.23-0.15-0.36s0.05-0.26,0.14-0.35
              c0.2-0.19,0.53-0.19,0.72,0c0.09,0.09,0.14,0.22,0.14,0.35s-0.05,0.26-0.15,0.351C43.905,32.8,43.775,32.85,43.645,32.85z"/>
          </g>
          <g>
            <path fill="#0094ff" d="M42.315,32.62c-0.27-0.051-0.45-0.311-0.4-0.58l0,0c0.04-0.28,0.3-0.46,0.58-0.41l0,0
              c0.27,0.05,0.45,0.31,0.4,0.58l0,0c-0.04,0.25-0.26,0.42-0.49,0.42l0,0C42.375,32.63,42.345,32.62,42.315,32.62z"/>
          </g>
          <g>
            <path fill="#0094ff" d="M41.165,32.34c-0.14,0-0.26-0.05-0.36-0.14c-0.09-0.101-0.15-0.23-0.15-0.36s0.06-0.25,0.15-0.35
              c0.21-0.2,0.52-0.19,0.71,0c0.09,0.1,0.15,0.22,0.15,0.35s-0.06,0.26-0.15,0.35C41.425,32.29,41.295,32.34,41.165,32.34z"/>
          </g>
        </g>
      </g>
      <g>
        <g>
          <g>
            <path fill="#0094ff" d="M44.435,34.43c-0.13,0-0.25-0.05-0.35-0.14c-0.1-0.101-0.15-0.23-0.15-0.36s0.05-0.26,0.15-0.35
              c0.19-0.19,0.51-0.19,0.7,0c0.1,0.09,0.15,0.22,0.15,0.35s-0.05,0.25-0.14,0.351C44.685,34.38,44.565,34.43,44.435,34.43z"/>
          </g>
          <g>
            <path fill="#0094ff" d="M42.935,34.14c-0.28-0.05-0.45-0.31-0.4-0.58l0,0c0.05-0.279,0.31-0.45,0.58-0.399l0,0
              c0.27,0.05,0.45,0.31,0.4,0.58l0,0c-0.05,0.239-0.26,0.409-0.49,0.409l0,0C42.995,34.149,42.965,34.149,42.935,34.14z"/>
          </g>
          <g>
            <path fill="#0094ff" d="M40.255,33.64c-0.13,0-0.26-0.05-0.35-0.14c-0.1-0.11-0.15-0.23-0.15-0.36s0.06-0.26,0.15-0.35
              c0.17-0.181,0.51-0.19,0.71,0c0.09,0.09,0.14,0.22,0.14,0.35s-0.05,0.25-0.14,0.351C40.515,33.59,40.385,33.64,40.255,33.64z"
              />
          </g>
        </g>
      </g>
    </g>
    <g>
      <g>
        <g>
          <g>
            <path fill="#0094ff" d="M71.315,62.05c-0.13,0-0.25-0.05-0.35-0.15c-0.1-0.1-0.15-0.22-0.15-0.35s0.05-0.26,0.14-0.35
              c0.21-0.2,0.53-0.19,0.71-0.011c0.1,0.101,0.15,0.221,0.15,0.36c0,0.13-0.05,0.26-0.15,0.35
              C71.575,61.99,71.445,62.05,71.315,62.05z"/>
          </g>
          <g>
            <path fill="#0094ff" d="M69.695,61.7c-0.27-0.061-0.45-0.32-0.4-0.591l0,0c0.06-0.27,0.32-0.449,0.59-0.39l0,0
              c0.27,0.05,0.45,0.311,0.4,0.59l0,0c-0.05,0.23-0.26,0.4-0.49,0.4l0,0C69.755,61.71,69.725,61.7,69.695,61.7z M66.925,61.14
              c-0.27-0.05-0.45-0.31-0.39-0.58l0,0c0.05-0.279,0.31-0.45,0.59-0.399l0,0c0.27,0.06,0.44,0.319,0.39,0.59l0,0
              c-0.05,0.24-0.26,0.399-0.49,0.399l0,0C66.995,61.149,66.955,61.149,66.925,61.14z M64.155,60.59
              c-0.27-0.05-0.44-0.32-0.39-0.59l0,0c0.05-0.271,0.32-0.44,0.59-0.391l0,0c0.27,0.051,0.45,0.32,0.39,0.591l0,0
              c-0.05,0.239-0.26,0.399-0.49,0.399l0,0C64.225,60.6,64.195,60.6,64.155,60.59z"/>
          </g>
          <g>
            <path fill="#0094ff" d="M61.945,60.18c-0.14,0-0.26-0.05-0.36-0.14c-0.09-0.101-0.14-0.221-0.14-0.36
              c0-0.13,0.05-0.26,0.14-0.35c0.18-0.181,0.52-0.19,0.71,0c0.1,0.1,0.15,0.22,0.15,0.35s-0.05,0.26-0.15,0.351
              C62.205,60.13,62.075,60.18,61.945,60.18z"/>
          </g>
        </g>
      </g>
      <g>
        <g>
          <g>
            <path fill="#0094ff" d="M73.575,59.62c-0.13,0-0.26-0.051-0.35-0.141c-0.1-0.109-0.15-0.229-0.15-0.359s0.05-0.261,0.14-0.351
              c0.21-0.2,0.52-0.189,0.71-0.01c0.1,0.1,0.15,0.23,0.15,0.36s-0.05,0.25-0.14,0.35C73.835,59.569,73.705,59.62,73.575,59.62z"
              />
          </g>
          <g>
            <path fill="#0094ff" d="M71.845,59.27c-0.27-0.05-0.45-0.319-0.4-0.59l0,0c0.05-0.27,0.32-0.439,0.59-0.39l0,0
              c0.27,0.05,0.44,0.31,0.39,0.59l0,0c-0.04,0.229-0.26,0.4-0.49,0.4l0,0C71.905,59.28,71.875,59.28,71.845,59.27z
               M68.885,58.689c-0.27-0.05-0.44-0.31-0.39-0.58l0,0c0.05-0.279,0.32-0.449,0.59-0.399l0,0c0.27,0.05,0.44,0.32,0.39,0.59l0,0
              c-0.05,0.24-0.26,0.4-0.49,0.4l0,0C68.955,58.7,68.925,58.7,68.885,58.689z M65.935,58.12c-0.27-0.061-0.45-0.32-0.39-0.59
              l0,0c0.05-0.271,0.31-0.45,0.58-0.4l0,0c0.28,0.06,0.45,0.32,0.4,0.59l0,0c-0.05,0.24-0.26,0.4-0.49,0.4l0,0
              C66.005,58.12,65.975,58.12,65.935,58.12z"/>
          </g>
          <g>
            <path fill="#0094ff" d="M63.575,57.64c-0.13,0-0.25-0.05-0.35-0.14c-0.1-0.101-0.15-0.23-0.15-0.36s0.05-0.25,0.15-0.35
              c0.2-0.19,0.51-0.19,0.7-0.01c0.1,0.109,0.16,0.229,0.16,0.359s-0.06,0.26-0.15,0.351C63.835,57.59,63.715,57.64,63.575,57.64
              z"/>
          </g>
        </g>
      </g>
      <g>
        <g>
          <g>
            <path fill="#0094ff" d="M72.445,60.859c-0.13,0-0.27-0.05-0.36-0.149c-0.09-0.09-0.14-0.22-0.14-0.351
              c0-0.13,0.05-0.26,0.15-0.35c0.18-0.19,0.52-0.19,0.7,0c0.1,0.09,0.15,0.22,0.15,0.35c0,0.131-0.05,0.261-0.15,0.351
              C72.705,60.81,72.585,60.859,72.445,60.859z"/>
          </g>
          <g>
            <path fill="#0094ff" d="M70.765,60.51c-0.27-0.05-0.45-0.32-0.39-0.59l0,0c0.05-0.271,0.32-0.44,0.59-0.39l0,0
              c0.27,0.06,0.44,0.319,0.39,0.59l0,0c-0.05,0.239-0.26,0.399-0.49,0.399l0,0C70.835,60.52,70.795,60.52,70.765,60.51z
               M67.905,59.93c-0.27-0.05-0.44-0.31-0.39-0.58l0,0c0.06-0.28,0.32-0.45,0.59-0.39l0,0c0.27,0.05,0.44,0.31,0.39,0.58l0,0
              c-0.05,0.24-0.26,0.41-0.49,0.41l0,0C67.975,59.95,67.945,59.939,67.905,59.93z M65.045,59.359
              c-0.27-0.06-0.44-0.319-0.39-0.59l0,0c0.06-0.27,0.32-0.45,0.59-0.39l0,0c0.27,0.05,0.45,0.32,0.39,0.59l0,0
              c-0.04,0.23-0.25,0.4-0.48,0.4l0,0C65.115,59.37,65.085,59.37,65.045,59.359z"/>
          </g>
          <g>
            <path fill="#0094ff" d="M62.785,58.88c-0.13,0-0.26-0.05-0.35-0.14c-0.09-0.101-0.15-0.221-0.15-0.36
              c0-0.13,0.06-0.26,0.15-0.35c0.19-0.19,0.52-0.181,0.71,0c0.09,0.1,0.14,0.229,0.14,0.35c0,0.13-0.05,0.26-0.14,0.35
              C63.045,58.83,62.925,58.88,62.785,58.88z"/>
          </g>
        </g>
      </g>
      <g>
        <g>
          <g>
            <path fill="#0094ff" d="M67.985,65.66c-0.13,0-0.26-0.051-0.36-0.141c-0.09-0.109-0.14-0.229-0.14-0.359s0.05-0.25,0.14-0.351
              c0.19-0.189,0.53-0.189,0.71,0c0.1,0.09,0.15,0.221,0.15,0.351s-0.05,0.26-0.15,0.35C68.245,65.609,68.115,65.66,67.985,65.66
              z"/>
          </g>
          <g>
            <path fill="#0094ff" d="M66.335,65.319c-0.28-0.039-0.47-0.3-0.43-0.569l0,0c0.04-0.271,0.29-0.46,0.57-0.42l0,0
              c0.27,0.04,0.46,0.29,0.42,0.56l0,0c-0.03,0.25-0.25,0.43-0.49,0.43l0,0C66.375,65.319,66.355,65.319,66.335,65.319z"/>
          </g>
          <g>
            <path fill="#0094ff" d="M64.875,65.04c-0.13,0-0.26-0.05-0.35-0.15c-0.09-0.09-0.15-0.22-0.15-0.35
              c0-0.141,0.06-0.271,0.15-0.36c0.17-0.18,0.53-0.18,0.71,0.01c0.09,0.091,0.14,0.221,0.14,0.351s-0.05,0.25-0.14,0.35
              C65.135,64.99,65.005,65.04,64.875,65.04z"/>
          </g>
        </g>
      </g>
      <g>
        <g>
          <g>
            <path fill="#0094ff" d="M70.185,63.229c-0.13,0-0.26-0.05-0.35-0.14c-0.1-0.1-0.15-0.22-0.15-0.36c0-0.13,0.05-0.26,0.15-0.35
              c0.18-0.19,0.51-0.19,0.7-0.01c0.1,0.109,0.15,0.229,0.15,0.359s-0.05,0.261-0.14,0.351
              C70.445,63.18,70.315,63.229,70.185,63.229z"/>
          </g>
          <g>
            <path fill="#0094ff" d="M68.395,62.88c-0.27-0.05-0.45-0.311-0.39-0.58l0,0c0.05-0.28,0.31-0.45,0.58-0.4l0,0
              c0.27,0.061,0.45,0.32,0.4,0.591l0,0c-0.05,0.239-0.26,0.399-0.49,0.399l0,0C68.465,62.89,68.425,62.89,68.395,62.88z
               M65.395,62.28c-0.28-0.051-0.45-0.32-0.4-0.58l0,0c0.06-0.28,0.32-0.45,0.59-0.4l0,0c0.27,0.06,0.45,0.32,0.39,0.59l0,0
              c-0.04,0.24-0.25,0.4-0.48,0.4l0,0C65.455,62.29,65.425,62.29,65.395,62.28z"/>
          </g>
          <g>
            <path fill="#0094ff" d="M63.405,61.88c-0.12,0-0.25-0.05-0.35-0.15c-0.09-0.1-0.15-0.22-0.15-0.35c0-0.14,0.06-0.26,0.15-0.36
              c0.19-0.18,0.52-0.189,0.71,0c0.09,0.101,0.15,0.23,0.15,0.36c0,0.12-0.06,0.25-0.15,0.35
              C63.665,61.83,63.535,61.88,63.405,61.88z"/>
          </g>
        </g>
      </g>
      <g>
        <g>
          <g>
            <path fill="#0094ff" d="M69.055,64.47c-0.13,0-0.26-0.05-0.35-0.14c-0.1-0.101-0.15-0.221-0.15-0.36
              c0-0.13,0.05-0.25,0.15-0.35c0.18-0.19,0.52-0.19,0.71,0c0.09,0.1,0.14,0.229,0.14,0.35c0,0.13-0.05,0.26-0.14,0.35
              C69.315,64.42,69.185,64.47,69.055,64.47z"/>
          </g>
          <g>
            <path fill="#0094ff" d="M67.315,64.13c-0.27-0.061-0.44-0.32-0.39-0.6l0,0c0.06-0.261,0.32-0.44,0.59-0.381l0,0
              c0.27,0.051,0.45,0.32,0.39,0.591l0,0c-0.05,0.229-0.25,0.399-0.49,0.399l0,0C67.385,64.14,67.355,64.13,67.315,64.13z"/>
          </g>
          <g>
            <path fill="#0094ff" d="M64.145,63.46c-0.13,0-0.26-0.061-0.35-0.15c-0.1-0.09-0.15-0.22-0.15-0.35
              c0-0.141,0.05-0.26,0.15-0.36c0.18-0.18,0.52-0.18,0.7,0c0.1,0.101,0.15,0.23,0.15,0.36s-0.05,0.25-0.14,0.35
              C64.405,63.399,64.275,63.46,64.145,63.46z"/>
          </g>
        </g>
      </g>
      <g>
        <g>
          <g>
            <path fill="#0094ff" d="M60.305,62.67c-0.13,0-0.26-0.05-0.35-0.15c-0.1-0.1-0.15-0.22-0.15-0.35s0.05-0.26,0.14-0.351
              c0.21-0.199,0.52-0.189,0.71-0.01c0.1,0.101,0.15,0.23,0.15,0.36c0,0.12-0.05,0.25-0.14,0.35
              C60.555,62.62,60.435,62.67,60.305,62.67z"/>
          </g>
          <g>
            <path fill="#0094ff" d="M60.025,62.609c-0.13,0-0.26-0.05-0.36-0.14c-0.09-0.1-0.14-0.229-0.14-0.36
              c0-0.13,0.05-0.26,0.14-0.35c0.19-0.19,0.52-0.19,0.71,0c0.09,0.09,0.15,0.22,0.15,0.35c0,0.131-0.06,0.261-0.15,0.351
              C60.275,62.56,60.145,62.609,60.025,62.609z"/>
          </g>
        </g>
      </g>
      <g>
        <g>
          <g>
            <path fill="#0094ff" d="M66.855,66.85c-0.13,0-0.26-0.06-0.35-0.149c-0.1-0.091-0.15-0.221-0.15-0.351
              c0-0.14,0.05-0.26,0.15-0.359c0.18-0.19,0.51-0.19,0.7,0c0.1,0.1,0.15,0.22,0.15,0.359c0,0.13-0.05,0.26-0.15,0.351
              C67.105,66.79,66.985,66.85,66.855,66.85z"/>
          </g>
          <g>
            <path fill="#0094ff" d="M65.555,66.62c-0.13,0-0.26-0.051-0.35-0.15c-0.1-0.09-0.15-0.22-0.15-0.35s0.05-0.261,0.15-0.351
              c0.17-0.189,0.52-0.189,0.71,0c0.09,0.09,0.14,0.221,0.14,0.351s-0.05,0.26-0.15,0.35
              C65.815,66.569,65.685,66.62,65.555,66.62z"/>
          </g>
        </g>
      </g>
      <g>
        <g>
          <g>
            <path fill="#0094ff" d="M81.425,51.2c-0.13,0-0.26-0.051-0.35-0.141c-0.1-0.1-0.15-0.229-0.15-0.359
              c0-0.131,0.05-0.25,0.14-0.351c0.2-0.189,0.52-0.189,0.71,0c0.1,0.101,0.15,0.22,0.15,0.351c0,0.13-0.05,0.26-0.14,0.35
              C81.675,51.149,81.555,51.2,81.425,51.2z"/>
          </g>
          <g>
            <path fill="#0094ff" d="M79.795,50.91c-0.27-0.051-0.44-0.32-0.39-0.591l0,0c0.06-0.27,0.32-0.439,0.59-0.39l0,0
              c0.27,0.061,0.45,0.32,0.39,0.59l0,0c-0.05,0.24-0.25,0.4-0.49,0.4l0,0C79.865,50.92,79.835,50.92,79.795,50.91z
               M77.095,50.359c-0.27-0.06-0.45-0.319-0.39-0.59l0,0c0.05-0.27,0.32-0.45,0.59-0.39l0,0c0.27,0.05,0.44,0.32,0.39,0.59l0,0
              c-0.05,0.24-0.26,0.4-0.49,0.4l0,0C77.155,50.37,77.125,50.37,77.095,50.359z M74.385,49.81c-0.27-0.06-0.44-0.319-0.39-0.59
              l0,0c0.05-0.27,0.32-0.45,0.59-0.39l0,0c0.27,0.05,0.44,0.319,0.39,0.59l0,0c-0.05,0.229-0.26,0.399-0.49,0.399l0,0
              C74.455,49.819,74.415,49.81,74.385,49.81z"/>
          </g>
          <g>
            <path fill="#0094ff" d="M72.275,49.34c-0.13,0-0.25-0.05-0.35-0.14c-0.1-0.101-0.15-0.23-0.15-0.36s0.05-0.26,0.14-0.35
              c0.21-0.2,0.53-0.19,0.71,0c0.1,0.09,0.15,0.22,0.15,0.35s-0.05,0.26-0.14,0.35C72.535,49.29,72.405,49.34,72.275,49.34z"/>
          </g>
        </g>
      </g>
      <g>
        <g>
          <g>
            <path fill="#0094ff" d="M63.745,46.229c-0.13,0-0.25-0.05-0.35-0.14c-0.1-0.1-0.15-0.22-0.15-0.36c0-0.13,0.06-0.26,0.15-0.35
              c0.2-0.19,0.51-0.19,0.7,0c0.1,0.09,0.15,0.22,0.15,0.35s-0.05,0.261-0.14,0.351C64.005,46.18,63.875,46.229,63.745,46.229z"
              />
          </g>
          <g>
            <path fill="#0094ff" d="M63.355,46.12c-0.13,0-0.26-0.051-0.35-0.141c-0.1-0.1-0.15-0.229-0.15-0.359s0.05-0.261,0.14-0.351
              c0.2-0.189,0.52-0.189,0.71-0.01c0.09,0.1,0.15,0.23,0.15,0.36s-0.05,0.26-0.14,0.35C63.605,46.069,63.485,46.12,63.355,46.12
              z"/>
          </g>
        </g>
      </g>
      <g>
        <g>
          <g>
            <path fill="#0094ff" d="M82.555,50.02c-0.13,0-0.26-0.05-0.36-0.149c-0.09-0.09-0.14-0.221-0.14-0.351
              c0-0.14,0.05-0.26,0.14-0.359c0.19-0.181,0.53-0.181,0.71,0c0.1,0.1,0.15,0.22,0.15,0.359c0,0.13-0.05,0.261-0.15,0.351
              C82.815,49.97,82.685,50.02,82.555,50.02z"/>
          </g>
          <g>
            <path fill="#0094ff" d="M81.565,49.83c-0.26-0.08-0.42-0.351-0.34-0.62l0,0c0.08-0.26,0.35-0.42,0.62-0.34l0,0
              c0.26,0.069,0.42,0.35,0.34,0.62l0,0c-0.06,0.21-0.26,0.359-0.48,0.359l0,0C81.665,49.85,81.615,49.84,81.565,49.83z"/>
          </g>
          <g>
            <path fill="#0094ff" d="M80.855,49.68c-0.13,0-0.26-0.05-0.35-0.149c-0.09-0.091-0.15-0.221-0.15-0.351
              c0-0.14,0.06-0.27,0.15-0.36c0.18-0.18,0.52-0.18,0.71,0.011c0.09,0.08,0.14,0.21,0.14,0.35c0,0.13-0.05,0.26-0.14,0.351
              C81.115,49.63,80.995,49.68,80.855,49.68z"/>
          </g>
        </g>
      </g>
      <g>
        <g>
          <g>
            <path fill="#0094ff" d="M78.095,54.819c-0.13,0-0.26-0.05-0.35-0.14c-0.1-0.11-0.15-0.229-0.15-0.36
              c0-0.13,0.05-0.26,0.14-0.35c0.2-0.2,0.52-0.189,0.71-0.01c0.1,0.1,0.15,0.229,0.15,0.359c0,0.131-0.05,0.25-0.15,0.351
              C78.345,54.77,78.225,54.819,78.095,54.819z"/>
          </g>
          <g>
            <path fill="#0094ff" d="M76.355,54.47c-0.27-0.05-0.44-0.32-0.39-0.59l0,0c0.05-0.271,0.32-0.44,0.59-0.39l0,0
              c0.27,0.05,0.44,0.319,0.39,0.59l0,0c-0.05,0.239-0.26,0.399-0.49,0.399l0,0C76.425,54.479,76.395,54.479,76.355,54.47z
               M73.515,53.91c-0.27-0.061-0.44-0.32-0.39-0.591l0,0c0.06-0.27,0.32-0.449,0.59-0.39l0,0c0.27,0.05,0.45,0.311,0.39,0.58l0,0
              c-0.05,0.24-0.25,0.41-0.49,0.41l0,0C73.585,53.92,73.555,53.91,73.515,53.91z M70.685,53.34c-0.27-0.05-0.45-0.32-0.39-0.59
              l0,0c0.05-0.271,0.31-0.44,0.58-0.391l0,0c0.27,0.051,0.45,0.32,0.4,0.591l0,0c-0.05,0.239-0.26,0.399-0.49,0.399l0,0
              C70.745,53.35,70.715,53.35,70.685,53.34z M67.845,52.78c-0.27-0.061-0.45-0.32-0.39-0.591l0,0
              c0.05-0.27,0.32-0.449,0.59-0.39l0,0c0.27,0.05,0.44,0.31,0.39,0.59l0,0c-0.05,0.23-0.26,0.4-0.49,0.4l0,0
              C67.915,52.79,67.875,52.78,67.845,52.78z"/>
          </g>
          <g>
            <path fill="#0094ff" d="M66.855,52.56c-0.13,0-0.26-0.05-0.35-0.149c-0.1-0.101-0.15-0.221-0.15-0.351s0.05-0.26,0.14-0.35
              c0.19-0.19,0.53-0.19,0.71-0.01c0.1,0.1,0.15,0.229,0.15,0.359s-0.05,0.26-0.15,0.351C67.115,52.51,66.985,52.56,66.855,52.56
              z"/>
          </g>
        </g>
      </g>
      <g>
        <g>
          <g>
            <path fill="#0094ff" d="M66.685,49.68c-0.13,0-0.26-0.05-0.35-0.149c-0.1-0.091-0.15-0.221-0.15-0.351
              c0-0.14,0.05-0.27,0.15-0.36c0.18-0.18,0.51-0.18,0.7,0.011c0.09,0.08,0.15,0.21,0.15,0.35c0,0.13-0.05,0.26-0.15,0.351
              C66.945,49.63,66.815,49.68,66.685,49.68z"/>
          </g>
          <g>
            <path fill="#0094ff" d="M77.335,51.81c-0.27-0.06-0.44-0.319-0.39-0.59l0,0c0.06-0.27,0.32-0.45,0.59-0.39l0,0
              c0.27,0.05,0.45,0.31,0.39,0.58l0,0c-0.05,0.239-0.25,0.409-0.49,0.409l0,0C77.405,51.819,77.375,51.81,77.335,51.81z
               M74.315,51.2c-0.27-0.061-0.44-0.32-0.39-0.591l0,0c0.06-0.27,0.32-0.449,0.59-0.39l0,0c0.27,0.05,0.45,0.32,0.39,0.59l0,0
              c-0.04,0.23-0.25,0.4-0.49,0.4l0,0C74.385,51.21,74.355,51.2,74.315,51.2z M71.305,50.59c-0.27-0.05-0.45-0.31-0.4-0.59l0,0
              c0.06-0.271,0.32-0.44,0.59-0.391l0,0c0.27,0.061,0.45,0.32,0.39,0.591l0,0c-0.04,0.239-0.25,0.399-0.48,0.399l0,0
              C71.365,50.6,71.335,50.6,71.305,50.59z M67.875,49.52c0-0.279,0.23-0.5,0.5-0.5l0,0c0.28,0,0.5,0.221,0.5,0.5l0,0
              c0,0.271-0.22,0.5-0.5,0.5l0,0C68.105,50.02,67.875,49.79,67.875,49.52z"/>
          </g>
          <g>
            <path fill="#0094ff" d="M80.295,52.45c-0.13,0-0.25-0.051-0.35-0.15s-0.15-0.22-0.15-0.35c0-0.141,0.05-0.261,0.14-0.351
              c0.21-0.2,0.52-0.189,0.71-0.01c0.1,0.1,0.15,0.229,0.15,0.36c0,0.119-0.05,0.25-0.14,0.35
              C80.545,52.399,80.425,52.45,80.295,52.45z"/>
          </g>
        </g>
      </g>
      <g>
        <g>
          <g>
            <path fill="#0094ff" d="M79.225,53.63c-0.14,0-0.26-0.05-0.36-0.14c-0.09-0.101-0.14-0.23-0.14-0.36s0.05-0.25,0.14-0.35
              c0.19-0.19,0.52-0.19,0.71,0c0.09,0.09,0.15,0.22,0.15,0.35s-0.06,0.26-0.15,0.36C79.485,53.58,79.355,53.63,79.225,53.63z"/>
          </g>
          <g>
            <path fill="#0094ff" d="M77.425,53.28c-0.27-0.051-0.44-0.311-0.39-0.58l0,0c0.05-0.28,0.32-0.45,0.59-0.4l0,0
              c0.27,0.06,0.45,0.32,0.39,0.59l0,0c-0.05,0.24-0.25,0.4-0.49,0.4l0,0C77.495,53.29,77.465,53.29,77.425,53.28z M74.515,52.7
              c-0.27-0.051-0.45-0.32-0.39-0.591l0,0c0.05-0.27,0.31-0.439,0.59-0.39l0,0c0.27,0.05,0.44,0.32,0.39,0.59l0,0
              c-0.05,0.24-0.26,0.4-0.49,0.4l0,0C74.575,52.71,74.545,52.71,74.515,52.7z M71.595,52.12c-0.27-0.061-0.44-0.32-0.39-0.59
              l0,0c0.06-0.271,0.32-0.45,0.59-0.391l0,0c0.27,0.05,0.45,0.311,0.39,0.58l0,0c-0.04,0.24-0.25,0.41-0.49,0.41l0,0
              C71.665,52.13,71.635,52.12,71.595,52.12z M68.685,51.53c-0.27-0.051-0.45-0.311-0.39-0.58l0,0c0.05-0.271,0.32-0.45,0.59-0.4
              l0,0c0.27,0.06,0.44,0.32,0.39,0.59l0,0c-0.05,0.24-0.26,0.4-0.49,0.4l0,0C68.755,51.54,68.715,51.54,68.685,51.53z"/>
          </g>
          <g>
            <path fill="#0094ff" d="M67.705,51.319c-0.13,0-0.26-0.05-0.35-0.149c-0.1-0.101-0.15-0.22-0.15-0.351
              c0-0.13,0.05-0.26,0.14-0.35c0.2-0.2,0.52-0.189,0.71-0.01c0.09,0.1,0.15,0.229,0.15,0.359c0,0.131-0.05,0.25-0.15,0.351
              C67.955,51.27,67.835,51.319,67.705,51.319z"/>
          </g>
        </g>
      </g>
      <g>
        <g>
          <g>
            <path fill="#0094ff" d="M74.705,58.43c-0.13,0-0.26-0.05-0.35-0.14c-0.1-0.101-0.15-0.221-0.15-0.36
              c0-0.13,0.05-0.26,0.15-0.35c0.18-0.19,0.52-0.19,0.7,0c0.1,0.1,0.15,0.22,0.15,0.35s-0.05,0.26-0.14,0.351
              C74.965,58.38,74.835,58.43,74.705,58.43z"/>
          </g>
          <g>
            <path fill="#0094ff" d="M72.905,58.08c-0.27-0.05-0.44-0.32-0.39-0.59l0,0c0.06-0.271,0.32-0.44,0.6-0.391l0,0
              c0.26,0.061,0.44,0.32,0.38,0.59l0,0c-0.04,0.24-0.25,0.4-0.49,0.4l0,0C72.975,58.09,72.945,58.09,72.905,58.08z
               M69.875,57.46c-0.27-0.05-0.45-0.32-0.39-0.59l0,0c0.05-0.271,0.32-0.44,0.59-0.391l0,0c0.27,0.061,0.44,0.32,0.39,0.59l0,0
              c-0.05,0.24-0.26,0.4-0.49,0.4l0,0C69.935,57.47,69.905,57.47,69.875,57.46z M66.835,56.84c-0.27-0.05-0.44-0.32-0.39-0.59
              l0,0c0.06-0.271,0.32-0.44,0.59-0.391l0,0c0.27,0.061,0.45,0.32,0.39,0.591l0,0c-0.05,0.239-0.26,0.399-0.49,0.399l0,0
              C66.905,56.85,66.865,56.85,66.835,56.84z"/>
          </g>
          <g>
            <path fill="#0094ff" d="M64.425,56.34c-0.13,0-0.26-0.05-0.35-0.14c-0.1-0.101-0.15-0.221-0.15-0.36
              c0-0.13,0.05-0.26,0.15-0.35c0.18-0.19,0.52-0.19,0.7,0c0.1,0.1,0.15,0.22,0.15,0.35s-0.05,0.26-0.14,0.35
              C64.685,56.29,64.555,56.34,64.425,56.34z"/>
          </g>
        </g>
      </g>
      <g>
        <g>
          <g>
            <path fill="#0094ff" d="M76.965,56c-0.13,0-0.26-0.05-0.35-0.141c-0.1-0.1-0.15-0.229-0.15-0.359s0.05-0.25,0.14-0.351
              c0.21-0.199,0.53-0.18,0.71,0c0.1,0.101,0.15,0.23,0.15,0.351c0,0.13-0.05,0.26-0.15,0.35C77.225,55.95,77.095,56,76.965,56z"
              />
          </g>
          <g>
            <path fill="#0094ff" d="M75.285,55.71c-0.27-0.05-0.45-0.32-0.39-0.59l0,0c0.05-0.271,0.32-0.44,0.59-0.391l0,0
              c0.27,0.061,0.44,0.32,0.39,0.59l0,0c-0.05,0.24-0.26,0.4-0.49,0.4l0,0C75.345,55.72,75.315,55.72,75.285,55.71z
               M72.525,55.149c-0.27-0.06-0.45-0.319-0.39-0.59l0,0c0.06-0.27,0.32-0.45,0.59-0.39l0,0c0.27,0.05,0.44,0.32,0.39,0.59l0,0
              c-0.05,0.24-0.26,0.4-0.49,0.4l0,0C72.595,55.16,72.555,55.16,72.525,55.149z M69.765,54.59c-0.27-0.06-0.44-0.32-0.39-0.59
              l0,0c0.06-0.271,0.32-0.45,0.59-0.391l0,0c0.27,0.051,0.45,0.32,0.39,0.591l0,0c-0.05,0.229-0.26,0.399-0.49,0.399l0,0
              C69.835,54.6,69.805,54.59,69.765,54.59z M67.015,54.03c-0.28-0.061-0.45-0.33-0.39-0.591l0,0
              c0.05-0.279,0.31-0.449,0.59-0.399l0,0c0.27,0.06,0.44,0.319,0.39,0.59l0,0c-0.05,0.24-0.26,0.41-0.5,0.4l0,0
              C67.075,54.03,67.045,54.03,67.015,54.03z"/>
          </g>
          <g>
            <path fill="#0094ff" d="M66.065,53.859c-0.13,0-0.26-0.06-0.35-0.149c-0.1-0.101-0.15-0.22-0.15-0.351
              c0-0.13,0.05-0.26,0.14-0.35c0.19-0.19,0.53-0.19,0.71-0.01c0.1,0.1,0.15,0.229,0.15,0.359c0,0.131-0.05,0.261-0.15,0.351
              C66.325,53.8,66.195,53.859,66.065,53.859z"/>
          </g>
        </g>
      </g>
      <g>
        <g>
          <g>
            <path fill="#0094ff" d="M75.835,57.25c-0.13,0-0.26-0.061-0.35-0.15c-0.1-0.09-0.15-0.22-0.15-0.35
              c0-0.141,0.05-0.26,0.15-0.36c0.18-0.18,0.51-0.189,0.7,0c0.1,0.101,0.15,0.23,0.15,0.36c0,0.12-0.05,0.25-0.14,0.35
              C76.095,57.189,75.965,57.25,75.835,57.25z"/>
          </g>
          <g>
            <path fill="#0094ff" d="M73.985,56.899c-0.27-0.06-0.45-0.319-0.39-0.59l0,0c0.05-0.27,0.32-0.45,0.59-0.39l0,0
              c0.27,0.05,0.44,0.32,0.39,0.59l0,0c-0.05,0.24-0.26,0.4-0.49,0.4l0,0C74.045,56.91,74.015,56.91,73.985,56.899z
               M70.855,56.25c-0.27-0.05-0.44-0.32-0.39-0.59l0,0c0.06-0.271,0.32-0.44,0.59-0.38l0,0c0.27,0.05,0.45,0.31,0.39,0.59l0,0
              c-0.05,0.229-0.25,0.39-0.49,0.39l0,0C70.925,56.26,70.885,56.26,70.855,56.25z M67.725,55.609
              c-0.26-0.05-0.44-0.319-0.38-0.59l0,0c0.05-0.27,0.32-0.439,0.59-0.39l0,0c0.27,0.06,0.44,0.32,0.39,0.59l0,0
              c-0.05,0.24-0.26,0.4-0.49,0.4l0,0C67.795,55.62,67.765,55.62,67.725,55.609z"/>
          </g>
          <g>
            <path fill="#0094ff" d="M65.215,55.1c-0.13,0-0.25-0.05-0.35-0.14c-0.1-0.101-0.15-0.23-0.15-0.36s0.05-0.25,0.14-0.35
              c0.21-0.2,0.52-0.19,0.71-0.01c0.1,0.109,0.15,0.229,0.15,0.359s-0.05,0.26-0.14,0.351C65.475,55.05,65.345,55.1,65.215,55.1z
              "/>
          </g>
        </g>
      </g>
    </g>
  </g>
  <g>
    <rect x="1.8" y="47.929" fill="#0094ff" width="86.4" height="2.5"/>
  </g>
</g>
<g>
</g>
<g>
</g>
<g>
</g>
<g>
</g>
<g>
</g>
<g>
</g>
<g>
</g>
<g>
</g>
<g>
</g>
<g>
</g>
<g>
</g>
<g>
</g>
<g>
</g>
<g>
</g>
<g>
</g>
</svg>
