<svg id="Layer_1" data-name="Layer 1" xmlns="http://www.w3.org/2000/svg" viewBox="0 0 1275.3 510.93"><defs><style>.cls-1{font-size:29px;fill:#007bc2;}.cls-1,.cls-3{font-family:Lato;}.cls-2{fill:#ef4538;}.cls-3{font-size:32px;fill:#4d4e4e;}.cls-4,.cls-5,.cls-6,.cls-7{fill:none;stroke-linejoin:round;}.cls-4{stroke:#d7d7d7;}.cls-5{stroke:#969697;}.cls-6{stroke:#007bc2;}.cls-6,.cls-7{stroke-linecap:round;stroke-width:4px;}.cls-7{stroke:#ef4538;}.cls-8{font-size:24px;}.cls-9{letter-spacing:-1px;}</style></defs><title>financials</title><text class="cls-1" transform="translate(261.18 123.7)">Revenue<tspan class="cls-2"><tspan x="0" y="40">Expenses</tspan></tspan></text><line class="cls-4" x1="191.71" y1="394.45" x2="1215.68" y2="394.45"/><line class="cls-4" x1="191.71" y1="350.66" x2="1215.68" y2="350.66"/><line class="cls-4" x1="191.71" y1="308.13" x2="1215.68" y2="308.13"/><line class="cls-4" x1="191.71" y1="264.35" x2="1215.68" y2="264.35"/><line class="cls-4" x1="191.71" y1="220.56" x2="1215.68" y2="220.56"/><line class="cls-4" x1="191.71" y1="178.03" x2="1215.68" y2="178.03"/><line class="cls-4" x1="191.71" y1="134.25" x2="1215.68" y2="134.25"/><line class="cls-4" x1="191.71" y1="91.71" x2="1215.68" y2="91.71"/><line class="cls-4" x1="191.71" y1="47.93" x2="1215.68" y2="47.93"/><line class="cls-5" x1="191.71" y1="436.98" x2="1215.68" y2="436.98"/><polyline class="cls-6" points="191.92 276.86 284.07 268.1 377.46 253.09 470.85 226.82 564.24 286.86 657.62 276.86 749.77 275.6 843.16 249.33 936.54 181.78 1029.93 119.23 1123.32 124.24 1215.47 70.45"/><polyline class="cls-7" points="191.92 290.62 284.07 284.36 377.46 250.59 470.85 239.33 564.24 245.58 657.62 270.6 749.77 284.36 843.16 273.1 936.54 223.06 1029.93 180.53 1123.32 105.47 1215.47 70.45"/><text class="cls-3" transform="translate(41.69 403.19)"> <tspan x="8.45" y="0">$</tspan><tspan x="26.53" y="0">500</tspan><tspan x="80.19" y="0">,</tspan><tspan x="86.97" y="0">00</tspan><tspan x="122.75" y="0">0</tspan></text><text class="cls-3" transform="translate(146.36 446.41)">$0</text><text class="cls-3" transform="translate(17.02 359.96)"> <tspan x="8.45" y="0">$</tspan><tspan x="26.53" y="0">1</tspan><tspan x="44.42" y="0">,</tspan><tspan x="51.2" y="0">000</tspan><tspan x="104.86" y="0">,</tspan><tspan x="111.65" y="0">00</tspan><tspan x="147.42" y="0">0</tspan></text><text class="cls-3" transform="translate(17.02 316.73)"> <tspan x="8.45" y="0">$</tspan><tspan x="26.53" y="0">1</tspan><tspan x="44.42" y="0">,</tspan><tspan x="51.2" y="0">500</tspan><tspan x="104.86" y="0">,</tspan><tspan x="111.65" y="0">00</tspan><tspan x="147.42" y="0">0</tspan></text><text class="cls-3" transform="translate(17.02 273.5)"> <tspan x="8.45" y="0">$</tspan><tspan x="26.53" y="0">2</tspan><tspan x="44.42" y="0">,</tspan><tspan x="51.2" y="0">000</tspan><tspan x="104.86" y="0">,</tspan><tspan x="111.65" y="0">00</tspan><tspan x="147.42" y="0">0</tspan></text><text class="cls-3" transform="translate(17.02 230.28)"> <tspan x="8.45" y="0">$</tspan><tspan x="26.53" y="0">2</tspan><tspan x="44.42" y="0">,</tspan><tspan x="51.2" y="0">500</tspan><tspan x="104.86" y="0">,</tspan><tspan x="111.65" y="0">00</tspan><tspan x="147.42" y="0">0</tspan></text><text class="cls-3" transform="translate(17.02 187.05)"> <tspan x="8.45" y="0">$</tspan><tspan x="26.53" y="0">3</tspan><tspan x="44.42" y="0">,</tspan><tspan x="51.2" y="0">000</tspan><tspan x="104.86" y="0">,</tspan><tspan x="111.65" y="0">00</tspan><tspan x="147.42" y="0">0</tspan></text><text class="cls-3" transform="translate(17.02 143.82)"> <tspan x="8.45" y="0">$</tspan><tspan x="26.53" y="0">3</tspan><tspan x="44.42" y="0">,</tspan><tspan x="51.2" y="0">500</tspan><tspan x="104.86" y="0">,</tspan><tspan x="111.65" y="0">00</tspan><tspan x="147.42" y="0">0</tspan></text><text class="cls-3" transform="translate(17.02 100.59)"> <tspan x="8.45" y="0">$</tspan><tspan x="26.53" y="0">4</tspan><tspan x="44.42" y="0">,</tspan><tspan x="51.2" y="0">000</tspan><tspan x="104.86" y="0">,</tspan><tspan x="111.65" y="0">00</tspan><tspan x="147.42" y="0">0</tspan></text><text class="cls-3" transform="translate(17.02 57.36)"> <tspan x="8.45" y="0">$</tspan><tspan x="26.53" y="0">4</tspan><tspan x="44.42" y="0">,</tspan><tspan x="51.2" y="0">500</tspan><tspan x="104.86" y="0">,</tspan><tspan x="111.65" y="0">00</tspan><tspan x="147.42" y="0">0</tspan></text><text class="cls-3" transform="translate(156.16 479.59)">200<tspan x="53.18" y="0">5</tspan></text><text class="cls-3" transform="translate(249.25 479.59)">200<tspan x="53.18" y="0">6</tspan></text><text class="cls-3" transform="translate(342.34 479.59)">200<tspan x="53.18" y="0">7</tspan></text><text class="cls-3" transform="translate(435.42 479.59)">200<tspan x="53.18" y="0">8</tspan></text><text class="cls-3" transform="translate(528.51 479.59)">200<tspan x="53.18" y="0">9</tspan></text><text class="cls-3" transform="translate(621.6 479.59)">201<tspan x="53.18" y="0">0</tspan></text><text class="cls-3" transform="translate(714.69 479.59)">201<tspan x="53.18" y="0">1</tspan></text><text class="cls-3" transform="translate(807.78 479.59)">201<tspan x="53.18" y="0">2</tspan></text><text class="cls-3" transform="translate(900.86 479.59)">201<tspan x="53.18" y="0">3</tspan></text><text class="cls-3" transform="translate(993.95 479.59)">201<tspan x="53.18" y="0">4</tspan></text><text class="cls-3" transform="translate(1087.04 479.59)">201<tspan x="53.18" y="0">5</tspan></text><text class="cls-3" transform="translate(1180.05 479.59)">201<tspan x="53.18" y="0">6</tspan><tspan class="cls-8"><tspan x="-18.66" y="26">(</tspan><tspan class="cls-9" x="-12.01" y="26">p</tspan><tspan x="0.36" y="26">r</tspan><tspan class="cls-9" x="8.25" y="26">o</tspan><tspan x="20.73" y="26">j</tspan><tspan x="26.25" y="26">e</tspan><tspan x="38.49" y="26">c</tspan><tspan x="49.33" y="26">t</tspan><tspan x="57.43" y="26">e</tspan><tspan x="69.67" y="26">d</tspan><tspan x="84" y="26">)</tspan></tspan></text><line class="cls-5" x1="191.71" y1="441" x2="191.71" y2="432.95"/><line class="cls-5" x1="284.8" y1="441" x2="284.8" y2="432.95"/><line class="cls-5" x1="377.89" y1="441" x2="377.89" y2="432.95"/><line class="cls-5" x1="470.98" y1="441" x2="470.98" y2="432.95"/><line class="cls-5" x1="564.06" y1="441" x2="564.06" y2="432.95"/><line class="cls-5" x1="657.15" y1="441" x2="657.15" y2="432.95"/><line class="cls-5" x1="750.24" y1="441" x2="750.24" y2="432.95"/><line class="cls-5" x1="843.33" y1="441" x2="843.33" y2="432.95"/><line class="cls-5" x1="936.41" y1="441" x2="936.41" y2="432.95"/><line class="cls-5" x1="1029.5" y1="441" x2="1029.5" y2="432.95"/><line class="cls-5" x1="1122.59" y1="441" x2="1122.59" y2="432.95"/><line class="cls-5" x1="1215.68" y1="441" x2="1215.68" y2="432.95"/></svg>
