<svg id="Layer_1" data-name="Layer 1" xmlns="http://www.w3.org/2000/svg" viewBox="0 0 1349.33 770.45"><defs><style>.cls-1{font-size:25.9px;fill:#4d4e4e;}.cls-1,.cls-10,.cls-11,.cls-12,.cls-3,.cls-9{font-family:Lato;}.cls-2{fill:#4daf4e;}.cls-3{font-size:39.89px;}.cls-10,.cls-11,.cls-12,.cls-3,.cls-9{fill:#fff;}.cls-4{font-weight:700;}.cls-5{letter-spacing:-4px;}.cls-6{letter-spacing:-1px;}.cls-7{font-size:68.43px;}.cls-8{fill:#0094ff;}.cls-9{font-size:46.54px;}.cls-10{font-size:30.25px;}.cls-11{font-size:32.58px;}.cls-12{font-size:37.73px;}</style></defs><title>media_planets</title><text class="cls-1" transform="translate(950.29 274.31)">Americans<tspan x="-25.78" y="29.01">for Tax Reform</tspan></text><text class="cls-1" transform="translate(1246.37 274.31)">Tax<tspan x="-54.54" y="29.01">Policy Center</tspan></text><text class="cls-1" transform="translate(643.28 274.31)">Citizens for Tax <tspan x="10.27" y="29.01">Justice &amp; ITEP</tspan></text><circle class="cls-2" cx="151.96" cy="152.09" r="143.88"/><text class="cls-3" transform="translate(116.82 97.92)"><tspan class="cls-4"><tspan class="cls-5">T</tspan><tspan x="19.53" y="0">ax </tspan><tspan class="cls-6" x="-65.7" y="47.87">F</tspan><tspan x="-44.92" y="47.87">ound</tspan><tspan x="45.64" y="47.87">a</tspan><tspan x="65.6" y="47.87">tion</tspan></tspan><tspan class="cls-7"><tspan x="-24.39" y="129.99">469</tspan></tspan></text><circle class="cls-8" cx="1009.04" cy="160.81" r="79.36"/><text class="cls-9" transform="translate(968.55 176.36)">147</text><circle class="cls-8" cx="1266.89" cy="172.75" r="67.43"/><text class="cls-9" transform="translate(1226.4 188.29)">106</text><circle class="cls-8" cx="733.56" cy="145.94" r="94.24"/><text class="cls-9" transform="translate(693.07 161.48)">207</text><circle class="cls-8" cx="449.94" cy="136.93" r="103.24"/><text class="cls-9" transform="translate(409.45 152.47)">248</text><text class="cls-1" transform="translate(395.08 274.31)">Economic<tspan x="-28.46" y="29.01">Policy Institute</tspan></text><text class="cls-1" transform="translate(1225.01 702.4)">Council<tspan x="-4.55" y="29.01">on State</tspan><tspan x="-6.37" y="58.01">Taxation</tspan></text><circle class="cls-8" cx="1266.89" cy="643.61" r="26.14"/><text class="cls-10" transform="translate(1249.04 654.58)">16</text><text class="cls-1" transform="translate(995.26 702.4)">Center on<tspan x="-8.37" y="29.01">Budget and</tspan><tspan x="-30.59" y="58.01">Policy Priorities</tspan></text><circle class="cls-8" cx="1050.88" cy="642.32" r="27.44"/><text class="cls-10" transform="translate(1033.03 653.29)">18</text><circle class="cls-8" cx="831.01" cy="639.75" r="30"/><text class="cls-11" transform="translate(811.78 651.75)">21</text><text class="cls-1" transform="translate(778.38 702.4)">Mercatus<tspan x="14.5" y="29.01">Center</tspan></text><text class="cls-1" transform="translate(568.77 702.4)">Urban<tspan x="-11.88" y="29.01">Institute</tspan></text><circle class="cls-8" cx="603.27" cy="638.08" r="31.67"/><text class="cls-11" transform="translate(584.05 650.09)">23</text><text class="cls-1" transform="translate(314.77 702.4)">Heritage<tspan x="-15.66" y="29.01">Foundation</tspan></text><circle class="cls-8" cx="362.93" cy="627.14" r="42.61"/><text class="cls-12" transform="translate(340.67 640.62)">42</text><text class="cls-1" transform="translate(56.53 702.4)">American<tspan x="-4.24" y="29.01">Enterprise</tspan><tspan x="6.5" y="58.01">Institute</tspan></text><circle class="cls-8" cx="109.42" cy="621.29" r="48.46"/><text class="cls-12" transform="translate(87.16 634.76)">55</text><circle class="cls-8" cx="124.69" cy="398.5" r="63.74"/><text class="cls-9" transform="translate(97.7 414.04)">95</text><text class="cls-1" transform="translate(69.37 497.36)">Heartland<tspan x="8.94" y="29.01">Institute</tspan></text><circle class="cls-8" cx="363.67" cy="402.3" r="59.93"/><text class="cls-9" transform="translate(336.68 417.84)">84</text><text class="cls-1" transform="translate(316.58 497.36)">National<tspan x="-9.8" y="29.01">Taxpayers</tspan><tspan x="13.32" y="58.01">Union</tspan></text><text class="cls-1" transform="translate(1211.03 497.36)">Brookings<tspan x="-1.11" y="29.01">Institution</tspan></text><circle class="cls-8" cx="1266.89" cy="410.46" r="51.78"/><text class="cls-12" transform="translate(1244.63 423.93)">62</text><text class="cls-1" transform="translate(987.53 497.36)">Center for<tspan x="4.64" y="29.01">American</tspan><tspan x="9.23" y="58.01">Progress</tspan></text><circle class="cls-8" cx="1045.08" cy="407.53" r="54.71"/><text class="cls-12" transform="translate(1022.82 421)">70</text><text class="cls-1" transform="translate(793.79 497.36)">Cato<tspan x="-19.83" y="29.01">Institute</tspan></text><circle class="cls-8" cx="820.35" cy="407.53" r="54.71"/><text class="cls-12" transform="translate(798.08 421)">70</text><text class="cls-1" transform="translate(526.29 497.36)">Competitive<tspan x="11.21" y="29.01">Enterprise</tspan><tspan x="21.95" y="58.01">Institute</tspan></text><circle class="cls-8" cx="594.62" cy="406.54" r="55.7"/><text class="cls-12" transform="translate(572.36 420.01)">72</text></svg>