<svg id="Layer_1" data-name="Layer 1" xmlns="http://www.w3.org/2000/svg" viewBox="0 0 725.45 579"><defs><style>.cls-1{font-size:25px;}.cls-1,.cls-2{fill:#4d4e4e;font-family:Lato;}.cls-2{font-size:32px;}.cls-3{fill:#0094ff;}.cls-4,.cls-5{fill:none;stroke-linejoin:round;}.cls-4{stroke:#cacac9;}.cls-5{stroke:#969697;}.cls-6{fill:#4daf4e;}</style></defs><title>media_comparison</title><text class="cls-1" transform="translate(124.71 271.38)">American<tspan x="-100.89" y="28">Enterprise Institute</tspan></text><text class="cls-1" transform="translate(77.95 195.38)">Americans for<tspan x="24.36" y="28">Tax Reform</tspan></text><text class="cls-1" transform="translate(37.51 499.38)">Center on Budget<tspan x="-19.66" y="28">and Policy Priorities</tspan></text><text class="cls-1" transform="translate(39.85 133.38)">Tax Policy Center</text><text class="cls-1" transform="translate(60.06 57.38)">Tax Foundation</text><text class="cls-1" transform="translate(61.4 347.38)">Citizens for Tax<tspan x="13.17" y="28">Justice &amp; ITEP</tspan></text><text class="cls-1" transform="translate(7.23 437.38)">Heritage Foundation</text><text class="cls-2" transform="translate(233.22 575.77)">0</text><text class="cls-2" transform="translate(309 575.77)">4K</text><text class="cls-2" transform="translate(395.4 575.77)">8K</text><text class="cls-2" transform="translate(472.52 575.77)">12K</text><text class="cls-2" transform="translate(558.92 575.77)">16K</text><text class="cls-2" transform="translate(645.32 575.77)">20K</text><polygon class="cls-3" points="242.45 480 297.45 480 297.45 533 242.45 533 242.45 480 242.45 480"/><polygon class="cls-3" points="242.45 404 297.45 404 297.45 457 242.45 457 242.45 404 242.45 404"/><line class="cls-4" x1="329.95" y1="17" x2="329.95" y2="540"/><line class="cls-4" x1="417.95" y1="17" x2="417.95" y2="540"/><line class="cls-4" x1="505.95" y1="17" x2="505.95" y2="540"/><line class="cls-4" x1="592.95" y1="17" x2="592.95" y2="540"/><line class="cls-4" x1="674.95" y1="16" x2="674.95" y2="538"/><line class="cls-5" x1="242.95" y1="17" x2="242.95" y2="541"/><polygon class="cls-3" points="242.45 326 303.45 326 303.45 381 242.45 381 242.45 326 242.45 326"/><polygon class="cls-3" points="242.45 252 315.45 252 315.45 307 242.45 307 242.45 252 242.45 252"/><polygon class="cls-3" points="242.45 176 423.45 176 423.45 231 242.45 231 242.45 176 242.45 176"/><polygon class="cls-3" points="242.45 100 461.45 100 461.45 154 242.45 154 242.45 100 242.45 100"/><polygon class="cls-6" points="242.45 24 653.45 24 653.45 77 242.45 77 242.45 24 242.45 24"/></svg>