<svg id="Layer_1" data-name="Layer 1" xmlns="http://www.w3.org/2000/svg" viewBox="0 0 958.49 605.03"><defs><style>.cls-1{fill:#e57373;}.cls-1,.cls-2,.cls-3,.cls-4,.cls-5{stroke:#fff;stroke-width:0.78px;}.cls-2{fill:#ef4538;}.cls-3{fill:#d1d2d3;}.cls-4{fill:#7d80bd;}.cls-5{fill:none;}</style></defs><title>state_map</title><polygon class="cls-1" points="797.31 586.61 799.88 585.97 801.17 585.65 802.7 583.23 805.12 581.54 806.49 582.11 808.26 582.43 808.66 583.47 805.04 584.76 800.69 586.29 798.27 587.5 797.31 586.61 797.31 586.61"/><polygon class="cls-2" points="784.26 449.01 786.68 456.58 790.54 466.72 796.1 476.46 799.97 482.99 804.96 488.7 809.14 492.57 810.83 495.63 809.71 497 808.82 498.28 811.88 506.01 814.86 509.07 817.6 514.63 821.3 520.67 825.97 529.21 827.34 537.1 827.82 549.58 828.47 551.43 828.15 554.97 825.65 556.26 825.97 558.27 825.33 560.28 825.65 562.86 826.13 564.88 823.31 568.17 820.1 569.71 816.07 569.87 814.54 571.56 812.04 572.6 810.67 572.04 809.55 571.07 809.14 568.02 808.34 564.47 804.79 559.16 801.09 556.74 797.06 556.42 796.26 557.79 793.04 553.28 792.39 549.58 789.66 545.39 787.81 544.18 786.2 546.36 784.34 546.03 782.09 540.8 779.11 536.77 776.05 531.22 773.39 528.08 769.69 524.21 771.86 521.64 775.25 515.92 775.08 514.23 770.33 513.26 768.72 513.9 769.05 514.63 771.7 515.6 770.17 520.35 769.37 520.83 767.51 516.64 766.15 511.57 765.82 508.75 767.35 503.84 767.35 493.94 764.13 490.07 762.76 486.85 757.45 485.56 755.44 484.84 753.74 482.18 750.2 480.49 749 476.95 746.18 475.98 743.68 472.12 739.25 470.59 736.27 469.06 733.53 469.06 729.35 469.94 729.19 471.95 730.07 472.92 729.51 474.13 726.37 473.97 722.5 477.67 718.8 479.69 714.77 479.69 711.39 480.97 711.07 478.15 709.38 476.14 706.32 474.94 704.63 473.4 696.25 469.38 688.37 467.52 683.86 468.25 677.57 468.73 671.38 470.91 667.75 471.55 667.51 463.18 664.85 461.17 663 459.31 663.32 456.09 673.95 454.81 700.44 451.74 707.53 451.1 713.16 451.34 715.82 455.45 717.35 456.9 725.81 457.46 737 456.82 759.38 455.45 765.02 454.72 770.33 454.96 770.82 457.95 773.15 458.83 773.39 454 771.78 449.65 773.15 448.2 778.95 448.6 784.26 449.01 784.26 449.01"/><polygon class="cls-3" points="872.27 152.62 877.02 151.89 884.75 150.36 883.62 149.56 884.19 147.78 884.35 143.03 883.3 141.75 883.54 135.95 884.19 126.28 884.51 117.91 883.14 116.3 883.14 115.17 885.88 113.97 889.74 108.73 889.74 104.55 887.73 101.65 887.41 95.93 859.95 102.93 860.75 108.01 863.25 114.77 864.14 120.17 863.09 124.19 865.91 129.02 866.8 131.2 865.91 134.18 868.97 135.54 869.61 135.87 872.59 147.06 872.27 152.62 872.27 152.62"/><path class="cls-2" d="M862.45,298.43l2.17,5.15,3.7,6.68,2.5,2.5,0.64,2.42-2.5.16,0.81,0.64-0.32,4.35-2.66,1.37-0.73,2.18-1.29,3.06-3.87,1.61-2.58-.32-1.45-.16-1.69-1.29,0.32,1.29v1h2l0.81,1.29-2,6.6h4.43l0.64,1.69,2.33-2.42,1.37-.48-2,3.7-3.22,5.07h-1.29l-1.21-.56-2.9.72-5.31,2.5-6.76,5.55-3.54,4.91-2,6.69-0.48,2.49-4.83.57-5.72,1.37-10.31-8.54-13.12-7.89-3.06-.88-13,1.53-4.51.81-1.61-3.38L777,348.28l-17.15.48-7.57.89L743,354.32,736.52,357l-22,2.74,0.48-4.27,1.85-1.45,2.9-.72,0.64-3.87,4.35-2.82,4-1.53,4.43-3.7,4.51-2.17,0.65-3.22,4-4,0.72-.16s0,1.21.81,1.21a8.87,8.87,0,0,1,2,.32l2.41-3.71,2.18-.64,2.33,0.32,1.69-3.7,3-2.66,0.56-2.25,0.16-3.78h4.43l7.49-.89,16.43-2.33,15.7-2.17,22.46-4.91,20.77-4.43,11.68-2.5,5.23-1.21h0Z"/><polygon class="cls-3" points="789.66 416.8 791.83 415.43 796.98 409.71 796.02 406.33 799 406.17 802.7 402.63 804.39 401.82 806.73 398.28 809.63 395.46 811.8 391.76 814.3 391.03 815.5 388.21 817.19 387.41 817.68 380.81 820.34 374.45 825.97 368.73 815.5 360.36 802.38 352.38 799.4 351.58 786.28 353.11 781.76 353.75 780.08 350.21 777.34 348.27 760.59 348.76 752.46 349.56 743.04 354.32 737 356.73 737.56 359.15 735.15 360.11 734.34 362.21 734.66 363.98 736.03 365.35 740.22 367.84 743.76 367.68 747.3 373.08 747.79 374.61 750.28 377.67 750.85 379.12 755.52 380.97 758.74 383.3 761.07 386.36 763.41 387.73 765.58 389.75 766.95 392.4 769.13 394.41 773.48 396.43 776.37 402.63 778.06 407.7 780.72 408.34 783.05 410.6 784.42 414.22 785.07 416.48 787.81 417.76 789.66 416.8 789.66 416.8"/><polyline class="cls-2" points="370.23 336.12 393.82 337.25 426.11 338.45 423.69 362.85 423.37 381.69 423.46 383.87 427.96 387.81 430.06 389.34 431.27 388.78 431.67 386.85 432.88 388.7 435.05 388.78 435.05 387.25 436.82 388.3 437.95 388.7 437.63 392.8 441.81 392.96 444.88 394.17 448.98 394.74 451.48 396.91 453.65 394.74 457.52 395.38 459.85 398.68 460.98 399.08 460.81 401.1 463.15 401.9 465.57 399.81 467.74 400.45 470.08 400.45 471.04 402.95 477.64 405.2 479.25 404.4 480.79 400.05 481.19 400.05 482.15 400.13 483.36 402.31 487.47 402.95 490.93 404.16 494.47 405.37 496.41 404.4 497.13 401.74 501.8 401.82 503.65 402.79 506.55 400.62 507.76 400.62 508.64 402.31 512.83 402.31 514.45 400.21 516.37 400.62 518.39 403.11 522.01 405.2 524.99 406.09 526.6 406.89 529.1 408.99 532.32 407.62 535.05 408.75 535.7 415.11 535.62 425.17 536.34 435.16 537.07 438.86 539.89 443.45 540.77 448.6 545.2 454.4 545.36 457.62 546.17 458.43 545.36 467.12 542.38 472.36 543.99 474.61 543.35 477.03 542.63 484.76 541.09 488.22 541.42 491.84 535.46 493.45 525.23 498.21 524.26 500.22 521.53 502.23 519.35 503.76 517.99 504.56 512.11 510.12 509.29 512.3 503.73 515.68 497.86 518.17 491.33 521.72 489.48 523.25 483.44 526.95 479.9 527.6 475.87 533.31 471.61 533.63 470.64 535.65 472.98 537.66 471.44 543.37 470.16 548.12 468.95 552.15 468.14 556.82 468.95 559.4 470.8 566.56 471.85 573.01 473.62 575.83 472.65 577.35 469.43 579.37 463.55 575.34 457.84 574.13 456.55 574.62 453.17 573.97 448.82 570.75 443.42 569.63 435.53 566.08 433.36 562.05 431.99 555.29 428.61 553.28 427.96 550.94 428.61 550.3 428.93 546.76 427.64 546.11 426.92 545.07 428.29 540.56 426.59 538.22 423.21 536.85 419.75 532.35 416.05 525.42 411.62 522.76 411.78 520.75 406.31 507.95 405.42 503.6 403.57 501.59 403.4 500.06 397.21 494.5 394.55 491.28 394.55 490.15 391.81 487.98 384.81 486.77 377.08 486.13 373.86 483.71 369.11 485.56 365.48 487.09 363.06 490.47 362.1 494.34 357.51 500.7 355.01 503.2 352.36 502.23 350.5 501.02 348.49 500.38 344.47 498.04 344.47 497.32 342.61 495.31 337.22 493.13 329.49 485.08 327.15 480.25 327.15 471.79 323.77 465.11 323.29 462.21 321.6 461.25 320.39 459.07 315.24 456.9 313.87 455.21 306.46 446.91 305.09 443.61 300.26 441.2 298.73 436.69 296.07 433.71 294.06 433.14 293.34 428.31 301.63 429.04 331.82 431.86 362.02 433.55 364.35 413.34 368.38 355.52 370.07 336.04 371.52 336.12"/><path class="cls-2" d="M148.88,176c7.25,1.53,98.64,18.92,98.64,18.92l8.78-55.72-1.53-1.29-0.4-3.06L253,133.29l-3.06.81-0.48,3.14-2.82.32-4.19-1.69-3.94.16-2.9.72-3-1.37-3-.08-2.58,2.42-1.13-1.13-1.13-2.9,0.8-4.27-1.77-2.25-4.1-3.3-2.82-13,0.32-5.56-1.61-.72-0.73,1.13-5.15,3.14-0.89.08-2.74-3.46,0.16-2.66,7.25-18-0.4-2.17-3.46-1.21-0.56-1.21-3.62-4.59-3.94-10-3.3-1.29-2-4.83,1.61-4.83-3.71-7.73,4.59-22.22L184.64,22,170.55,87.88l1.53,4.51,3.63,2.74-0.24,3.95-4,4.51-4.11,6-0.89.72-0.64,3.38-1.21,1.13-1.85.48-4.67,5.72-0.32,3.22-0.48,1.21,0.8,1,2.66-.16,1.29,2.41-2.66,6.2L158,139.33,148.88,176h0Z"/><polygon class="cls-2" points="198.65 185.39 101.86 163.97 82.13 234.18 153.96 342.48 156.45 343.61 157.98 341.43 158.39 332.5 158.71 326.54 159.03 319.45 161.93 317.76 163.06 317.76 163.86 318.97 166.52 319.37 168.05 322.19 170.55 322.19 172.16 319.69 174.09 319.29 198.65 185.39 198.65 185.39"/><polygon class="cls-3" points="149.13 175 158.3 138.77 159.35 134.42 161.85 128.54 161.2 127.33 158.55 127.33 157.26 125.56 157.74 124.03 158.23 120.65 162.9 114.93 164.75 113.81 165.95 112.6 167.49 108.89 171.75 103.02 175.46 98.99 175.7 95.45 172.24 92.87 170.38 88.04 157.26 84.25 141.56 80.63 125.53 80.71 125.05 79.26 119.33 81.44 114.75 80.87 112.25 79.18 110.88 79.91 106.05 79.67 104.28 78.22 98.8 76.12 98 76.2 93.49 74.67 91.4 76.53 85.03 76.2 78.83 71.94 79.56 71.13 79.8 63 77.38 58.97 73.12 58.41 72.39 55.75 69.98 55.27 63.94 57.44 61.6 64.13 58.22 74.59 54.84 81.28 49.69 95.93 42.92 110.02 34.55 123.14 32.53 126.12 31.65 135.06 32.05 147.62 149.13 175 149.13 175"/><polygon class="cls-2" points="100.57 0.43 105.16 1.96 115.23 4.78 124.16 6.79 144.94 12.67 168.85 18.55 184.63 21.93 170.46 88.04 157.58 84.33 141.4 80.63 125.61 80.63 125.13 79.26 119.33 81.52 114.5 80.79 112.33 79.1 110.96 79.83 106.05 79.67 104.28 78.22 98.8 76.04 98 76.2 93.49 74.59 91.47 76.53 84.95 76.2 78.83 71.94 79.64 70.97 79.72 63 77.38 58.97 73.12 58.33 72.39 55.75 70.06 55.27 66.35 56.56 64.02 53.17 64.34 50.2 67.16 49.87 68.85 45.6 66.19 44.48 66.35 40.61 70.86 39.89 68.04 37.07 66.51 29.66 67.16 26.68 67.16 18.39 65.31 15.09 67.64 5.26 69.9 5.83 72.39 8.81 75.21 11.54 78.59 13.56 83.34 15.73 86.48 16.38 89.54 17.91 93.08 18.95 95.42 18.71 95.42 16.22 96.71 15.09 98.96 13.72 99.29 14.85 99.61 16.7 97.27 17.26 96.95 19.44 98.8 20.97 99.93 23.46 100.57 25.48 102.1 25.31 102.26 23.94 101.3 22.58 100.81 19.27 101.62 17.42 100.97 15.89 100.97 13.56 102.83 9.85 101.62 7.12 99.12 2.13 99.45 1.24 100.57 0.43 100.57 0.43"/><polygon class="cls-3" points="857.62 188.69 856.49 187.72 853.75 187.56 851.42 185.55 849.73 179.11 846.1 179.27 843.6 176.45 823.48 180.96 778.71 190.06 770.9 191.34 770.17 184.58 771.62 183.45 772.99 182.25 773.96 180.56 775.81 179.43 777.82 177.58 778.39 175.89 780.56 172.99 781.69 172.02 781.53 170.97 780.24 167.83 778.39 167.67 776.37 161.23 779.35 159.38 783.94 157.93 788.13 156.56 791.43 156.08 798.03 155.92 800.05 157.21 801.74 157.37 803.91 156.08 806.57 154.87 811.96 154.39 814.13 152.53 815.99 149.15 817.68 147.14 819.85 147.14 821.87 145.93 822.03 143.6 820.5 141.42 820.17 139.89 821.38 137.72 821.38 136.19 819.53 136.19 817.68 135.38 816.87 134.18 816.63 131.52 822.75 125.8 823.4 125 824.92 121.94 827.9 117.27 830.8 113.4 832.98 110.83 835.47 108.97 838.69 107.69 844.41 106.32 847.79 106.48 852.47 104.95 860.35 102.77 860.84 108.01 863.41 114.69 864.22 120.09 863.25 124.11 865.91 128.78 866.71 131.04 865.91 134.01 868.97 135.38 869.61 135.71 872.84 147.14 872.27 152.37 871.71 163.65 872.59 169.36 873.4 173.07 874.93 180.64 874.93 189.01 873.72 191.34 875.65 193.44 876.46 195.21 874.45 197.06 874.85 198.35 876.13 198.03 877.66 196.74 880 194 881.21 193.36 882.9 194 885.24 194.16 893.45 190.14 896.51 187.32 897.79 185.79 902.22 187.48 898.68 191.18 894.65 194.16 887.25 199.72 884.59 200.77 878.47 202.78 874.28 203.91 873.08 203.34 872.84 199.56 873.32 196.66 873.15 194.49 870.26 192.71 865.51 191.75 861.48 190.54 857.62 188.69 857.62 188.69"/><polygon class="cls-3" points="856.89 188.45 854.48 191.26 854.48 194.49 852.47 197.63 852.3 199.32 853.67 200.68 853.51 203.18 851.17 204.39 851.98 207.21 852.14 208.41 855.04 208.74 856 211.39 859.71 213.97 862.21 215.58 862.21 216.47 859.14 219.28 857.45 221.62 855.93 224.44 853.59 225.81 853.11 227.5 852.87 228.71 852.22 231.44 853.35 233.78 856.73 236.84 861.72 239.17 865.99 239.82 866.15 241.35 865.26 242.31 865.59 245.21 866.47 245.21 868.65 242.72 869.45 237.64 872.35 233.46 875.57 226.69 876.7 220.98 876.05 219.85 875.89 210.11 874.2 206.56 873 207.37 870.18 207.77 869.61 207.21 870.82 206.24 873 204.23 873.08 203.1 872.67 199.48 873.24 196.66 873.15 194.57 870.26 192.79 864.95 191.59 860.68 190.14 856.89 188.45 856.89 188.45"/><path class="cls-2" d="M867.44,254.87l0.4,5.15-2,4.11-6.93,3-1.45-.56-3.38-4.35-1.69.81-4-.48L845.7,259l0.32-3.54,1.69-1.37L846,252.3l-1.13,2-0.57.16-0.32-3.7,2.17-1L845.7,244l-1.85-.32-0.32-1.21,1.37-3.87,1.45-1.61-0.48-1-2,1.69-2,1.37a9.9,9.9,0,0,0-.49,2.17c0,0.64-1.53,2.34-1.53,2.34l1.37,1.37,0.16,2.17L840,252.62l2.17,5.72,2.5,2.17v1.85l1.53,2.17-1,2.18-2.17-.32-3.22-1-4.51.08-5.23-1.37-0.65-1.85V260l1.85-2.74,0.72-4.11,1.37-2.58-3-2.09-1.53,2.09-1.13-.56L822,248.75V245.7l-4.27-1.77-1.29-1.61-2-1.85L811.4,239l-1.69-1.21-1.93.48-2.09,1.53L803,242l-3.06.32-1.29-.64-1.85,2.66-1.53,1.53-2.5.64-2.41,2.74-2.17,2.5-0.32.32-1-5.88L785.71,241l38.89-7.89,15.46-2.9,7.81-1.69,1.37,4.59,2.66,6.36,2,9.58,1.93,7.17,5.31-.08,6.28-1.29h0Z"/><path class="cls-2" d="M785.71,240.94l-12.88,1.85-4.83.73L764.37,223,763,224.28l-1,1.53,1.13,3.22v4.83l-0.48,5.23L762.36,245,760,249l-3.22,3.54-2.34,1.69-2.18-.56-1.37,1.53-2.33,3.54-1,1.37v2.5l1.21,1.85-0.48,1.69-1.85,1-0.56-1.85-1.29-1.13-1.37.64-1,4L742,274l-1.69,1.53-0.16,2.82-2,.89-2.25.08,0.24,5.48,0.89,1.61,2.66,1.53,0.64,2.33,4.51,3.62,1.77,3.78,3.22,2.09,2.33,3.14,1.13,1.21,3.94,0.88,2.5-1,2.42-1.45s2.42,1.29,2.58,1.29c0.64,0.08,4-1.45,4-1.45l2.09-4.67,2.66,0.56,3.06-2.25,1.93,0.56,2.9-4,0.24-2-1-1.21L785.79,278l1.37-3.71,0.72-5.63,1-.64,2.42,2.58,4.19-.32,1-4.11,1-3.78,2.74-.48,1.21-2.9,2.66-2.49,2.82-5.8,0.16-5.39,4.35,1.69,6.12,2.66,0.81-5.8L817,242.56l-2-1.85-3.79-1.93-1.37-1-1.93.48-2.09,1.53-2.66,2.17-3.06.4-1.45-.72-1.85,2.74-1.53,1.45-2.66.64-2.33,3.22L788,252.3,786.84,246l-1.13-5.07h0Z"/><polygon class="cls-2" points="758.82 193.44 752.54 197.71 748.43 200.04 744.97 203.91 740.7 207.93 737.4 208.74 734.34 209.3 728.63 211.96 726.45 212.12 722.91 208.98 717.59 209.62 714.85 208.09 712.36 206.72 707.28 207.45 696.74 209.14 685.06 211.39 686.43 226.61 688.28 240.86 690.94 265.26 691.5 270.25 695.85 270.09 698.35 269.29 701.81 270.82 703.99 275.41 709.3 275.33 711.31 277.58 713.16 277.5 715.74 276.13 718.4 276.45 724.03 277.02 725.81 274.76 728.22 273.39 730.4 272.75 731.04 275.57 732.89 276.62 736.52 279.03 738.77 278.95 740.22 278.47 740.38 275.57 741.99 274.04 742.15 269.05 743.2 264.78 744.57 264.13 745.94 265.34 746.5 267.11 748.27 266.07 748.75 264.54 747.54 262.52 747.63 260.11 748.43 259.06 750.61 255.6 751.73 253.99 753.91 254.47 756.24 252.78 759.46 249.32 762.36 245.05 762.68 239.82 763.17 234.58 763 229.03 762.04 226.05 762.36 224.84 764.21 222.99 761.88 213.57 758.82 193.44 758.82 193.44"/><polygon class="cls-2" points="638.52 304.72 638.52 301.33 639.09 296.5 641.5 293.52 643.51 289.26 645.77 285.07 645.45 279.68 643.35 275.97 643.19 272.51 643.92 267.03 643.11 259.55 641.98 243.12 640.62 227.5 639.65 215.42 639.41 214.45 638.52 211.8 637.23 207.93 635.54 206.08 634.01 203.42 633.77 197.71 586.18 200.36 586.43 202.86 588.76 203.58 589.73 204.71 590.21 206.64 594.24 210.19 594.96 212.6 594.24 216.15 592.39 219.93 591.66 222.59 589.24 224.44 587.39 225.16 581.92 226.61 581.19 228.54 580.47 230.64 581.19 232.09 583.04 233.7 582.88 238.05 580.95 239.66 580.23 241.35 580.23 244.17 578.29 244.65 576.68 245.86 576.44 247.31 576.68 249.4 574.91 250.77 573.78 253.67 574.27 257.53 576.68 265.1 584.25 272.91 589.97 276.78 589.73 281.29 590.69 282.65 597.38 283.14 600.2 284.59 599.47 288.37 597.14 294.57 596.41 297.87 598.75 301.98 605.43 307.37 610.18 308.1 612.27 313.33 614.45 316.71 613.48 319.77 615.17 324.04 617.11 326.22 618.55 325.25 619.44 323.07 621.77 321.3 624.03 320.66 626.69 321.87 630.47 323.31 631.68 323 631.92 320.66 630.55 318.16 630.88 315.67 632.81 314.3 635.95 313.41 637.23 312.93 636.59 311.48 635.79 309.06 637.32 308.02 638.52 304.72 638.52 304.72"/><polygon class="cls-2" points="903.03 178.46 899.24 163 894.33 163.89 872.27 168.88 873.32 172.18 874.85 179.75 875.01 189.09 873.72 191.34 875.73 193.36 880.16 189.33 883.86 185.95 885.88 183.78 886.68 184.42 889.58 182.89 894.98 181.76 903.03 178.46 903.03 178.46"/><polygon class="cls-2" points="883.7 150.6 876.62 151.89 872.19 152.86 871.55 163.89 872.19 168.8 893.69 164.05 899 162.92 905.77 160.99 907.94 162.84 911.48 167.43 914.3 172.1 916.48 171.05 915.99 168.72 916.8 167.19 919.86 165.74 920.66 168.88 920.18 170.73 917.6 172.26 917.6 173.23 919.7 171.78 923.72 167.03 927.75 165.02 932.1 163.49 931.77 160.99 930.73 158.01 928.71 155.43 926.86 154.63 924.69 154.79 924.21 155.27 925.17 156.64 926.7 155.76 928.87 157.44 929.76 160.34 927.91 162.2 925.57 163.16 921.87 162.68 917.85 156.48 915.43 153.74 913.58 153.74 912.45 154.63 910.44 151.89 910.76 150.44 913.26 145.05 910.28 140.46 906.41 142.15 904.4 145.05 902.06 145.77 883.7 150.6 883.7 150.6"/><polygon class="cls-2" points="651 469.94 649.47 456.09 646.58 436.53 646.74 421.95 647.62 389.66 647.46 372.35 647.22 365.83 608.41 369.86 608.25 370.82 605.83 372.11 602.85 377.91 603.09 379.6 603.34 381.37 600.44 382.74 596.57 388.3 597.3 390.71 594.72 392.89 593.03 399.65 592.54 401.34 594.24 404 592.63 405.53 594.48 408.67 594.72 412.29 593.35 414.87 593.43 421.07 595.37 425.33 595.45 427.51 597.86 429.68 597.38 431.7 596.09 432.34 596.57 434.92 591.18 444.42 587.96 450.3 586.99 458.99 587.79 461.33 613.32 460.92 621.53 460.04 623.47 459.8 624.19 460.76 622.98 466.48 626.53 469.86 627.73 473.89 628.94 476.46 630.07 475.66 632.73 471.31 634.58 472.12 641.66 470.1 643.84 470.42 645.37 471.31 650.68 471.31 651 469.94 651 469.94"/><polygon class="cls-2" points="522.41 329.68 522.25 292.15 520.88 280.48 518.47 278.79 515.41 275.49 513.47 271.94 513.8 269.61 515.73 267.84 515.81 264.7 514.04 263.65 511.95 263.65 509.69 261.48 504.38 261.48 458.4 260.43 416.45 259.55 393.5 258.82 389.48 325.97 415.08 327.26 461.38 329.44 509.29 329.92 522.41 329.68 522.41 329.68"/><polygon class="cls-2" points="852.14 226.05 853.51 225.81 855.93 224.52 857.21 221.94 858.9 219.53 862.28 216.39 862.28 215.5 859.71 213.81 856 211.31 855.04 208.66 852.14 208.33 851.98 207.13 851.17 204.23 853.51 203.1 853.67 200.6 852.38 199.24 852.54 197.54 854.56 194.32 854.56 191.18 857.37 188.37 856.41 187.72 853.75 187.48 851.34 185.47 849.73 179.11 846.1 179.27 843.52 176.45 824.76 180.8 780.08 189.9 770.82 191.34 770.17 184.58 764.62 189.9 763.25 190.38 758.9 193.52 761.88 213.41 764.46 223.47 768.24 243.52 771.62 242.88 784.02 241.27 823.48 233.3 838.93 230.4 847.55 228.71 847.79 228.47 849.97 226.77 852.14 226.05 852.14 226.05"/><polygon class="cls-2" points="638.52 304.31 641.58 302.7 647.38 301.74 651.97 301.17 653.5 302.87 655.03 303.67 656.64 300.61 660.02 299.16 662.27 300.77 662.76 301.82 663.97 301.5 663.8 298.36 666.62 296.83 669.2 295.46 670.81 297.15 674.27 297.15 674.92 295.54 674.6 293.12 677.49 288.93 682.24 285.47 682.81 280.4 686.19 279.84 689.82 278.23 692.47 276.62 692.39 275.17 691.1 273.31 691.5 270.9 690.86 264.94 686.43 226.61 684.9 210.03 679.1 210.59 656.24 212.92 650.92 213.17 648.02 214.78 645.85 216.79 644.64 217.19 643.11 216.15 639.89 215.26 640.94 227.42 642.31 243.36 643.59 260.03 644.16 267.28 643.27 272.91 643.59 276.29 645.45 279.19 646.01 285.23 643.27 289.58 641.42 293.61 639.09 296.66 638.6 301.33 638.52 304.31 638.52 304.31"/><polygon class="cls-3" points="929.6 172.58 929.12 173.23 933.14 173.07 934.51 172.58 933.38 170.25 932.34 170.09 931.85 171.86 929.6 172.58 929.6 172.58"/><polygon class="cls-3" points="919.86 173.47 921.07 174.35 923.32 173.31 925.82 172.26 923.88 170.73 922.27 170.73 919.86 173.47 919.86 173.47"/><polygon class="cls-3" points="574.99 250.45 572.34 247.22 571.21 244.81 504.3 247.31 501.88 247.47 503.17 250.04 502.93 252.46 505.58 256.49 508.81 260.75 512.03 263.57 514.28 263.81 515.81 264.78 515.81 267.92 513.88 269.53 513.39 271.94 515.57 275.49 518.15 278.55 520.8 280.48 522.25 292.56 522.58 330.08 522.82 334.99 523.22 340.55 546.57 339.66 570.73 338.94 592.3 338.13 604.46 337.89 606.72 341.43 605.99 344.89 602.77 347.39 602.21 349.25 607.76 349.73 611.79 349 613.56 343.37 614.29 337.25 616.46 334.59 619.12 333.06 619.2 329.84 620.25 327.82 618.47 325.25 617.11 326.22 615.01 323.96 613.72 318.97 614.53 316.39 612.51 312.77 610.58 308.02 605.67 307.21 598.42 301.41 596.57 297.15 597.46 293.76 599.55 287.49 600.03 284.51 598.02 283.46 590.93 282.57 589.81 280.8 589.73 276.45 584.01 272.83 576.76 264.78 574.35 257.21 574.11 252.78 574.99 250.45 574.99 250.45"/><polygon class="cls-3" points="264.27 314.86 276.99 223.07 268.46 222.18 251.39 220.33 243.25 219.37 245.67 205.68 247.2 194.65 198.56 185.55 177.23 302.54 264.27 314.86 264.27 314.86"/><polygon class="cls-1" points="811.4 581.38 812.61 582.51 815.5 580.33 821.06 575.91 824.92 571.88 827.5 565.03 828.47 563.26 828.71 559.72 827.9 560.2 826.94 563.18 825.41 567.93 822.03 573.41 817.52 577.76 813.97 579.77 811.4 581.38 811.4 581.38"/><polygon class="cls-4" points="866.88 332.98 869.53 330.32 872.84 327.67 874.45 327.02 874.61 324.93 873.96 318.48 872.43 316.07 871.71 314.14 872.51 313.89 875.33 319.61 875.73 324.2 875.57 327.74 872.11 329.36 869.13 331.85 867.92 333.14 866.88 332.98 866.88 332.98"/><polygon class="cls-4" points="474.42 574.86 473.86 567.45 470.96 559.96 470.4 552.63 472.01 544.1 475.39 536.93 479.01 531.3 482.31 527.6 482.96 527.83 478.05 534.76 473.46 541.52 471.36 548.45 471.04 553.84 472.01 560.2 474.67 567.69 475.15 573.09 475.31 574.54 474.42 574.86 474.42 574.86"/><polygon class="cls-3" points="489.72 204.55 489.72 203.99 486.66 198.91 488.6 194.08 490.21 187.96 487.31 185.79 486.9 182.89 487.71 180.23 491.01 180.31 490.93 175.08 490.53 143.68 489.88 139.81 485.7 136.35 484.65 134.58 484.57 132.89 486.66 131.36 488.27 129.59 488.52 126.85 427.96 125.16 371.04 121.61 365.48 187.8 380.62 188.77 401.39 189.98 419.83 190.94 444.55 192.31 457.03 191.83 459.04 194.16 464.44 197.54 465.25 198.35 470 196.82 476.76 196.18 478.53 197.54 482.88 199.24 485.94 200.93 486.34 202.46 487.39 204.79 489.72 204.55 489.72 204.55"/><polygon class="cls-2" points="145.18 390.23 142.44 392.48 142.04 394.01 142.6 394.98 162.25 406.09 174.81 413.98 190.11 422.92 207.58 433.3 220.38 435.8 246.31 438.62 264.27 314.78 177.23 302.46 174.01 319.53 172.32 319.53 170.55 322.27 167.97 322.11 166.6 319.29 163.78 318.89 162.81 317.76 161.85 317.76 160.88 318.32 158.87 319.37 158.79 326.62 158.55 328.39 157.98 341.51 156.37 343.77 155.81 347.23 158.63 352.3 160 358.34 160.8 359.47 161.85 360.03 161.77 362.37 160.08 363.82 156.53 365.59 154.52 367.6 152.99 371.46 152.35 376.54 149.37 379.36 147.28 380.08 147.43 380.97 146.95 382.74 147.43 383.54 151.22 384.19 150.58 387.01 149.05 389.26 145.1 390.23 145.18 390.23"/><path class="cls-1" d="M90.75,6.63l2.17-.16,0.48,1.45L95,6.23h2.42l0.8,1.61L96.63,9.61l0.72,0.81-0.8,2.09-1.37.4s-1,.08-1-0.24A19.44,19.44,0,0,1,95.74,10L94,9.45,93.65,10.9l-0.72.72L91.31,9.21,90.75,6.63h0Z"/><path id="HI" class="cls-2" d="M236.14,532.78l2-3.7,2.36-.34,0.33,0.84-2.19,3.2h-2.52Zm10.6-3.87,6.39,2.69,2.19-.34,1.68-4-0.67-3.53-4.37-.51-4.2,1.85-1,3.87h0Zm32,10.43,3.87,5.72,2.52-.34,1.18-.5,1.51,1.34,3.87-.17,1-1.51-3-1.85-2-3.87-2.19-3.7-6.06,3-0.67,1.85h0Zm21,9.25,1.35-2,4.88,1,0.67-.5,6.39,0.67-0.34,1.35L310,550.61l-4.54-.34-5.72-1.68h0Zm5.55,5.38,2,4,3.2-1.18,0.34-1.68L309.14,553l-3.87-.34V554h0Zm7.23-1.18,2.35-3,4.88,2.52,4.54,1.18,4.54,2.86v2l-3.7,1.85-5,1-2.52-1.51-5-6.9h0Zm17.32,16.15,1.68-1.34,3.53,1.68,7.91,3.7,3.53,2.19,1.68,2.52,2,4.54,4.21,2.69L354,586.27l-4,3.36-4.37,1.52-1.51-.67-3.2,1.85-2.52,3.36-2.35,3-1.85-.17-3.7-2.69-0.34-4.71,0.68-2.52-1.68-5.89L327,580.89l-0.17-2.69,2.35-1,2.19-3.19,0.5-1-1.68-1.85-0.34-2.19h0Z"/><path class="cls-2" d="M158.79,464.06l-0.32,88.73,1.69,1,3.22,0.16,1.53-1.21h2.66l0.16,3.06,7.25,7,0.49,2.74,3.54-2,0.64-.16L180,560.2l1.53-1.69,1.21-.16,2-1.53,3.14,2.17,0.72,3.06,2,1.21,1.13,2.5,4.11,1.85,3.46,6.2,2.9,4,2.34,2.9,1.53,3.86,5.23,1.85,5.32,2.17,1,4.51,0.48,3.22-1,3.46-1.85,2.42-1.69-.89-1.53-3.14-2.82-1.53-1.85-1.21-0.89.89,1.53,2.82,0.16,3.86-1.21.49-2-2-2.17-1.29,0.48,1.69,1.37,1.77-0.8.89a3.14,3.14,0,0,1-1.37-1c-0.49-.64-2.18-3.46-2.18-3.46l-1-2.42s-0.32,1.37-1,1a5,5,0,0,1-1.37-1.53l1.85-2-1.53-1.53v-5.15h-0.8l-0.89,3.46-1.13.57-1-3.87-0.64-3.86L192,584.2l0.32,5.88v1.21l-1.53-1.37-3.71-6.2-2.17-.48-0.64-3.86-1.69-3.06-1.69-1.13v-2.42l2.17-1.29-0.48-.32-2.74.64-3.54-2.5-2.66-3.06-5.07-2.66-4.19-2.74,1.37-3.3v-1.69l-1.85,1.69-3.06,1.13-3.86-1.13L151.06,555h-5.64l-0.73.56L138,551.43l-2.18-.32-2.9-6-3.71.32-3.7,1.53,0.56,4.75,1.13-3.06,1,0.32-1.53,4.51,3.38-2.82,0.64,1.69-4,4.51-1.37-.32-0.48-2-1.37-.81-1.29,1.13-2.9-1.85-3.22,2.18-1.85,2.17-3.46,2.26-4.91-.16-0.48-2.25,3.87-.64v-1.37l-2.33-.64,1-2.5,2.33-4v-1.85l0.16-.89,4.59-2.34,1,1.37h2.9l-1.37-2.74-3.86-.32-5.24,2.9-2.49,3.46L104,550.3l-1.13,2.33-4.43,1.53-3.14,2.66-0.4,1.69,2.41,1,0.81,2.18L95.34,565l-6.76,4.43-8.05,4.35L78.35,575l-5.56,1.13-5.56,2.33,1.85,1.37-1.53,1.53-0.48,1.21-2.82-1-3.38.16L60,584H59l0.32-2.49-3.7,1.37-3,1-3.54-1.29-3.06,2H42.68l-2.17,1.29-1.69.89-2.18-.32L34,585.24l-2.33.65-1.05,1-1.69-1.21v-2l3.22-1.37,6.52,0.73,4.59-1.69,2.18-2.17,3-.73,1.85-.8,2.9,0.16,1.69,1.37,1-.32,2.33-2.9,3.22-1,3.54-.72,1.37-.32,0.64,0.48h0.81l1.37-3.86,4.18-1.45,2-3.86,2.33-4.75L79.32,559l0.4-2.66L78,557.71l-3.54.64-0.73-2.5-1.29-.32-1,1-0.16,3.06-1.53-.16-1.45-6.12-1.37,1.37-1.21-.48-0.32-2-4.19.16L59,553.44l-2.74-.32,1.53-1.45,0.48-2.74-0.64-2,1.53-1,1.37-.24-0.73-1.77v-4.59l-1-1L58,539.83H51.62l-1.53-1.29-0.64-4-2.18-3.7v-1l2.18-.81,0.16-2.18,1.21-1.21-0.89-.48-1.37.48-1.13-2.82,1-5.23,4.75-3.38,2.66-1.69,2-3.86,2.9-1.29,2.66,1.13L63.69,511l2.58-.4,3.3-2.5,1.69,0.64,1,0.73H74l2.33-1.37,0.81-4.51s0.32-3.06,1-3.54a3.91,3.91,0,0,0,1-1L78,497l-2.74.89-3.3.81-2.09-.48-3.62-1.85L61,496.19l-3.7-3.87,0.48-4,0.72-2.58L56.29,484l-2-3.86,0.56-.89,7-.48H64l1,1h0.64L65.55,478l4-.65,2.74,0.32,1.45,1.21-1.45,2.17-0.56,1.53,2.9,1.69,5.23,1.85,1.85-1-2.42-4.51-1-3.38,1-.81-3.46-2-0.56-1.21,0.56-1.69-0.89-4-3-4.91-2.58-4.35,3.06-2h3.38l1.77,0.72,4.43-.24L85.92,453,87,449.81l3.86-2.5,1.69,1,2.9-.64,3.87-2.18,1.13-.16,1,0.81,4.67-.16,2.9-3.22h1.13l3.7,2.58,2,2.17-0.48,1.13,0.65,1.21,1.69-1.69,4,0.32,0.4,3.86,2,1.53,7.33,0.65,6.6,4.43,1.53-1,5.32,2.66,2.17-.64,2.09-.8,5,2,4.51,3h0ZM39.22,494.18l2.18,5.55-0.16,1-3.06-.32-1.85-4.19-1.85-1.53H32L31.81,492l1.85-2.58L34.79,492l1.53,1.45,2.9,0.73h0ZM36.48,529l3.87,0.81,3.86,1,0.89,1-1.69,3.86-3.22-.16-3.54-3.7L36.48,529h0ZM15,514.31L16.19,517l1.13,1.69-1.13.81L14,516.32v-2h1Zm-14.25,76,3.46-2.41,3.54-1,2.74,0.32L11,588.95l2,0.48,2-2-0.32-1.69,2.82-.64,3.06,2.66-1.21,1.85-4.51,1.21-2.9-.48-3.86-1.21-4.51,1.53L1.86,591l-1.13-.65h0Zm50.89-4.75,1.69,2,2.18-1.69L54,584.6l-2.34,1h0Zm3.06,3.22,1.13-2.33L58,586.78l-0.8,2h-2.5Zm24.48-2,1.53,1.85,1-1.21-0.89-2-1.69,1.37h0Zm9.1-13,1.21,6,3,0.89,5.23-3.06,4.51-2.66-1.69-2.58,0.56-2.5-2.25,1.37-3-.89,1.69-1.13,2,0.8,4-1.85,0.48-1.53-2.5-.81,0.81-2-2.82,2-4.91,3.7-5,3-1.37,1.21h0Zm44-20.69,2.5-1.45-1-1.85-1.85,1,0.32,2.33h0Z"/><polygon class="cls-2" points="910.04 140.54 910.92 139.41 912.05 136.03 909.47 135.06 908.91 131.84 904.88 130.71 904.56 127.81 896.99 103.5 892.24 88.36 891.27 88.36 890.63 90.05 889.99 89.57 888.94 88.52 887.41 90.53 887.41 95.77 887.73 101.65 889.74 104.55 889.74 108.73 885.88 113.97 883.14 115.17 883.14 116.3 884.35 118.15 884.35 127.09 883.46 136.67 883.3 141.75 884.35 143.03 884.19 147.78 883.7 149.63 884.67 150.36 902.15 145.77 904.4 145.13 906.33 142.23 910.04 140.54 910.04 140.54"/><path class="cls-2" d="M611.23,70.24l-2.42.56-5.56,4-2.25.8-1.93,2.17L600.76,79l2.1-1,3.46-2,5.39-5.4-0.48-.4h0ZM622.74,85l-4.83.56L613.4,88,611,90.37l-1.29,1.85-1.85.8-2,3.06-0.16,1.37-4.59,2.17-2.5,2-6.2,1-0.72.72v1L588,106.64l-2.9.89-0.73.56,3.86,5.39,8.13,1.21,8.61,2.26,3,1,12.56,2.82,2.17,2.42,3.62,1.37,2,10.71,1.45,1.13,1.21,1,3.3-7.25,1-4.27,2-4.51,0.8-.16,1.21,1.69h0.64l4.75-2.5,1.53,1.61,0.48,0.16,1.37-1.13,1.13-3.22,2.49-.8,7.25-.72,2-2.66,5.4-.16,6,1.37h1.85l3.38-1.53,2.34,0.16,2.17-.64,3.87,0.48,0.89,0.32,1.29-.32-1.29-1-1.37-.64-3.38-3.22v-7.17l-1.53-.56L679.59,102l-6.44,1.69-2,.48-3-.81-0.48-.32V97.14l-1.53-.24-2.74,1.37-4.67,2-6.93.32-3.46,1.21-4.27,3.7-1.61,1h-1.21l-1.37.89-1.69-.48-1.61-1.37-1.53,1-4,.16-2.9-2.82-1.53-3.22-1.45-1.13-3.38-1h-2.33l-1.37-1.29-3.7,3-1,1.21-0.89-.56,0.32-2.66,2.58-3.38,0.49-2.5,2.33-.81,1.53-3.22,3.86-1,0.32-1L622.74,85h0Zm69.17,24.16-2.26.24-1.69.16-0.33,1.13,1,0.56,0.73,2.58,3.38,0.16,1.29-1.21a3.7,3.7,0,0,0-.4-1.69,16.06,16.06,0,0,1-1.69-1.93h0ZM675,118.8l-3,1.85L669,123l0.32,3.7,1,0.32,2.18,0.48,0.48,0.89-2.66.81-2.66.32-1.53,1.85-0.32,2.17,0.32,1.69,0.32,5.72-3.7,2.17-0.65-.16V138.6l1.29-2.5,0.72-2.58-0.88-.81-2,.81-1,4.43-2.9,1.13-1.85,2-0.16,1,0.72,0.81-0.72,2.74-2.34.48v1.13l0.81,2.58-1.13,6.36L651,160.43l0.64,4.91,0.56,1.13L651.32,169l-0.32.81-0.32,2.82,3.7,6.28,3,6.68,1.53,5.07-0.81,4.83-1,6.2-2.5,5.39-0.32,2.9-3.38,3.22,4.59-.24,22.22-2.34,7.57-1,0.08,1.77,7.17-1.21,10.71-1.61,3.95-.48,0.16-.65,0.16-1.45,2.18-3.86,2.09-1.85L711.47,195l1.69-1.69,1.13-.32,0.24-3.7,1.61-3.14,1,0.64,0.16,0.64,0.89,0.16,2-1-0.32-9.9-3.38-8.62-2.34-9.42-2.57-3.3L709,153.58l-1.69,1.13-4,1.85-2,5.23-2.9,3.87-1.13.64-1.53-.64s-2.66-1.53-2.5-2.17,0.48-5.23.48-5.23l3.54-1.37,0.81-3.46,0.72-2.74,2.5-1.69-0.32-10.39-1.69-2.34-1.37-.89-0.81-2.17,0.81-.81,1.69,0.32,0.16-1.69-2.5-2.34L695.85,126h-2.66l-4.75-1.45L682.73,121h-2.82l-0.65.64-1-.48L675,118.8h0Z"/><path class="cls-2" d="M953.76,74.43l2,2.17,2.33,3.87v2.09l-2.17,4.83-2,.64-3.54,3.22-5,5.72H944c-0.64,0-1-2.17-1-2.17l-1.85.16-1,1.53-2.5,1.45-1,1.53L938.3,101l-0.48.64-0.56,2.9-2-.16v-1.69l-0.32-1.37-1.53.32-1.85-3.3-2.18,1.29,1.37,1.53,0.32,1.21-0.81,1.29,0.32,3.22,0.16,1.69L929,111.23l-3,.56-0.4,3L920.18,118l-1.37.48-1.69-1.53-3.22,3.7,1,3.38-1.53,1.37-0.16,4.51L912,136.43l-2.5-1.21L909,132l-4-1.13-0.32-2.9-7.57-24.32-4.83-15.22,1.45-.16,1.53,0.4V86l1.37-4.67,2.74-4.91,1.53-4.19-2.09-2.5v-6.2l0.89-1,0.81-2.82-0.16-1.53-0.16-5.07,1.85-5L905,38.84l2.18-4.35h1.37l1.29,0.16v1.13l1.37,2.41,2.82,0.64,0.89-.89V37l4.19-3.06L921,32.08l1.53,0.24,6.2,2.5,2,1,9.42,31.08h6.2l0.89,2,0.16,5.07,3,2.33h0.89l0.16-.48-0.56-1.21,2.9-.16h0ZM932,105.83l1.61-1.61,1.37,1,0.64,2.58-1.77.89-1.85-2.9h0Zm6.93-6.2,1.85,1.93s1.37,0.08,1.37-.24,0.24-2.09.24-2.09l1-.81-0.88-1.85-2.09.72-1.45,2.34h0Z"/><polygon class="cls-2" points="903.03 178.46 899.24 162.92 905.77 160.99 908.02 163 911.48 167.51 914.22 172.1 911.08 173.79 909.79 173.63 908.58 175.48 906.09 177.5 903.03 178.46 903.03 178.46"/><polygon class="cls-2" points="852.7 229.83 853.11 227.58 853.51 225.81 851.82 226.21 850.13 226.69 847.79 228.54 849.57 233.78 851.98 239.66 854.15 249.72 855.84 256.32 861 256.16 867.44 254.87 865.02 247.22 864.06 247.71 860.35 245.21 858.5 240.3 856.49 236.68 853.19 233.7 852.3 231.44 852.7 229.83 852.7 229.83"/><path class="cls-2" d="M859,269l-0.16-2,6.68-2.66-0.81,3.38-3.06,3.94-0.4,4.75,0.48,3.54-1.93,5.15-2.26,2L856,282.33l0.48-5.72,1.69-4.35L859,269h0Zm3.46,29.47-60.47,13L763.09,317l-7-.4-2.66,2-7.65.24-8.7,1-11.35,1.69,10.87-5.88v-2.17l1.61-2.18,11-12,4.11,4.67,3.94,1,2.66-1.13,2.26-1.37,2.66,1.37,4.11-1.45,1.93-4.75,2.74,0.56,2.9-2.25,1.93,0.56,2.9-3.87,0.4-2.17-1-1.29,1-1.93,5.47-12.8,0.64-6,1.29-.48,2.26,2.5,4.11-.32,2-7.89,2.9-.56,1-2.82,2.74-2.49,2.9-5.88,0.08-5.23,10.15,3.94c0.72,0.32.89-5.23,0.89-5.23l3.79,1.61,0.08,3.06,6,1.37,2.18,1.21,1.77,2.17-0.72,3.78-2,2.66,0.16,2.17,0.57,1.93,5.23,1.29,4.59,0.08,3.22,1,2,0.32,0.73,3.22,3.3,0.4,0.89,1.29-0.4,4.83,1.37,1.13-0.48,2,1.29,0.89-0.24,1.37-2.82-.08,0.16,1.69,2.33,1.61,0.16,1.45,1.85,1.85,0.48,2.66L851,292.48l1.61,1.53,6-1.77,3.78,6.28h0Z"/><path class="cls-3" d="M718.64,323.32l-53.95,5.23-16.34,1.85-4.83.48h-4l-0.16,4.27-8.53.24-7.25.72-8.37-.16-1.53,7.32L612,349l-3.46,2.9-1.37,4.51-0.4,2.74-4.19,2.33,1.53,3.7-1,4.51-1,.8,112.4-10.79,0.4-4.11,1.93-1.53,2.9-.81,0.72-3.87,4.27-2.82,4.19-1.53,4.27-3.7,4.59-2.09,0.56-3.22,4.19-4.19,0.64-.08s0,1.21.81,1.21a8.87,8.87,0,0,1,2,.32l2.41-3.71,2.09-.64,2.42,0.24,1.61-3.62,3.14-2.74,0.4-2,0.32-3.86-2.25-.24-2.66,2.09-7.33.08L727,321.3l-8.38,2h0Z"/><polygon class="cls-3" points="611.79 349.08 607.61 349.81 602.29 349.16 602.77 347.55 605.83 344.81 606.8 341.03 604.95 337.97 523.38 340.55 525.07 347.71 525.07 356.25 526.52 367.68 526.76 406.98 529.1 408.99 532.24 407.62 535.05 408.75 535.78 415.59 593.59 414.46 594.8 412.29 594.48 408.58 592.54 405.44 594.24 403.92 592.54 401.34 593.27 398.68 594.72 392.89 597.3 390.71 596.57 388.38 600.44 382.82 603.25 381.37 603.17 379.84 602.77 377.91 605.75 372.11 608.25 370.82 608.65 367.2 610.5 365.91 607.2 365.43 605.83 361.24 608.73 358.82 609.29 356.65 610.66 352.46 611.79 349.08 611.79 349.08"/><polygon class="cls-2" points="693.36 362.13 693.36 364.38 693.52 366.56 694.16 370.1 697.7 378.31 700.2 388.54 701.73 394.98 703.42 399.97 704.95 407.22 707.13 413.74 709.78 417.28 710.27 420.83 712.28 421.63 712.44 423.88 710.59 428.88 710.11 432.26 709.95 434.27 711.63 438.78 711.96 444.34 711.15 446.83 711.8 447.72 713.32 448.52 713.57 451.91 715.82 455.37 718.16 457.62 726.45 457.78 737.64 457.14 760.03 455.77 765.66 455.05 770.41 455.13 770.66 458.11 773.31 458.99 773.63 454.4 771.94 449.73 773.15 448.04 779.19 448.84 784.34 449.25 783.54 442.65 785.87 432.26 787.4 427.91 786.92 425.17 790.38 418.73 789.82 417.28 787.89 418.01 785.15 416.72 784.5 414.46 783.14 410.84 780.8 408.58 778.14 407.94 776.45 402.87 773.39 396.35 769.05 394.33 766.87 392.32 765.5 389.58 763.33 387.57 760.99 386.2 758.58 383.22 755.44 380.89 750.68 379.03 750.2 377.5 747.71 374.45 747.14 373 743.68 367.76 739.98 367.93 736.11 365.43 734.58 364.14 734.26 362.29 735.15 360.27 737.48 359.07 736.84 356.89 693.36 362.13 693.36 362.13"/><path class="cls-3" d="M749.16,299.4l-2.42,2.5-3.7,4.19-5.15,5.63-1.21,1.85-0.08,2.17L732,318l-5.88,3.54-7.49,1.85-53.95,5.07-16.34,1.85-4.83.56-4-.08-0.24,4.43-8.45.16-7.25.64-8.29-.08,1.29-1.37,2.58-1.61,0.24-3.3,1-1.93-1.69-2.66,0.8-1.93,2.33-1.85,2.26-.64,2.82,1.29,3.7,1.37,1.21-.32,0.16-2.34-1.37-2.58,0.32-2.34,2-1.53,2.74-.64,1.61-.64-0.8-1.85-0.64-2,1.53-1c0-.08,1.29-3.7,1.29-3.79l3.22-1.61,5.48-1,4.67-.48,1.45,1.69,1.61,0.89,1.61-3.22,3.38-1.37,2.25,1.53,0.41,1,1.29-.24-0.24-3.06,3.3-1.85,2.26-1.13,1.53,1.77,3.46-.08,0.65-1.61-0.41-2.34,2.74-4.19,4.91-3.54,0.73-5.07,3.06-.48,3.94-1.69,2.58-1.77-0.24-1.61L691,273.31l0.65-3.14,4.35-.08,2.33-.8,3.46,1.53,2.18,4.51h5.31l2.17,2.33,1.69-.16,2.66-1.37,5.47,0.64L724,277l1.77-2.18,2.74-1.45,1.93-.81,0.64,3,2.17,1.13,2.74,2.17,0.08,5.88,0.89,1.61,2.66,1.61,0.81,2.41,4.35,3.54,1.85,3.78,2.58,1.69h0Z"/><polygon class="cls-3" points="650.68 471.07 649.15 456.18 646.33 436.69 646.5 422.11 647.3 389.82 647.14 372.51 647.3 365.83 693.6 362.13 693.44 364.38 693.6 366.56 694.24 370.1 697.78 378.31 700.28 388.54 701.81 394.98 703.5 399.97 705.03 407.22 707.21 413.74 709.86 417.28 710.35 420.83 712.36 421.63 712.6 423.8 710.75 428.88 710.19 432.26 710.02 434.27 711.72 438.78 712.04 444.34 711.23 446.83 711.88 447.72 713.41 448.52 713.73 451.58 707.93 451.18 700.84 451.82 674.35 454.88 663.48 456.33 663.24 459.31 665.1 461.17 667.83 463.18 668.39 471.47 662.68 474.13 659.78 473.81 662.68 471.79 662.68 470.75 659.46 464.55 657.12 463.9 655.59 468.41 654.22 471.23 653.58 471.07 650.68 471.07 650.68 471.07"/><path class="cls-2" d="M626.45,469.78l-3.38-3.3,1-5.72-0.73-.89-9.58,1-26,.48-0.72-2.5,1-8.78,3.38-6.2,5.23-9-0.57-2.5,1.29-.72,0.48-2-2.33-2.17-0.16-2L593.43,421l-0.08-6.6-57.73,1,0.08,10,0.72,9.74,0.72,4,2.57,4.27,1,5.23,4.51,5.72,0.24,3.3,0.73,0.72-0.73,8.78-3.14,5.23,1.69,2.17-0.72,2.58-0.73,7.57-1.37,3.38,0.08,3.7,4.91-1.53,12.56,0.16,10.79,3.7,6.68,1.21,3.86-1.53,3.38,1.21,3.38,1,0.8-2.18-3.38-1.13-2.66.48-2.9-1.69s0.24-1.37.88-1.53,3.22-1,3.22-1l1.85,1.45,1.77-1,3.38,0.64,1.53,2.58,0.32,2.34,4.75,0.32,1.85,1.85-0.89,1.69-1.37.81,1.69,1.69,8.78,3.7,3.7-1.37,1-2.5,2.74-.64,1.85-1.53,1.29,1,0.89,3.06-2.33.81,0.64,0.72,3.54-1.37,2.34-3.54,0.8-.48-2.17-.32,0.89-1.69-0.16-1.53,2.17-.48,1.13-1.37,0.72,0.89s-0.16,3.14.64,3.14,4.35,0.72,4.35.72l4.19,2,1,1.45h3.06l1.13,1,2.34-3.22v-1.45h-1.29l-3.54-2.9-6-.8L628,492.24l1.21-2.82,2.33,0.32,0.16-.65-1.85-1v-0.48h3.38l1.85-3.22-1.37-2-0.32-2.82-1.53.16-2,2.17-0.64,2.66-3.22-.64-1-1.85,1.85-2,2-3.55-1.13-2.58-1.21-4.11h0Z"/><polygon class="cls-2" points="586.18 199.96 586.43 202.86 588.76 203.5 589.73 204.71 590.21 206.64 594.16 210.19 594.88 212.68 594.24 216.22 592.54 219.61 591.74 222.43 589.49 224.12 587.72 224.68 581.92 226.61 580.47 230.64 581.19 232.01 583.13 233.78 582.8 237.96 580.95 239.58 580.15 241.27 580.31 244.17 578.38 244.65 576.68 245.78 576.36 247.22 576.68 249.4 575.07 250.53 572.5 247.31 571.21 244.73 502.85 247.39 501.88 247.55 499.79 242.88 499.55 235.95 497.86 231.69 497.13 226.21 494.8 222.43 493.83 217.43 490.93 209.54 489.8 203.99 488.36 201.73 486.66 198.91 488.76 193.84 490.13 187.88 487.31 185.79 486.82 182.89 487.79 180.31 489.56 180.31 575.48 179.03 576.36 183.37 578.7 184.98 578.94 186.43 576.85 189.98 577.01 193.28 579.66 197.22 582.24 198.59 585.46 199.07 586.18 199.96 586.18 199.96"/><polygon class="cls-3" points="488.52 126.45 488.03 117.67 486.1 110.02 484.25 96.01 483.76 85.78 481.83 82.24 480.14 77.01 480.14 66.3 480.87 62.27 479.01 56.56 510.34 56.64 510.66 48.02 511.3 47.86 513.72 48.42 515.73 49.23 516.54 54.95 518.07 61.31 519.76 63 524.75 63 525.07 64.53 531.67 64.85 531.67 67.02 536.67 67.02 537.07 65.73 538.19 64.53 540.53 63.88 541.9 64.85 544.96 64.85 548.98 67.59 554.54 70.08 557.04 70.57 557.52 69.6 559.05 69.04 559.53 72.09 562.27 73.47 562.75 72.9 564.12 73.06 564.12 75.32 566.78 76.28 570 76.28 571.61 75.48 574.99 72.09 577.73 71.61 578.54 73.47 579.02 74.75 580.07 74.75 581.03 73.95 590.29 73.63 592.14 76.77 592.79 76.77 593.59 75.64 598.18 75.32 597.54 77.65 593.43 79.58 583.85 83.77 578.86 85.86 575.72 88.52 573.14 92.23 570.81 96.25 568.95 97.14 564.28 102.37 562.91 102.53 558.41 105.35 555.83 108.73 555.59 112.03 555.75 120.41 554.3 122.1 548.98 126.04 546.65 132.24 549.63 134.58 550.35 137.96 548.42 141.34 548.66 145.21 548.98 152.21 552.13 155.35 555.59 155.35 557.6 158.57 561.06 159.06 565.09 165.02 572.5 169.28 574.67 172.26 575.4 178.94 491.01 180.15 490.61 143.03 490.13 139.97 485.86 136.43 484.73 134.5 484.73 132.81 486.82 131.2 488.27 129.75 488.52 126.45 488.52 126.45"/><polygon class="cls-3" points="389.88 325.97 372.49 324.69 371.6 336.04 392.86 337.25 426.19 338.61 423.78 363.98 423.3 382.5 423.54 384.19 428.04 387.97 430.22 389.18 430.86 388.94 431.59 386.76 433.04 388.7 435.21 388.7 435.21 387.25 438.03 388.7 437.55 392.72 441.81 392.96 444.47 394.17 448.74 394.9 451.31 396.75 453.73 394.66 457.27 395.38 459.85 398.92 460.81 398.92 460.81 401.34 463.23 401.98 465.57 399.65 467.5 400.37 470.08 400.37 471.04 402.95 477.64 405.12 479.01 404.4 480.95 400.13 482.15 400.13 483.28 402.31 487.55 402.95 491.41 404.4 494.47 405.37 496.41 404.4 497.13 401.82 501.64 401.82 503.73 402.79 506.63 400.62 507.76 400.62 508.48 402.31 512.75 402.31 514.45 400.13 516.37 400.62 518.47 403.19 521.77 405.12 525.15 406.09 527.16 407.22 526.76 368.57 525.31 357.13 525.15 347.95 523.62 341.11 522.82 333.7 522.82 329.68 510.18 330 461.94 329.52 415.08 327.42 389.88 325.97 389.88 325.97"/><path class="cls-5" d="M370.23,336.12l23.59,1.13,32.29,1.21-2.42,24.4-0.32,18.84,0.08,2.17,4.51,3.94,2.09,1.53,1.21-.56,0.4-1.93,1.21,1.85,2.17,0.08v-1.53l1.77,1,1.13,0.4-0.33,4.1,4.19,0.16,3.06,1.21,4.11,0.57,2.5,2.17,2.17-2.17,3.87,0.64,2.33,3.3,1.13,0.4-0.16,2,2.34,0.81,2.42-2.09,2.17,0.64h2.34l1,2.5,6.6,2.25,1.61-.81,1.53-4.35h0.4l1,0.08,1.21,2.17,4.11,0.64,3.46,1.21,3.54,1.21,1.93-1,0.73-2.66,4.67,0.08,1.85,1,2.9-2.17h1.21l0.89,1.69h4.19l1.61-2.09,1.93,0.4,2,2.49L522,405.2l3,0.89,1.61,0.81,2.5,2.09,3.22-1.37,2.74,1.13,0.65,6.36-0.08,10.07,0.72,10,0.73,3.7,2.82,4.59,0.89,5.15,4.43,5.8,0.16,3.22,0.81,0.81-0.81,8.7-3,5.23,1.61,2.26L543.35,477l-0.72,7.73-1.53,3.46,0.32,3.62-6,1.61-10.22,4.75-1,2-2.74,2-2.17,1.53-1.37.81-5.88,5.56-2.82,2.18-5.56,3.38-5.88,2.49-6.52,3.54-1.85,1.53-6,3.7-3.54.65-4,5.72-4.27.32-1,2,2.33,2-1.53,5.71-1.29,4.75-1.21,4-0.81,4.67,0.81,2.58,1.85,7.17,1,6.44,1.77,2.82-1,1.53-3.22,2-5.88-4-5.72-1.21-1.29.48-3.38-.65-4.35-3.22-5.39-1.13-7.89-3.54-2.17-4L432,555.29l-3.38-2L428,550.94l0.64-.64,0.32-3.54-1.29-.64-0.72-1,1.37-4.51-1.69-2.33-3.38-1.37-3.46-4.51-3.7-6.92-4.43-2.66,0.16-2-5.47-12.8-0.89-4.35-1.85-2-0.16-1.53-6.2-5.56-2.66-3.22v-1.13L391.81,488l-7-1.21-7.73-.64-3.22-2.42-4.75,1.85-3.62,1.53-2.42,3.38-1,3.87-4.59,6.36-2.5,2.5-2.66-1L350.5,501l-2-.64-4-2.34v-0.72l-1.85-2-5.4-2.18-7.73-8.05-2.34-4.83v-8.46l-3.38-6.68-0.48-2.9-1.69-1-1.21-2.17-5.15-2.18-1.37-1.69-7.41-8.29-1.37-3.3-4.83-2.42-1.53-4.51-2.66-3-2-.57-0.72-4.83,8.29,0.72,30.19,2.82,30.2,1.69,2.33-20.21,4-57.81L370.07,336l1.45,0.08m102.9,238.74-0.56-7.41L471,560l-0.57-7.33L472,544.1l3.38-7.17L479,531.3l3.3-3.7,0.64,0.24L478,534.76l-4.59,6.76-2.09,6.93L471,553.84l1,6.36,2.66,7.49,0.48,5.39,0.16,1.45-0.89.32h0Z"/><polygon class="cls-2" points="294.06 433.22 293.26 428.31 302.19 428.88 333.6 431.94 361.94 433.71 364.19 414.22 368.22 356.17 370.07 336.04 371.68 336.12 372.49 324.52 264.43 313.49 246.23 438.7 262.33 440.71 263.63 430.33 294.06 433.22 294.06 433.22"/><polygon class="cls-2" points="499.79 242.72 503.17 250.04 503.01 252.38 506.63 258.1 509.45 261.4 504.22 261.4 458.96 260.43 416.61 259.46 393.42 258.66 394.55 236.52 360.97 233.46 365.48 187.72 381.67 188.77 402.6 189.98 421.12 191.18 445.84 192.39 456.95 191.91 459.13 194.24 464.12 197.38 465.32 198.27 469.84 196.9 473.86 196.42 476.68 196.18 478.61 197.54 482.8 199.24 485.94 200.93 486.42 202.54 487.31 204.71 489.24 204.71 490.04 204.79 491.01 209.62 494.07 218.4 494.63 222.35 497.29 226.29 497.86 231.6 499.55 235.95 499.79 242.72 499.79 242.72"/><polygon class="cls-3" points="488.6 126.53 487.95 117.75 486.18 110.67 484.25 97.14 483.76 85.7 481.91 82.48 480.14 77.09 480.14 66.22 480.79 62.27 478.85 56.64 449.14 55.99 429.81 55.35 402.2 53.98 378.37 51.8 371.12 121.61 428.21 125.08 488.6 126.53 488.6 126.53"/><polygon class="cls-3" points="369.11 141.42 258.15 127.49 243.5 219.37 361.21 233.54 369.11 141.42 369.11 141.42"/><polygon class="cls-2" points="378.28 51.72 346.4 48.83 315.96 45.12 285.61 40.94 251.95 35.38 232.78 31.84 198.81 24.67 194.13 46.81 197.68 54.7 196.31 59.45 198.16 64.2 201.54 65.57 206.29 76.77 209.11 80.07 209.6 81.28 213.14 82.48 213.62 84.58 206.29 102.93 206.29 105.51 208.87 108.81 209.84 108.81 214.83 105.75 215.55 104.55 217.16 105.27 216.92 110.75 219.82 123.79 222.88 126.45 223.85 127.17 225.78 129.51 225.3 133.13 226.02 136.67 227.15 137.64 229.57 135.22 232.38 135.22 235.76 136.91 238.34 135.95 242.61 135.95 246.39 137.64 249.29 137.16 249.78 134.01 252.84 133.29 254.29 134.74 254.77 138.04 256.22 138.93 258.15 127.49 369.11 141.42 378.28 51.72 378.28 51.72"/><polygon class="cls-3" points="389.56 326.13 394.63 236.44 276.75 223.23 264.11 314.7 389.56 326.13 389.56 326.13"/><path class="cls-2" d="M144.94,389.83l4.11-.57,1.53-2.09,0.56-3.06-3.7-.57-0.56-.72,0.48-2.09-0.16-.64,2-.64,3.14-2.9,0.64-5.23,1.45-3.54,2-2.26,3.62-1.61,1.77-1.69,0.08-2.17-1-.64-1-1.13-1.21-6-2.82-5,0.57-3.71-2.5-1L82.13,234.18,101.78,164,32,147.62l-1.61,4.91-0.16,7.73-5.4,12.24-3.14,2.74-0.4,1.13-1.85.89L18,181.6,17.15,185l2.9,4.35,1.69,4.35,1.13,3.7-0.32,6.76-1.85,3.14-0.64,6-1,3.87,1.85,4.11,2.9,4.67L26.09,231l1.37,4.19-0.4,3.38-0.32.48v2.17l5.88,6.52-0.48,2.58-0.64,2.33-0.72,2,0.16,8.54,2.25,3.86,2,2.74L38,270.33l1,2.82-1.21,3.7-2.17,1.69H34.47l-0.81,4,0.48,3.06,3.38,4.51,1.69,5.56,1.45,4.91L42,303.75l3.54,6,1.53,2.74,0.48,3,1.69,1V319l-0.89,2-1.85,7.41-0.48,2,2.58,2.9L53,333.86l4.67,1.85,4,2.17h3.06l3,3.22,2.74,5,1.13,2.33,4.11,2.18,5,0.89,1.53,2.17,0.64,3.38-1.53.64,0.4,1,3.3,0.81,2.9,0.16,3.3-1.77,4,4.43,0.81,2.34,2.74,4.35,0.32,3.38v9.74L99.6,384,110,385.56l20.53,2.82,14.41,1.45h0ZM53.31,344.33l1.37,1.61-0.16,1.37-3.38-.08-0.56-1.29-0.72-1.53,3.46-.08h0Zm2,0,1.29-.65,3.7,2.18,3.14,1.29-0.89.65-4.75-.24-1.69-1.69-0.81-1.53h0Zm21.5,20.61,1.85,2.42,0.89,1L81.09,369l0.64-1.53-1-1.85-2.74-2.09-1.13.16v1.29h0Zm-1.53,8.94,1.85,3.3,1.29,2-1.53.24-1.37-1.21a9.88,9.88,0,0,1-.72-1.93V374l0.48-.08v-0.08Z"/><path id="WI" class="cls-2" d="M633.56,197.62l-0.07-3.27-1.22-4.68-0.67-6.35-1.17-2.51,1-3.18,0.84-3,1.5-2.67-0.67-3.51-0.67-3.68,0.5-1.84,2-2.51,0.17-2.84-0.84-1.34,0.67-2.68-0.47-4.31,2.84-5.85,3-7L640.5,134l-0.34-1-0.83.5L635,140.05l-2.84,4.18-2,1.84-0.83,2.34-2,.84-1.17,2-1.51-.33-0.17-1.84,1.34-2.51,2.18-4.85,1.84-1.67,1-2.44-2.65-2-2-10.72-3.67-1.39-2-2.39-12.55-2.81-3-1L596.42,115l-8.19-1.2-3.9-5.31-0.77.57-1.24-.17-0.67-1.17-1.38.31-1.17.17-1.84,1-1-.67,0.67-2,2-3.18,1.17-1.17-2-1.5-2.17.84-3,2-7.69,3.34-3,.67-3-.5-1-.91L556,109.1l-0.24,2.84v8.75l-1.18,1.65-5.44,4-2.37,6.15,0.47,0.24,2.6,2.13,0.71,3.31-1.89,3.31v4l0.47,6.86,3.07,3.08h3.55l1.89,3.31,3.55,0.47,4,5.91,7.33,4.26,2.13,2.84,0.95,7.68,0.71,3.43L578.7,185l0.24,1.42L576.81,190l0.24,3.31,2.6,4,2.6,1.18,3.07,0.47,1.39,1.43,46.85-2.76h0Z"/></svg>