<?xml version="1.0" encoding="utf-8"?>
<!-- Generator: Adobe Illustrator 19.2.1, SVG Export Plug-In . SVG Version: 6.00 Build 0)  -->
<svg version="1.1" baseProfile="basic" id="Layer_3"
	 xmlns="http://www.w3.org/2000/svg" xmlns:xlink="http://www.w3.org/1999/xlink" x="0px" y="0px" viewBox="0 0 602.9 380.6"
	 xml:space="preserve">
<g>
	<polygon fill="#FFFFFF" stroke="#0094FF" stroke-width="1.5" points="493.3,282.4 494.8,287.2 497.2,293.5 500.7,299.7
		503.1,303.8 506.3,307.4 508.9,309.8 510,311.7 509.2,312.6 508.7,313.4 510.6,318.2 512.5,320.2 514.2,323.7 516.5,327.4
		519.5,332.8 520.3,337.8 520.6,345.6 521,346.8 520.8,349 519.3,349.8 519.5,351.1 519.1,352.4 519.3,354 519.6,355.2 517.8,357.3
		515.8,358.3 513.2,358.4 512.3,359.4 510.7,360.1 509.9,359.7 509.1,359.1 508.9,357.2 508.4,355 506.2,351.6 503.8,350.1
		501.3,349.9 500.8,350.8 498.8,347.9 498.4,345.6 496.6,343 495.5,342.2 494.5,343.6 493.3,343.4 491.9,340.1 490,337.6
		488.1,334.1 486.4,332.1 484.1,329.7 485.5,328.1 487.6,324.5 487.5,323.4 484.5,322.8 483.5,323.2 483.7,323.7 485.4,324.3
		484.4,327.2 483.9,327.5 482.7,324.9 481.9,321.7 481.7,320 482.6,316.9 482.6,310.6 480.6,308.2 479.7,306.2 476.4,305.4
		475.1,304.9 474.1,303.3 471.8,302.2 471.1,300 469.3,299.4 467.7,296.9 465,296 463.1,295 461.4,295 458.7,295.6 458.6,296.8
		459.2,297.4 458.8,298.2 456.9,298.1 454.4,300.4 452.1,301.7 449.6,301.7 447.4,302.5 447.2,300.7 446.2,299.5 444.3,298.7
		443.2,297.7 437.9,295.2 433,294 430.1,294.5 426.2,294.8 422.3,296.2 420,296.6 419.9,291.3 418.2,290 417,288.9 417.2,286.9
		423.9,286 440.6,284.1 445,283.7 448.6,283.9 450.2,286.5 451.2,287.4 456.5,287.7 463.5,287.3 477.6,286.5 481.2,286 484.5,286.1
		484.8,288 486.3,288.6 486.4,285.5 485.4,282.8 486.3,281.9 489.9,282.1 493.3,282.4 	"/>
	<polygon fill="#FFFFFF" stroke="#0094FF" stroke-width="1.5" points="548.6,96.1 551.6,95.6 556.4,94.7 555.7,94.2 556.1,93.1
		556.2,90.1 555.5,89.3 555.7,85.6 556.1,79.5 556.3,74.3 555.4,73.3 555.4,72.6 557.1,71.8 559.6,68.5 559.6,65.9 558.3,64.1
		558.1,60.5 540.8,64.9 541.3,68.1 542.9,72.3 543.5,75.7 542.8,78.2 544.6,81.3 545.1,82.6 544.6,84.5 546.5,85.4 546.9,85.6
		548.8,92.6 548.6,96.1 	"/>
	<path fill="#FFFFFF" stroke="#0094FF" stroke-width="1.5" d="M542.4,187.8l1.4,3.2l2.3,4.2l1.6,1.6l0.4,1.5l-1.6,0.1l0.5,0.4
		l-0.2,2.7l-1.7,0.9l-0.5,1.4l-0.8,1.9l-2.4,1l-1.6-0.2l-0.9-0.1l-1.1-0.8l0.2,0.8v0.7h1.3l0.5,0.8l-1.3,4.2h2.8l0.4,1.1l1.5-1.5
		l0.9-0.3l-1.3,2.3l-2,3.2H540l-0.8-0.4l-1.8,0.5l-3.3,1.6l-4.3,3.5l-2.2,3.1l-1.3,4.2l-0.3,1.6l-3,0.4l-3.6,0.9l-6.5-5.4l-8.2-5
		l-1.9-0.6l-8.2,1l-2.8,0.5l-1-2.1l-2-1.4l-10.8,0.3l-4.8,0.6l-5.9,2.9l-4,1.7l-13.8,1.7l0.3-2.7l1.2-0.9l1.8-0.5l0.4-2.4l2.7-1.8
		l2.5-1l2.8-2.3l2.8-1.4l0.4-2l2.5-2.5l0.5-0.1c0,0,0,0.8,0.5,0.8c0.6,0,1.3,0.2,1.3,0.2l1.5-2.3l1.4-0.4l1.5,0.2l1.1-2.3l1.9-1.7
		l0.4-1.4l0.1-2.4h2.8l4.7-0.6l10.3-1.5l9.9-1.4l14.1-3.1l13.1-2.8l7.3-1.6L542.4,187.8L542.4,187.8z"/>
	<polygon fill="#FFFFFF" stroke="#0094FF" stroke-width="1.5" points="496.6,262.2 498,261.3 501.2,257.7 500.6,255.6 502.5,255.5
		504.8,253.2 505.9,252.7 507.4,250.5 509.2,248.7 510.6,246.4 512.1,246 512.9,244.2 514,243.7 514.3,239.5 515.9,235.5
		519.5,231.9 512.9,226.7 504.6,221.7 502.8,221.2 494.5,222.1 491.7,222.5 490.6,220.3 488.9,219.1 478.4,219.4 473.3,219.9
		467.3,222.9 463.5,224.4 463.9,225.9 462.4,226.5 461.9,227.8 462.1,229 462.9,229.8 465.6,231.4 467.8,231.3 470,234.7
		470.3,235.6 471.9,237.6 472.2,238.5 475.2,239.6 477.2,241.1 478.7,243 480.1,243.9 481.5,245.2 482.4,246.8 483.7,248.1
		486.5,249.4 488.3,253.2 489.4,256.4 491,256.8 492.5,258.3 493.4,260.5 493.8,262 495.5,262.8 496.6,262.2 	"/>
	<polyline fill="#FFFFFF" stroke="#0094FF" stroke-width="1.5" points="233,211.4 247.8,212.2 268.1,212.9 266.6,228.2 266.4,240.1
		266.5,241.5 269.3,243.9 270.6,244.9 271.4,244.5 271.6,243.3 272.4,244.5 273.7,244.5 273.7,243.6 274.9,244.2 275.6,244.5
		275.4,247.1 278,247.2 279.9,247.9 282.5,248.3 284.1,249.7 285.4,248.3 287.9,248.7 289.3,250.8 290,251 289.9,252.3 291.4,252.8
		292.9,251.5 294.3,251.9 295.8,251.9 296.4,253.5 300.5,254.9 301.5,254.4 302.5,251.6 302.7,251.6 303.3,251.7 304.1,253
		306.7,253.5 308.9,254.2 311.1,255 312.3,254.4 312.8,252.7 315.7,252.7 316.9,253.4 318.7,252 319.4,252 320,253 322.6,253
		323.6,251.7 324.9,252 326.1,253.6 328.4,254.9 330.3,255.4 331.3,255.9 332.9,257.2 334.9,256.4 336.6,257.1 337,261.1 337,267.4
		337.4,273.7 337.9,276 339.6,278.9 340.2,282.1 343,285.8 343.1,287.8 343.6,288.3 343.1,293.8 341.2,297.1 342.2,298.5 341.8,300
		341.4,304.9 340.4,307.1 340.6,309.3 336.9,310.3 330.4,313.3 329.8,314.6 328.1,315.9 326.7,316.8 325.9,317.3 322.2,320.8
		320.4,322.2 316.9,324.3 313.2,325.9 309.1,328.1 308,329.1 304.2,331.4 301.9,331.8 299.4,335.4 296.7,335.6 296.1,336.9
		297.6,338.1 296.6,341.7 295.8,344.7 295,347.2 294.5,350.2 295,351.8 296.2,356.3 296.9,360.3 298,362.1 297.4,363.1 295.4,364.3
		291.7,361.8 288.1,361.1 287.3,361.4 285.1,361 282.4,358.9 279,358.2 274,356 272.7,353.5 271.8,349.2 269.7,347.9 269.3,346.5
		269.7,346.1 269.9,343.8 269.1,343.4 268.6,342.8 269.5,340 268.4,338.5 266.3,337.6 264.1,334.8 261.8,330.4 259,328.8
		259.1,327.5 255.7,319.5 255.1,316.7 253.9,315.5 253.8,314.5 250,311 248.3,309 248.3,308.3 246.6,306.9 242.2,306.1 237.3,305.7
		235.3,304.2 232.3,305.4 230,306.3 228.5,308.5 227.9,310.9 225,314.9 223.4,316.5 221.8,315.9 220.6,315.1 219.3,314.7
		216.8,313.2 216.8,312.8 215.6,311.5 212.2,310.1 207.4,305.1 205.9,302 205.9,296.7 203.8,292.5 203.5,290.7 202.4,290.1
		201.7,288.7 198.4,287.4 197.6,286.3 192.9,281.1 192.1,279 189,277.5 188.1,274.7 186.4,272.8 185.1,272.4 184.7,269.4
		189.9,269.9 208.9,271.6 227.8,272.7 229.3,260 231.8,223.6 232.9,211.4 233.8,211.4 	"/>
	<path fill="#FFFFFF" stroke="#0094FF" stroke-width="1.5" d="M93.9,110.8c4.6,1,62,11.9,62,11.9l5.5-35l-1-0.8l-0.3-1.9l-0.9-1
		l-1.9,0.5l-0.3,2l-1.8,0.2l-2.6-1.1l-2.5,0.1l-1.8,0.5l-1.9-0.9l-1.9-0.1l-1.6,1.5l-0.7-0.7l-0.7-1.8l0.5-2.7l-1.1-1.4l-2.6-2.1
		l-1.8-8.2l0.2-3.5l-1-0.5l-0.5,0.7l-3.2,2l-0.6,0.1l-1.7-2.2l0.1-1.7l4.6-11.3l-0.3-1.4l-2.2-0.8l-0.4-0.8l-2.3-2.9l-2.5-6.3
		l-2.1-0.8l-1.3-3l1-3l-2.3-4.9l2.9-14l-8.9-1.7l-8.9,41.4l1,2.8l2.3,1.7l-0.2,2.5l-2.5,2.8l-2.6,3.8l-0.6,0.5l-0.4,2.1l-0.8,0.7
		l-1.2,0.3l-2.9,3.6l-0.2,2L99.1,79l0.5,0.7l1.7-0.1l0.8,1.5l-1.7,3.9l-0.9,2.7L93.9,110.8L93.9,110.8z"/>
	<polygon fill="#FFFFFF" stroke="#0094FF" stroke-width="1.5" points="125.1,116.7 64.3,103.2 51.9,147.4 97,215.4 98.6,216.1
		99.6,214.8 99.8,209.2 100,205.4 100.2,201 102.1,199.9 102.8,199.9 103.3,200.7 104.9,200.9 105.9,202.7 107.5,202.7 108.5,201.1
		109.7,200.9 125.1,116.7 	"/>
	<polygon fill="#FFFFFF" stroke="#0094FF" stroke-width="1.5" points="94,110.2 99.8,87.4 100.4,84.7 102,81 101.6,80.2 99.9,80.2
		99.1,79.1 99.4,78.1 99.7,76 102.7,72.4 103.8,71.7 104.6,70.9 105.6,68.6 108.2,64.9 110.6,62.4 110.7,60.2 108.5,58.5
		107.4,55.5 99.1,53.1 89.3,50.8 79.2,50.9 78.9,50 75.3,51.4 72.4,51 70.8,49.9 70,50.4 66.9,50.2 65.8,49.3 62.4,48 61.9,48.1
		59,47.1 57.7,48.3 53.7,48.1 49.8,45.4 50.3,44.9 50.4,39.8 48.9,37.2 46.2,36.9 45.8,35.2 44.3,34.9 40.5,36.3 39,40.5 36.9,47
		34.7,51.2 31.5,60.5 27.3,69.3 22,77.6 20.7,79.4 20.2,85.1 20.4,93 94,110.2 	"/>
	<polygon fill="#FFFFFF" stroke="#0094FF" stroke-width="1.5" points="63.5,0.4 66.4,1.4 72.7,3.2 78.3,4.4 91.4,8.1 106.4,11.8
		116.3,13.9 107.4,55.5 99.3,53.2 89.2,50.8 79.2,50.8 78.9,50 75.3,51.4 72.2,50.9 70.9,49.9 70,50.3 66.9,50.2 65.8,49.3 62.4,48
		61.9,48.1 59,47 57.8,48.3 53.7,48.1 49.8,45.4 50.3,44.8 50.4,39.8 48.9,37.2 46.2,36.8 45.8,35.2 44.3,34.9 42,35.7 40.5,33.6
		40.7,31.7 42.5,31.5 43.5,28.8 41.9,28.1 42,25.7 44.8,25.2 43,23.5 42.1,18.8 42.5,16.9 42.5,11.7 41.3,9.6 42.8,3.5 44.2,3.8
		45.8,5.7 47.5,7.4 49.7,8.7 52.7,10.1 54.6,10.5 56.6,11.4 58.8,12.1 60.3,11.9 60.3,10.4 61.1,9.6 62.5,8.8 62.7,9.5 62.9,10.7
		61.4,11 61.2,12.4 62.4,13.3 63.1,14.9 63.5,16.2 64.5,16.1 64.6,15.2 63.9,14.4 63.6,12.3 64.1,11.1 63.7,10.2 63.7,8.7 64.9,6.4
		64.1,4.6 62.6,1.5 62.8,0.9 63.5,0.4 	"/>
	<polygon fill="#FFFFFF" stroke="#0094FF" stroke-width="1.5" points="539.4,118.8 538.7,118.2 536.9,118.1 535.5,116.8
		534.4,112.7 532.1,112.8 530.6,111.1 517.9,113.9 489.8,119.6 484.9,120.4 484.4,116.2 485.3,115.5 486.2,114.7 486.8,113.7
		487.9,112.9 489.2,111.8 489.6,110.7 490.9,108.9 491.6,108.3 491.5,107.6 490.7,105.7 489.6,105.6 488.3,101.5 490.2,100.3
		493,99.4 495.7,98.6 497.8,98.3 501.9,98.2 503.2,99 504.2,99.1 505.6,98.3 507.3,97.5 510.7,97.2 512,96 513.2,93.9 514.3,92.7
		515.6,92.7 516.9,91.9 517,90.4 516,89.1 515.8,88.1 516.6,86.7 516.6,85.8 515.4,85.8 514.3,85.3 513.7,84.5 513.6,82.8
		517.4,79.2 517.9,78.7 518.8,76.8 520.7,73.9 522.5,71.4 523.9,69.8 525.4,68.7 527.5,67.9 531.1,67 533.2,67.1 536.1,66.1
		541.1,64.8 541.4,68.1 543,72.3 543.5,75.6 542.9,78.2 544.6,81.1 545.1,82.5 544.6,84.4 546.5,85.3 546.9,85.5 548.9,92.7
		548.6,95.9 548.2,103 548.8,106.6 549.3,108.9 550.2,113.7 550.2,119 549.5,120.4 550.7,121.8 551.2,122.9 549.9,124 550.2,124.8
		551,124.6 552,123.8 553.4,122.1 554.2,121.7 555.3,122.1 556.7,122.2 561.9,119.7 563.8,117.9 564.6,116.9 567.4,118 565.2,120.3
		562.6,122.2 558,125.7 556.3,126.4 552.5,127.6 549.8,128.3 549.1,128 548.9,125.6 549.2,123.8 549.1,122.4 547.3,121.3
		544.3,120.7 541.8,119.9 539.4,118.8 	"/>
	<polygon fill="#FFFFFF" stroke="#0094FF" stroke-width="1.5" points="538.9,118.6 537.4,120.4 537.4,122.4 536.1,124.4 536,125.4
		536.9,126.3 536.8,127.9 535.3,128.6 535.8,130.4 535.9,131.2 537.7,131.4 538.3,133 540.7,134.7 542.2,135.7 542.2,136.2
		540.3,138 539.3,139.5 538.3,141.2 536.8,142.1 536.5,143.2 536.4,143.9 536,145.6 536.7,147.1 538.8,149 541.9,150.5 544.6,150.9
		544.7,151.9 544.2,152.5 544.4,154.3 544.9,154.3 546.3,152.7 546.8,149.5 548.6,146.9 550.6,142.7 551.4,139.1 551,138.4
		550.9,132.2 549.8,130 549,130.5 547.3,130.8 546.9,130.4 547.7,129.8 549,128.5 549.1,127.8 548.8,125.6 549.2,123.8 549.1,122.5
		547.3,121.3 544,120.6 541.3,119.7 538.9,118.6 	"/>
	<path fill="#FFFFFF" stroke="#0094FF" stroke-width="1.5" d="M545.5,160.4l0.3,3.2l-1.3,2.6l-4.4,1.9l-0.9-0.4l-2.1-2.7l-1.1,0.5
		l-2.5-0.3l-1.7-2.2l0.2-2.2l1.1-0.9l-1.1-1.1l-0.7,1.3l-0.4,0.1l-0.2-2.3l1.4-0.7l-0.3-3.6l-1.2-0.2l-0.2-0.8l0.9-2.4l0.9-1
		l-0.3-0.7l-1.3,1.1l-1.3,0.9c0,0-0.3,0.9-0.3,1.4c0,0.4-1,1.5-1,1.5l0.9,0.9l0.1,1.4l-0.9,3.5l1.4,3.6l1.6,1.4v1.2l1,1.4l-0.6,1.4
		l-1.4-0.2l-2-0.7l-2.8,0.1l-3.3-0.9l-0.4-1.2v-1.4l1.2-1.7l0.5-2.6l0.9-1.6l-1.9-1.3l-1,1.3l-0.7-0.4l-3.6-0.8v-1.9l-2.7-1.1
		l-0.8-1l-1.3-1.2l-1.9-0.9l-1.1-0.8l-1.2,0.3l-1.3,1l-1.7,1.4l-1.9,0.2l-0.8-0.4l-1.2,1.7l-1,1l-1.6,0.4l-1.5,1.7l-1.4,1.6
		l-0.2,0.2l-0.6-3.7l-0.8-3.2l24.4-5l9.7-1.8l4.9-1.1l0.9,2.9l1.7,4l1.3,6l1.2,4.5l3.3-0.1L545.5,160.4L545.5,160.4z"/>
	<path fill="#FFFFFF" stroke="#0094FF" stroke-width="1.5" d="M494.2,151.6l-8.1,1.2l-3,0.5l-2.3-12.9l-0.9,0.8l-0.6,1l0.7,2v3
		l-0.3,3.3l-0.2,3.7l-1.5,2.5l-2,2.2l-1.5,1.1l-1.4-0.4l-0.9,1l-1.5,2.2l-0.7,0.9v1.6l0.8,1.2l-0.3,1.1l-1.2,0.6l-0.4-1.2l-0.8-0.7
		l-0.9,0.4l-0.7,2.5l-0.1,3.3l-1.1,1l-0.1,1.8l-1.3,0.6l-1.4,0.1l0.2,3.4l0.6,1l1.7,1l0.4,1.5l2.8,2.3l1.1,2.4l2,1.3l1.5,2l0.7,0.8
		l2.5,0.6l1.6-0.7l1.5-0.9c0,0,1.5,0.8,1.6,0.8c0.4,0,2.5-0.9,2.5-0.9l1.3-2.9l1.7,0.4l1.9-1.4l1.2,0.4l1.8-2.5l0.2-1.3L491,182
		l3.2-7.1l0.9-2.3l0.5-3.5l0.7-0.4l1.5,1.6l2.6-0.2l0.7-2.6l0.6-2.4l1.7-0.3l0.8-1.8l1.7-1.6l1.8-3.6l0.1-3.4l2.7,1.1l3.8,1.7
		l0.5-3.6l-0.9-0.8l-1.3-1.2l-2.4-1.2l-0.9-0.7l-1.2,0.3l-1.3,1l-1.7,1.4l-1.9,0.3l-0.9-0.5l-1.2,1.7l-1,0.9l-1.7,0.4l-1.5,2
		l-1.4,1.7l-0.7-3.9L494.2,151.6L494.2,151.6z"/>
	<polygon fill="#FFFFFF" stroke="#0094FF" stroke-width="1.5" points="477.3,121.8 473.3,124.4 470.7,125.9 468.6,128.3
		465.9,130.9 463.8,131.4 461.9,131.7 458.3,133.4 456.9,133.5 454.7,131.5 451.3,131.9 449.6,131 448.1,130.1 444.9,130.6
		438.2,131.6 430.9,133 431.8,142.6 432.9,151.6 434.6,166.9 434.9,170 437.7,169.9 439.2,169.4 441.4,170.4 442.8,173.3
		446.1,173.2 447.4,174.6 448.6,174.6 450.2,173.7 451.8,173.9 455.4,174.3 456.5,172.9 458,172 459.4,171.6 459.8,173.4 461,174
		463.2,175.6 464.7,175.5 465.6,175.2 465.7,173.4 466.7,172.4 466.8,169.3 467.4,166.6 468.3,166.2 469.2,167 469.5,168.1
		470.6,167.4 470.9,166.4 470.2,165.2 470.2,163.7 470.7,163 472.1,160.8 472.8,159.8 474.2,160.1 475.6,159.1 477.7,156.9
		479.5,154.2 479.7,150.9 480,147.6 479.9,144.1 479.3,142.3 479.5,141.5 480.6,140.3 479.2,134.4 477.3,121.8 	"/>
	<polygon fill="#FFFFFF" stroke="#0094FF" stroke-width="1.5" points="401.6,191.7 401.6,189.6 402,186.5 403.5,184.7 404.8,182
		406.2,179.4 406,176 404.7,173.6 404.6,171.5 405,168 404.5,163.3 403.8,153 403,143.2 402.3,135.6 402.2,135 401.6,133.3
		400.8,130.9 399.8,129.7 398.8,128 398.7,124.4 368.7,126.1 368.9,127.7 370.4,128.1 371,128.8 371.3,130.1 373.8,132.3
		374.3,133.8 373.8,136 372.6,138.4 372.2,140.1 370.7,141.2 369.5,141.7 366.1,142.6 365.6,143.8 365.1,145.1 365.6,146
		366.8,147.1 366.7,149.8 365.5,150.8 365,151.9 365,153.6 363.8,153.9 362.8,154.7 362.6,155.6 362.8,156.9 361.7,157.8
		360.9,159.6 361.3,162 362.8,166.8 367.5,171.7 371.1,174.1 371,177 371.6,177.8 375.8,178.1 377.5,179 377.1,181.4 375.6,185.3
		375.2,187.4 376.6,190 380.8,193.4 383.8,193.8 385.1,197.1 386.5,199.2 385.9,201.2 387,203.8 388.2,205.2 389.1,204.6
		389.6,203.2 391.1,202.1 392.5,201.7 394.2,202.5 396.6,203.4 397.3,203.2 397.5,201.7 396.6,200.2 396.8,198.6 398,197.7
		400,197.2 400.8,196.9 400.4,196 399.9,194.4 400.9,193.8 401.6,191.7 	"/>
	<polygon fill="#FFFFFF" stroke="#0094FF" stroke-width="1.5" points="567.9,112.3 565.5,102.6 562.4,103.2 548.6,106.3
		549.2,108.4 550.2,113.2 550.3,119 549.5,120.4 550.7,121.7 553.5,119.2 555.9,117 557.1,115.7 557.6,116.1 559.5,115.1
		562.8,114.4 567.9,112.3 	"/>
	<polygon fill="#FFFFFF" stroke="#0094FF" stroke-width="1.5" points="555.8,94.8 551.3,95.6 548.5,96.2 548.1,103.2 548.5,106.3
		562,103.3 565.4,102.6 569.6,101.4 571,102.5 573.2,105.4 575,108.3 576.4,107.7 576.1,106.2 576.6,105.3 578.5,104.3 579,106.3
		578.7,107.5 577.1,108.4 577.1,109.1 578.4,108.1 580.9,105.2 583.4,103.9 586.2,102.9 586,101.4 585.3,99.5 584.1,97.9
		582.9,97.4 581.5,97.5 581.2,97.8 581.8,98.6 582.8,98.1 584.2,99.1 584.7,101 583.5,102.1 582.1,102.7 579.8,102.4 577.2,98.5
		575.7,96.8 574.5,96.8 573.8,97.4 572.6,95.6 572.8,94.7 574.3,91.3 572.5,88.5 570,89.5 568.8,91.3 567.3,91.8 555.8,94.8 	"/>
	<polygon fill="#FFFFFF" stroke="#0094FF" stroke-width="1.5" points="409.5,295.6 408.5,286.9 406.7,274.6 406.8,265.4
		407.4,245.1 407.3,234.2 407.1,230.1 382.7,232.6 382.6,233.3 381.1,234.1 379.2,237.7 379.4,238.8 379.5,239.9 377.7,240.7
		375.3,244.2 375.7,245.8 374.1,247.1 373,251.4 372.7,252.4 373.8,254.1 372.8,255.1 374,257 374.1,259.3 373.2,260.9 373.3,264.8
		374.5,267.5 374.6,268.9 376.1,270.3 375.8,271.5 375,271.9 375.3,273.5 371.9,279.5 369.9,283.2 369.2,288.7 369.8,290.1
		385.8,289.9 391,289.3 392.2,289.2 392.6,289.8 391.9,293.4 394.1,295.5 394.9,298 395.6,299.7 396.3,299.2 398,296.4 399.2,296.9
		403.6,295.7 405,295.9 405.9,296.4 409.3,296.4 409.5,295.6 	"/>
	<polygon fill="#FFFFFF" stroke="#0094FF" stroke-width="1.5" points="328.7,207.4 328.6,183.8 327.7,176.5 326.2,175.4
		324.3,173.3 323,171.1 323.2,169.6 324.5,168.5 324.5,166.5 323.4,165.9 322.1,165.9 320.7,164.5 317.3,164.5 288.4,163.9
		262,163.3 247.6,162.9 245.1,205.1 261.2,205.9 290.3,207.2 320.4,207.5 328.7,207.4 	"/>
	<polygon fill="#FFFFFF" stroke="#0094FF" stroke-width="1.5" points="535.9,142.3 536.8,142.1 538.3,141.3 539.1,139.7
		540.2,138.2 542.3,136.2 542.3,135.6 540.7,134.6 538.3,133 537.7,131.3 535.9,131.1 535.8,130.4 535.3,128.5 536.8,127.8
		536.9,126.3 536.1,125.4 536.2,124.3 537.4,122.3 537.4,120.3 539.2,118.6 538.6,118.2 536.9,118 535.4,116.7 534.4,112.7
		532.1,112.8 530.5,111.1 518.7,113.8 490.6,119.5 484.8,120.4 484.4,116.2 480.9,119.5 480,119.8 477.3,121.8 479.2,134.3
		480.8,140.6 483.2,153.2 485.3,152.8 493.1,151.8 517.9,146.8 527.6,145 533,143.9 533.2,143.8 534.6,142.7 535.9,142.3 	"/>
	<path fill="#FFFFFF" stroke="#0094FF" stroke-width="1.5" d="M535.1,166.3l1.2-0.4l0.5,1.6c0,0,0.5,1.8,0.5,2
		c0,0.3-0.6,0.8-0.6,0.8l-0.8-1.2l-0.1-1.2L535.1,166.3L535.1,166.3z"/>
	<polygon fill="#FFFFFF" stroke="#0094FF" stroke-width="1.5" points="401.6,191.5 403.6,190.4 407.2,189.8 410.1,189.5
		411.1,190.5 412,191 413,189.1 415.2,188.2 416.6,189.2 416.9,189.9 417.6,189.7 417.5,187.7 419.3,186.7 420.9,185.9 421.9,186.9
		424.1,186.9 424.5,185.9 424.3,184.4 426.1,181.8 429.1,179.6 429.5,176.4 431.6,176.1 433.9,175.1 435.6,174 435.5,173.1
		434.7,172 434.9,170.4 434.5,166.7 431.8,142.6 430.8,132.2 427.1,132.5 412.8,134 409.4,134.2 407.6,135.2 406.2,136.4
		405.5,136.7 404.5,136 402.5,135.5 403.2,143.1 404,153.1 404.8,163.6 405.2,168.2 404.6,171.7 404.8,173.8 406,175.7 406.3,179.5
		404.6,182.2 403.5,184.7 402,186.6 401.7,189.6 401.6,191.5 	"/>
	<polygon fill="#FFFFFF" stroke="#0094FF" stroke-width="1.5" points="584.6,108.6 584.3,109.1 586.8,108.9 587.7,108.6 587,107.2
		586.3,107.1 586,108.2 584.6,108.6 	"/>
	<polygon fill="#FFFFFF" stroke="#0094FF" stroke-width="1.5" points="578.5,109.2 579.2,109.8 580.7,109.1 582.2,108.4 581,107.5
		580,107.5 578.5,109.2 	"/>
	<polygon fill="#FFFFFF" stroke="#0094FF" stroke-width="1.5" points="361.7,157.6 360,155.6 359.3,154 317.3,155.6 315.7,155.7
		316.6,157.3 316.4,158.9 318.1,161.4 320.1,164.1 322.1,165.8 323.5,166 324.5,166.6 324.5,168.6 323.3,169.6 323,171.1
		324.4,173.3 326,175.3 327.6,176.5 328.6,184.1 328.8,207.6 328.9,210.7 329.2,214.2 343.8,213.7 359,213.2 372.6,212.7
		380.2,212.6 381.6,214.8 381.2,217 379.2,218.5 378.8,219.7 382.3,220 384.8,219.5 385.9,216 386.4,212.2 387.8,210.5 389.4,209.5
		389.5,207.5 390.2,206.2 389,204.6 388.2,205.2 386.9,203.8 386.1,200.7 386.6,199 385.3,196.8 384.1,193.8 381,193.3 376.4,189.6
		375.3,186.9 375.8,184.8 377.1,180.9 377.4,179 376.2,178.3 371.7,177.8 371,176.7 371,173.9 367.4,171.7 362.8,166.6 361.3,161.8
		361.1,159.1 361.7,157.6 	"/>
	<polygon fill="#FFFFFF" stroke="#0094FF" stroke-width="1.5" points="166.4,198.1 174.4,140.4 169,139.8 158.3,138.7 153.2,138.1
		154.7,129.4 155.7,122.5 125.1,116.8 111.7,190.3 166.4,198.1 	"/>
	<polygon fill="#FFFFFF" stroke="#0094FF" stroke-width="1.5" points="501.5,368.9 503.1,368.5 503.9,368.3 504.8,366.8
		506.4,365.7 507.2,366.1 508.3,366.3 508.6,366.9 506.3,367.7 503.6,368.7 502.1,369.5 501.5,368.9 	"/>
	<polygon fill="#FFFFFF" stroke="#0094FF" stroke-width="1.5" points="510.3,365.6 511.1,366.3 512.9,365 516.4,362.2 518.8,359.6
		520.4,355.3 521,354.2 521.2,352 520.7,352.3 520.1,354.2 519.1,357.2 517,360.6 514.2,363.3 511.9,364.6 510.3,365.6 	"/>
	<polygon fill="#FFFFFF" stroke="#0094FF" stroke-width="1.5" points="545.2,209.5 546.9,207.8 548.9,206.1 549.9,205.7 550,204.4
		549.6,200.4 548.7,198.8 548.2,197.6 548.7,197.5 550.5,201.1 550.7,204 550.6,206.2 548.5,207.2 546.6,208.8 545.8,209.6
		545.2,209.5 	"/>
	<polygon fill="#FFFFFF" stroke="#0094FF" stroke-width="1.5" points="298.5,361.5 298.1,356.9 296.3,352.1 296,347.5 297,342.2
		299.1,337.7 301.4,334.1 303.4,331.8 303.9,332 300.8,336.3 297.9,340.6 296.6,344.9 296.4,348.3 297,352.3 298.6,357 298.9,360.4
		299,361.3 298.5,361.5 	"/>
	<polygon fill="#FFFFFF" stroke="#0094FF" stroke-width="1.5" points="308.1,128.7 308.1,128.4 306.2,125.2 307.4,122.2
		308.4,118.3 306.6,116.9 306.3,115.1 306.8,113.5 308.9,113.5 308.9,110.2 308.6,90.5 308.2,88 305.6,85.9 304.9,84.8 304.9,83.7
		306.2,82.7 307.2,81.6 307.3,79.9 269.3,78.8 233.5,76.6 230,118.2 239.5,118.8 252.6,119.6 264.2,120.2 279.7,121 287.6,120.7
		288.8,122.2 292.2,124.3 292.7,124.8 295.7,123.9 300,123.5 301.1,124.3 303.8,125.4 305.7,126.5 306,127.4 306.6,128.9
		308.1,128.7 	"/>
	<polygon fill="#FFFFFF" stroke="#0094FF" stroke-width="1.5" points="91.5,245.5 89.8,246.9 89.6,247.8 89.9,248.4 102.3,255.4
		110.2,260.4 119.8,266 130.8,272.5 138.8,274.1 155.1,275.9 166.4,198 111.7,190.3 109.6,201 108.6,201 107.5,202.7 105.9,202.6
		105,200.9 103.2,200.6 102.6,199.9 102,199.9 101.4,200.3 100.1,200.9 100.1,205.5 99.9,206.6 99.6,214.8 98.6,216.3 98.2,218.4
		100,221.6 100.8,225.4 101.3,226.1 102,226.5 102,227.9 100.9,228.9 98.7,230 97.4,231.2 96.4,233.7 96,236.9 94.2,238.6
		92.8,239.1 92.9,239.6 92.6,240.7 92.9,241.3 95.3,241.7 94.9,243.4 94,244.8 91.5,245.5 	"/>
	<path id="HI_1_" fill="#FFFFFF" stroke="#0094FF" stroke-width="1.5" d="M148.7,335.1l1.3-2.3l1.5-0.2l0.2,0.5l-1.4,2H148.7
		L148.7,335.1z M155.4,332.6l4,1.7l1.4-0.2l1.1-2.5l-0.4-2.2l-2.7-0.3l-2.6,1.2L155.4,332.6L155.4,332.6z M175.5,339.2l2.4,3.6
		l1.6-0.2l0.7-0.3l1,0.8l2.4-0.1l0.6-1l-1.9-1.2l-1.3-2.4l-1.4-2.3l-3.8,1.9L175.5,339.2L175.5,339.2z M188.7,345l0.8-1.3l3.1,0.6
		l0.4-0.3l4,0.4l-0.2,0.8l-1.7,1l-2.9-0.2L188.7,345L188.7,345z M192.2,348.4l1.3,2.5l2-0.7l0.2-1.1l-1.1-1.4l-2.4-0.2V348.4
		L192.2,348.4z M196.7,347.6l1.5-1.9l3.1,1.6l2.9,0.7l2.9,1.8v1.3l-2.3,1.2l-3.2,0.6l-1.6-1L196.7,347.6L196.7,347.6z M207.6,357.8
		l1.1-0.8l2.2,1.1l5,2.3l2.2,1.4l1.1,1.6l1.3,2.9l2.6,1.7l-0.2,0.8l-2.5,2.1l-2.7,1l-1-0.4l-2,1.2l-1.6,2.1l-1.5,1.9l-1.2-0.1
		l-2.3-1.7l-0.2-3l0.4-1.6l-1.1-3.7l-1.4-1.2l-0.1-1.7l1.5-0.6l1.4-2l0.3-0.6l-1.1-1.2L207.6,357.8L207.6,357.8z"/>
	<path fill="#FFFFFF" stroke="#0094FF" stroke-width="1.5" d="M100.1,291.9l-0.2,55.8l1.1,0.7l2,0.1l1-0.8h1.7l0.1,1.9l4.6,4.4
		l0.3,1.7l2.2-1.3l0.4-0.1l0.2-2l1-1.1l0.8-0.1l1.3-1l2,1.4l0.5,1.9l1.3,0.8l0.7,1.6l2.6,1.2l2.2,3.9l1.8,2.5l1.5,1.8l1,2.4l3.3,1.2
		l3.3,1.4l0.7,2.8l0.3,2l-0.6,2.2l-1.2,1.5l-1.1-0.6l-1-2l-1.8-1l-1.2-0.8l-0.6,0.6l1,1.8l0.1,2.4l-0.8,0.3l-1.3-1.3l-1.4-0.8
		l0.3,1.1l0.9,1.1l-0.5,0.6c0,0-0.6-0.2-0.9-0.7c-0.3-0.4-1.4-2.2-1.4-2.2l-0.7-1.5c0,0-0.2,0.9-0.6,0.7c-0.4-0.2-0.9-1-0.9-1
		l1.2-1.3l-1-1v-3.2h-0.5l-0.6,2.2l-0.7,0.4l-0.7-2.4l-0.4-2.4l-0.5-0.4l0.2,3.7v0.8l-1-0.9l-2.3-3.9l-1.4-0.3l-0.4-2.4l-1.1-1.9
		l-1.1-0.7v-1.5l1.4-0.8l-0.3-0.2l-1.7,0.4l-2.2-1.6l-1.7-1.9l-3.2-1.7l-2.6-1.7l0.9-2.1v-1.1l-1.2,1.1l-1.9,0.7l-2.4-0.7l-3.7-1.6
		h-3.5l-0.5,0.4l-4.2-2.6l-1.4-0.2l-1.8-3.8l-2.3,0.2l-2.3,1l0.4,3l0.7-1.9l0.7,0.2l-1,2.8l2.1-1.8l0.4,1.1l-2.5,2.8l-0.9-0.2
		l-0.3-1.3l-0.9-0.5l-0.8,0.7l-1.8-1.2l-2,1.4l-1.2,1.4l-2.2,1.4l-3.1-0.1l-0.3-1.4L69,350v-0.9l-1.5-0.4l0.6-1.6l1.5-2.5v-1.2
		l0.1-0.6l2.9-1.5l0.6,0.9H75l-0.9-1.7l-2.4-0.2l-3.3,1.8l-1.6,2.2l-1.2,1.7l-0.7,1.5l-2.8,1l-2,1.7l-0.3,1.1l1.5,0.7l0.5,1.4
		l-1.8,2.1l-4.3,2.8l-5.1,2.7l-1.4,0.8l-3.5,0.7l-3.5,1.5l1.2,0.9l-1,1l-0.3,0.8l-1.8-0.7l-2.1,0.1l-0.6,1.5h-0.6l0.2-1.6l-2.3,0.9
		l-1.9,0.6l-2.2-0.8l-1.9,1.3h-2.1l-1.4,0.8l-1.1,0.6l-1.4-0.2l-1.7-0.8l-1.5,0.4l-0.7,0.7l-1.1-0.8v-1.3l2-0.9l4.1,0.5l2.9-1.1
		l1.4-1.4l1.9-0.5l1.2-0.5l1.8,0.1l1.1,0.9l0.6-0.2l1.5-1.8l2-0.6l2.2-0.5l0.9-0.2l0.4,0.3h0.5l0.9-2.4l2.6-0.9l1.3-2.4l1.5-3l1.1-1
		l0.3-1.7l-1.1,0.9l-2.2,0.4l-0.5-1.6l-0.8-0.2l-0.7,0.6l-0.1,1.9l-1-0.1l-0.9-3.8l-0.9,0.9l-0.8-0.3l-0.2-1.3l-2.6,0.1l-1.4,0.7
		l-1.7-0.2l1-0.9l0.3-1.7l-0.4-1.3l1-0.6l0.9-0.2l-0.5-1.1v-2.9l-0.6-0.6l-0.6,0.9h-4l-1-0.8l-0.4-2.5l-1.4-2.3v-0.7l1.4-0.5
		l0.1-1.4l0.8-0.8l-0.6-0.3l-0.9,0.3l-0.7-1.8l0.6-3.3l3-2.1l1.7-1.1l1.3-2.4l1.8-0.8l1.7,0.7l0.2,1.6l1.6-0.3l2.1-1.6l1.1,0.4
		l0.7,0.5h1.1l1.5-0.9l0.5-2.8c0,0,0.2-1.9,0.7-2.2c0.4-0.3,0.6-0.7,0.6-0.7l-0.7-1.3l-1.7,0.6l-2.1,0.5l-1.3-0.3l-2.3-1.2l-3.3-0.1
		l-2.3-2.4l0.3-2.5l0.5-1.6l-1.4-1.1l-1.3-2.4l0.4-0.6l4.4-0.3h1.4l0.7,0.6h0.4l-0.1-1.1l2.5-0.4l1.7,0.2l0.9,0.8l-0.9,1.4l-0.4,1
		l1.8,1.1l3.3,1.2l1.2-0.7l-1.5-2.8l-0.6-2.1l0.6-0.5l-2.2-1.3l-0.4-0.8l0.4-1.1l-0.6-2.5l-1.9-3.1l-1.6-2.7l1.9-1.3H48l1.1,0.5
		l2.8-0.2l2.4-2.3l0.7-2l2.4-1.6l1.1,0.6l1.8-0.4l2.4-1.4l0.7-0.1l0.7,0.5l2.9-0.1l1.8-2h0.7l2.3,1.6l1.3,1.4l-0.3,0.7l0.4,0.8
		l1.1-1.1l2.5,0.2l0.3,2.4l1.3,1l4.6,0.4l4.1,2.8l1-0.7l3.3,1.7l1.4-0.4l1.3-0.5l3.1,1.3L100.1,291.9L100.1,291.9z M24.9,310.8
		l1.4,3.5l-0.1,0.6l-1.9-0.2l-1.2-2.6l-1.2-1h-1.6l-0.1-1.7l1.2-1.6l0.7,1.6l1,0.9L24.9,310.8L24.9,310.8z M23.2,332.7l2.4,0.5
		l2.4,0.7l0.6,0.6l-1.1,2.4l-2-0.1l-2.2-2.3L23.2,332.7L23.2,332.7z M9.7,323.5l0.8,1.7l0.7,1.1l-0.7,0.5l-1.4-2v-1.3H9.7L9.7,323.5
		z M0.7,371.2l2.2-1.5l2.2-0.6l1.7,0.2l0.3,1.1l1.3,0.3l1.3-1.3l-0.2-1.1l1.8-0.4l1.9,1.7l-0.8,1.2l-2.8,0.8l-1.8-0.3l-2.4-0.8
		l-2.8,1l-1.1,0.2L0.7,371.2L0.7,371.2z M32.7,368.2l1.1,1.3l1.4-1.1l-1-0.8L32.7,368.2L32.7,368.2z M34.6,370.3l0.7-1.5l1.4,0.2
		l-0.5,1.3H34.6L34.6,370.3z M50,369l1,1.2l0.7-0.8l-0.6-1.3L50,369L50,369z M55.7,360.9l0.8,3.8l1.9,0.6l3.3-1.9l2.8-1.7l-1.1-1.6
		l0.4-1.6l-1.4,0.9l-1.9-0.6l1.1-0.7l1.3,0.5l2.5-1.2l0.3-1l-1.6-0.5l0.5-1.3l-1.8,1.3l-3.1,2.3l-3.1,1.9L55.7,360.9L55.7,360.9z
		 M83.4,347.8l1.6-0.9l-0.6-1.2l-1.2,0.6L83.4,347.8L83.4,347.8z"/>
	<polygon fill="#FFFFFF" stroke="#0094FF" stroke-width="1.5" points="572.3,88.5 572.9,87.8 573.6,85.7 572,85.1 571.6,83
		569.1,82.3 568.9,80.5 564.1,65.2 561.1,55.7 560.5,55.7 560.1,56.8 559.7,56.5 559,55.8 558.1,57.1 558.1,60.4 558.3,64.1
		559.6,65.9 559.6,68.5 557.1,71.8 555.4,72.6 555.4,73.3 556.2,74.4 556.2,80 555.6,86.1 555.5,89.3 556.2,90.1 556.1,93.1
		555.8,94.2 556.4,94.7 567.4,91.8 568.8,91.4 570,89.6 572.3,88.5 	"/>
	<path fill="#FFFFFF" stroke="#0094FF" stroke-width="1.5" d="M384.5,44.3l-1.5,0.4l-3.5,2.5l-1.4,0.5l-1.2,1.4l1.1,0.8l1.3-0.6
		l2.2-1.3l3.4-3.4L384.5,44.3L384.5,44.3z M391.7,53.6l-3,0.4l-2.8,1.6l-1.5,1.5l-0.8,1.2l-1.2,0.5l-1.3,1.9l-0.1,0.9l-2.9,1.4
		l-1.6,1.3l-3.9,0.6l-0.5,0.5v0.6l-2.3,1.5l-1.8,0.6l-0.5,0.4l2.4,3.4l5.1,0.8l5.4,1.4l1.9,0.7l7.9,1.8l1.4,1.5l2.3,0.9l1.3,6.7
		l0.9,0.7l0.8,0.7L399,82l0.7-2.7l1.3-2.8l0.5-0.1l0.8,1.1h0.4l3-1.6l1,1l0.3,0.1l0.9-0.7l0.7-2l1.6-0.5l4.6-0.5l1.3-1.7l3.4-0.1
		l3.8,0.9h1.2l2.1-1l1.5,0.1l1.4-0.4l2.4,0.3l0.6,0.2l0.8-0.2l-0.8-0.7l-0.9-0.4l-2.1-2v-4.5l-1-0.4l-0.7,0.8l-4,1.1l-1.3,0.3
		l-1.9-0.5l-0.3-0.2v-3.7l-1-0.2l-1.7,0.9l-2.9,1.3l-4.4,0.2l-2.2,0.8l-2.7,2.3l-1,0.6h-0.8l-0.9,0.6l-1.1-0.3l-1-0.9l-1,0.6
		l-2.5,0.1l-1.8-1.8l-1-2l-0.9-0.7l-2.1-0.7h-1.5l-0.9-0.8l-2.3,1.9l-0.6,0.8l-0.6-0.4l0.2-1.7l1.6-2.1l0.3-1.6l1.5-0.5l1-2l2.4-0.7
		l0.2-0.6L391.7,53.6L391.7,53.6z M435.2,68.8l-1.4,0.2l-1.1,0.1l-0.2,0.7l0.6,0.4l0.5,1.6l2.1,0.1l0.8-0.8c0,0-0.1-1-0.3-1.1
		C436.1,69.9,435.2,68.8,435.2,68.8L435.2,68.8z M424.6,74.8l-1.9,1.2l-1.9,1.5l0.2,2.3l0.7,0.2l1.4,0.3l0.3,0.6l-1.7,0.5l-1.7,0.2
		l-1,1.2l-0.2,1.4l0.2,1.1l0.2,3.6l-2.3,1.4l-0.4-0.1v-2.7l0.8-1.6l0.5-1.6l-0.6-0.5l-1.3,0.5l-0.6,2.8l-1.8,0.7l-1.2,1.3l-0.1,0.7
		l0.5,0.5l-0.5,1.7l-1.5,0.3v0.7l0.5,1.6l-0.7,4l-1.1,2.6l0.4,3.1l0.4,0.7l-0.6,1.6l-0.2,0.5l-0.2,1.8l2.3,3.9l1.9,4.2l1,3.2l-0.5,3
		l-0.7,3.9l-1.6,3.4l-0.2,1.8l-2.1,2l2.9-0.2l14-1.5l4.8-0.7l0,1.1l4.5-0.8l6.7-1l2.5-0.3l0.1-0.4l0.1-0.9l1.4-2.4l1.3-1.2l-0.2-3.3
		l1.1-1.1l0.7-0.2l0.2-2.3l1-2l0.7,0.4l0.1,0.4l0.6,0.1l1.3-0.6l-0.2-6.2l-2.1-5.4l-1.5-5.9l-1.6-2.1l-1.7-1.2l-1.1,0.7l-2.5,1.2
		l-1.3,3.3l-1.8,2.4l-0.7,0.4l-1-0.4c0,0-1.7-1-1.6-1.4c0.1-0.5,0.3-3.3,0.3-3.3l2.2-0.9l0.5-2.2l0.5-1.7l1.6-1.1l-0.2-6.5l-1.1-1.5
		l-0.9-0.6l-0.5-1.4l0.5-0.5l1.1,0.2l0.1-1.1l-1.6-1.5l-0.9-1.7H436l-3-0.9l-3.6-2.2h-1.8l-0.4,0.4l-0.7-0.3L424.6,74.8L424.6,74.8z
		"/>
	<path fill="#FFFFFF" stroke="#0094FF" stroke-width="1.5" d="M599.8,46.9l1.3,1.4l1.5,2.4v1.3l-1.4,3l-1.3,0.4l-2.2,2l-3.1,3.6
		h-0.9c-0.4,0-0.7-1.4-0.7-1.4l-1.2,0.1l-0.6,1l-1.6,0.9l-0.7,1l1.1,1l-0.3,0.4l-0.4,1.8l-1.3-0.1v-1.1l-0.2-0.9l-1,0.2l-1.2-2.1
		l-1.4,0.8l0.9,1l0.2,0.8l-0.5,0.8l0.2,2l0.1,1.1l-1.1,1.7l-1.9,0.4l-0.3,1.9l-3.4,2l-0.9,0.3l-1.1-1l-2,2.3l0.7,2.1l-1,0.9
		l-0.1,2.8l-0.8,4.1l-1.6-0.8l-0.4-2l-2.5-0.7l-0.2-1.8l-4.8-15.3l-3-9.6l0.9-0.1l1,0.3v-1.7l0.9-2.9l1.7-3.1l1-2.6l-1.3-1.6v-3.9
		l0.6-0.7l0.5-1.8l-0.1-1l-0.1-3.2l1.2-3.1l1.9-5.8l1.4-2.7h0.9l0.8,0.1v0.7l0.9,1.5l1.8,0.4l0.6-0.6v-0.6l2.6-1.9l1.2-1.2l1,0.2
		l3.9,1.6l1.3,0.6l5.9,19.5h3.9l0.6,1.3l0.1,3.2l1.9,1.5h0.6l0.1-0.3L598,47L599.8,46.9L599.8,46.9z M586.1,66.7l1-1l0.9,0.7
		l0.4,1.6l-1.1,0.6L586.1,66.7L586.1,66.7z M590.5,62.8l1.2,1.2c0,0,0.9,0.1,0.9-0.2c0-0.2,0.2-1.3,0.2-1.3l0.6-0.5l-0.6-1.2
		l-1.3,0.5L590.5,62.8L590.5,62.8z"/>
	<polygon fill="#FFFFFF" stroke="#0094FF" stroke-width="1.5" points="567.9,112.3 565.5,102.6 569.6,101.4 571,102.6 573.2,105.5
		574.9,108.3 573,109.4 572.2,109.3 571.4,110.5 569.8,111.7 567.9,112.3 	"/>
	<polygon fill="#FFFFFF" stroke="#0094FF" stroke-width="1.5" points="536.3,144.6 536.5,143.2 536.8,142.1 535.7,142.4
		534.7,142.7 533.2,143.8 534.3,147.1 535.8,150.8 537.2,157.1 538.2,161.3 541.5,161.2 545.5,160.4 544,155.6 543.4,155.9
		541.1,154.3 539.9,151.2 538.7,148.9 536.6,147.1 536,145.6 536.3,144.6 	"/>
	<path fill="#FFFFFF" stroke="#0094FF" stroke-width="1.5" d="M540.2,169.3l-0.1-1.3l4.2-1.7l-0.5,2.1l-1.9,2.5l-0.3,3l0.3,2.2
		l-1.2,3.2l-1.4,1.3l-1-3l0.3-3.6l1.1-2.7L540.2,169.3L540.2,169.3z M542.4,187.8l-38,8.2l-24.4,3.4l-4.4-0.3l-1.7,1.3l-4.8,0.2
		l-5.5,0.7l-7.1,1.1l6.8-3.7v-1.4l1-1.4l6.9-7.5l2.6,2.9l2.5,0.6l1.7-0.7l1.4-0.9l1.7,0.9l2.6-0.9l1.2-3l1.7,0.4l1.8-1.4l1.2,0.4
		l1.8-2.4l0.3-1.4L491,182l0.7-1.2l3.4-8l0.4-3.7l0.8-0.3l1.4,1.6l2.6-0.2l1.3-5l1.8-0.4l0.7-1.8l1.7-1.6l1.8-3.7l0.1-3.3l6.4,2.5
		c0.5,0.2,0.6-3.3,0.6-3.3l2.4,1l0.1,1.9l3.8,0.9l1.4,0.8l1.1,1.4l-0.5,2.4l-1.3,1.7l0.1,1.4l0.4,1.2l3.3,0.8l2.9,0.1l2,0.6l1.3,0.2
		l0.5,2l2.1,0.3l0.6,0.8l-0.3,3l0.9,0.7l-0.3,1.3l0.8,0.6l-0.2,0.9l-1.8-0.1l0.1,1.1l1.5,1l0.1,0.9l1.2,1.2l0.3,1.7l-1.7,0.9l1,1
		l3.8-1.1L542.4,187.8L542.4,187.8z"/>
	<polygon fill="#FFFFFF" stroke="#0094FF" stroke-width="1.5" points="523.3,159.4 522.1,158.1 521.3,157.7 522.3,156.4
		524.1,157.7 523.3,159.4 	"/>
	<path fill="#FFFFFF" stroke="#0094FF" stroke-width="1.5" d="M452,203.4l-33.9,3.3l-10.3,1.2l-3,0.3h-2.5l-0.1,2.7l-5.4,0.2
		l-4.6,0.5l-5.3-0.1l-1,4.6l-1.1,3.6l-2.2,1.8l-0.9,2.8l-0.3,1.7l-2.6,1.5l1,2.3l-0.6,2.8l-0.7,0.5l70.7-6.8l0.3-2.6l1.2-1l1.8-0.5
		l0.5-2.4l2.7-1.8l2.6-1l2.7-2.3l2.9-1.3l0.4-2l2.6-2.6l0.4-0.1c0,0,0,0.8,0.5,0.8c0.6,0,1.3,0.2,1.3,0.2l1.5-2.3l1.3-0.4l1.5,0.2
		l1-2.3l2-1.7l0.3-1.3l0.2-2.4l-1.4-0.2l-1.7,1.3l-4.6,0.1l-12,1.5L452,203.4L452,203.4z"/>
	<polygon fill="#FFFFFF" stroke="#0094FF" stroke-width="1.5" points="384.8,219.6 382.2,220 378.9,219.6 379.2,218.6 381.1,216.9
		381.7,214.5 380.5,212.6 329.3,214.2 330.3,218.7 330.3,224.1 331.2,231.3 331.4,256 332.9,257.2 334.8,256.4 336.6,257.1
		337.1,261.4 373.4,260.7 374.2,259.3 374,257 372.7,255 373.8,254.1 372.7,252.4 373.2,250.8 374.1,247.1 375.7,245.8 375.3,244.3
		377.7,240.8 379.5,239.9 379.4,238.9 379.2,237.7 381,234.1 382.6,233.3 382.9,231 384,230.2 382,229.9 381.1,227.2 382.9,225.7
		383.3,224.3 384.1,221.7 384.8,219.6 	"/>
	<polygon fill="#FFFFFF" stroke="#0094FF" stroke-width="1.5" points="436.1,227.8 436.1,229.2 436.2,230.6 436.6,232.8 438.8,238
		440.4,244.4 441.4,248.4 442.4,251.6 443.4,256.1 444.8,260.2 446.4,262.5 446.7,264.7 448,265.2 448.1,266.6 446.9,269.7
		446.6,271.9 446.5,273.1 447.6,276 447.8,279.5 447.3,281 447.7,281.6 448.7,282.1 448.8,284.2 450.2,286.4 451.7,287.8
		456.9,287.9 463.9,287.5 478,286.7 481.6,286.2 484.5,286.2 484.7,288.1 486.4,288.7 486.6,285.8 485.5,282.9 486.3,281.8
		490.1,282.3 493.3,282.6 492.8,278.4 494.3,271.9 495.2,269.1 494.9,267.4 497.1,263.4 496.7,262.5 495.5,262.9 493.8,262.1
		493.4,260.7 492.5,258.4 491.1,257 489.4,256.6 488.3,253.4 486.4,249.3 483.7,248 482.3,246.8 481.5,245 480.1,243.8 478.6,242.9
		477.1,241.1 475.1,239.6 472.1,238.4 471.8,237.5 470.3,235.5 469.9,234.6 467.7,231.3 465.4,231.4 463,229.9 462,229.1
		461.8,227.9 462.4,226.6 463.8,225.9 463.4,224.5 436.1,227.8 	"/>
	<path fill="#FFFFFF" stroke="#0094FF" stroke-width="1.5" d="M471.2,188.4l-1.5,1.6l-2.3,2.6l-3.2,3.5l-0.8,1.2l-0.1,1.4l-2.9,1.4
		l-3.7,2.2l-4.7,1.2l-33.9,3.2l-10.3,1.2l-3,0.4l-2.5,0l-0.2,2.8l-5.3,0.1l-4.6,0.4l-5.2-0.1l0.8-0.9l1.6-1l0.2-2.1l0.6-1.2
		l-1.1-1.7l0.5-1.2l1.5-1.2l1.4-0.4l1.8,0.8l2.3,0.9l0.8-0.2l0.1-1.5l-0.9-1.6l0.2-1.5l1.3-1l1.7-0.4l1-0.4l-0.5-1.2l-0.4-1.3l1-0.7
		c0-0.1,0.8-2.3,0.8-2.4l2-1l3.4-0.6l2.9-0.3l0.9,1.1l1,0.6l1-2l2.1-0.9l1.4,1l0.3,0.7l0.8-0.2l-0.2-1.9l2.1-1.2l1.4-0.7l1,1.1
		l2.2-0.1l0.4-1l-0.3-1.5l1.7-2.6l3.1-2.2l0.5-3.2l1.9-0.3l2.5-1.1l1.6-1.1l-0.2-1l-0.8-1l0.4-2l2.7-0.1l1.5-0.5l2.2,1l1.4,2.8h3.3
		l1.4,1.5l1.1-0.1l1.7-0.9l3.4,0.4l1.7,0.2l1.1-1.4l1.7-0.9l1.2-0.5l0.4,1.9l1.4,0.7l1.7,1.4l0.1,3.7l0.6,1l1.7,1l0.5,1.5l2.7,2.2
		l1.2,2.4L471.2,188.4L471.2,188.4z"/>
	<polygon fill="#FFFFFF" stroke="#0094FF" stroke-width="1.5" points="409.3,296.3 408.3,286.9 406.5,274.7 406.7,265.5
		407.2,245.2 407.1,234.3 407.2,230.1 436.3,227.8 436.2,229.2 436.3,230.6 436.7,232.8 438.9,238 440.5,244.4 441.4,248.4
		442.5,251.6 443.4,256.1 444.8,260.2 446.5,262.5 446.8,264.7 448.1,265.2 448.2,266.6 447,269.7 446.7,271.9 446.6,273.1
		447.6,276 447.9,279.5 447.3,281 447.7,281.6 448.7,282.1 448.9,284 445.3,283.8 440.8,284.2 424.2,286.1 417.3,287 417.2,288.9
		418.3,290 420.1,291.3 420.4,296.5 416.8,298.2 415,298 416.8,296.7 416.8,296.1 414.8,292.2 413.3,291.8 412.4,294.6 411.5,296.4
		411.1,296.3 409.3,296.3 	"/>
	<path fill="#FFFFFF" stroke="#0094FF" stroke-width="1.5" d="M394,295.5l-2.1-2.1l0.7-3.6l-0.5-0.6l-6,0.7l-16.3,0.3l-0.5-1.6
		l0.6-5.5l2.1-3.9l3.3-5.7L375,272l0.8-0.5l0.3-1.3l-1.5-1.4l-0.1-1.3l-1.2-2.8l-0.1-4.1l-36.3,0.6l0.1,6.3l0.5,6.1l0.5,2.5l1.6,2.7
		l0.6,3.3l2.8,3.6l0.2,2.1l0.5,0.5l-0.5,5.5l-2,3.3l1.1,1.4l-0.5,1.6l-0.5,4.8l-0.9,2.1l0.1,2.3l3.1-1l7.9,0.1l6.8,2.3l4.2,0.8
		l2.4-1l2.1,0.8l2.1,0.6l0.5-1.4l-2.1-0.7l-1.7,0.3l-1.8-1.1c0,0,0.2-0.9,0.6-1c0.4-0.1,2-0.6,2-0.6l1.2,0.9l1.1-0.6l2.1,0.4l1,1.6
		l0.2,1.5l3,0.2l1.2,1.2l-0.6,1.1l-0.9,0.5l1.1,1.1l5.5,2.3l2.3-0.9l0.6-1.6l1.7-0.4l1.2-1l0.8,0.6l0.6,1.9l-1.5,0.5l0.4,0.5
		l2.2-0.9l1.5-2.2l0.5-0.3l-1.4-0.2l0.6-1.1l-0.1-1l1.4-0.3l0.7-0.9l0.5,0.6c0,0-0.1,2,0.4,2s2.7,0.5,2.7,0.5l2.6,1.3l0.7,0.9h1.9
		l0.7,0.7l1.5-2v-0.9h-0.8l-2.2-1.8l-3.8-0.5l-2.1-1.5l0.8-1.8l1.5,0.2l0.1-0.4l-1.2-0.7v-0.3h2.1l1.2-2l-0.9-1.3l-0.2-1.8l-1,0.1
		l-1.3,1.4l-0.4,1.7l-2-0.4l-0.7-1.2l1.2-1.3l1.3-2.2l-0.7-1.6L394,295.5L394,295.5z"/>
	<polygon fill="#FFFFFF" stroke="#0094FF" stroke-width="1.5" points="368.7,125.9 368.9,127.7 370.4,128.1 371,128.8 371.3,130.1
		373.8,132.3 374.2,133.9 373.8,136.1 372.7,138.2 372.2,140 370.8,141 369.7,141.4 366.1,142.6 365.1,145.1 365.6,146 366.8,147.1
		366.6,149.7 365.5,150.8 364.9,151.8 365,153.6 363.8,153.9 362.8,154.7 362.6,155.6 362.8,156.9 361.8,157.6 360.1,155.6
		359.3,154 316.4,155.7 315.7,155.8 314.4,152.8 314.3,148.5 313.2,145.8 312.8,142.4 311.3,140 310.7,136.8 308.9,131.9
		308.2,128.4 307.2,127 306.2,125.2 307.5,122 308.4,118.3 306.6,116.9 306.3,115.1 306.9,113.5 308,113.5 362,112.7 362.6,115.4
		364,116.4 364.2,117.4 362.9,119.6 363,121.7 364.6,124.1 366.3,125 368.3,125.3 368.7,125.9 	"/>
	<polygon fill="#FFFFFF" stroke="#0094FF" stroke-width="1.5" points="307.3,79.6 307,74.1 305.8,69.3 304.7,60.5 304.4,54.1
		303.1,51.9 302.1,48.6 302.1,41.8 302.5,39.3 301.4,35.7 321.1,35.8 321.3,30.3 321.7,30.2 323.2,30.6 324.5,31.1 325,34.7
		325.9,38.7 327,39.8 330.1,39.8 330.3,40.7 334.5,40.9 334.5,42.3 337.6,42.3 337.9,41.5 338.6,40.7 340,40.3 340.9,40.9
		342.8,40.9 345.4,42.6 348.9,44.2 350.4,44.5 350.7,43.9 351.7,43.6 352,45.5 353.7,46.3 354,46 354.9,46.1 354.9,47.5 356.5,48.1
		358.6,48.1 359.6,47.6 361.7,45.5 363.4,45.2 363.9,46.3 364.2,47.1 364.9,47.1 365.5,46.6 371.3,46.4 372.5,48.4 372.9,48.4
		373.4,47.7 376.3,47.5 375.9,49 373.3,50.2 367.3,52.8 364.1,54.1 362.2,55.8 360.5,58.1 359.1,60.7 357.9,61.2 355,64.5
		354.1,64.6 351.3,66.4 349.7,68.5 349.5,70.6 349.6,75.8 348.7,76.9 345.4,79.4 343.9,83.3 345.8,84.8 346.2,86.9 345,89
		345.2,91.4 345.4,95.8 347.3,97.8 349.5,97.8 350.8,99.8 352.9,100.1 355.5,103.9 360.1,106.6 361.5,108.4 362,112.6 308.9,113.4
		308.7,90.1 308.4,88.1 305.7,85.9 305,84.7 305,83.6 306.3,82.6 307.2,81.7 307.3,79.6 	"/>
	<polygon fill="#FFFFFF" stroke="#0094FF" stroke-width="1.5" points="245.3,205.1 234.4,204.3 233.9,211.4 247.2,212.2 268.2,213
		266.7,229 266.4,240.6 266.5,241.7 269.3,244 270.7,244.8 271.1,244.6 271.6,243.3 272.5,244.5 273.8,244.5 273.8,243.6
		275.6,244.5 275.3,247 278,247.2 279.7,247.9 282.3,248.4 284,249.6 285.5,248.2 287.7,248.7 289.3,250.9 289.9,250.9 289.9,252.4
		291.5,252.8 292.9,251.4 294.1,251.8 295.8,251.8 296.4,253.5 300.5,254.8 301.4,254.4 302.6,251.7 303.3,251.7 304.1,253
		306.7,253.5 309.2,254.4 311.1,255 312.3,254.4 312.8,252.7 315.6,252.7 316.9,253.4 318.7,252 319.4,252 319.9,253 322.6,253
		323.6,251.7 324.9,252 326.2,253.6 328.3,254.8 330.4,255.4 331.6,256.1 331.4,231.8 330.5,224.7 330.4,218.9 329.4,214.6
		328.9,209.9 328.9,207.4 321,207.6 290.6,207.3 261.2,206 245.3,205.1 	"/>
	<path fill="#FFFFFF" stroke="#0094FF" stroke-width="1.5" d="M233,211.4l14.8,0.7l20.3,0.8l-1.5,15.3l-0.2,11.8l0.1,1.4l2.8,2.5
		l1.3,1l0.8-0.4l0.3-1.2l0.8,1.2l1.4,0.1v-1l1.1,0.7l0.7,0.3l-0.2,2.6l2.6,0.1l1.9,0.8l2.6,0.4l1.6,1.4l1.4-1.4l2.4,0.4l1.5,2.1
		l0.7,0.3l-0.1,1.3l1.5,0.5l1.5-1.3l1.4,0.4h1.5l0.6,1.6l4.1,1.4l1-0.5l1-2.7h0.3l0.6,0.1l0.8,1.4l2.6,0.4l2.2,0.8l2.2,0.8l1.2-0.6
		l0.5-1.7l2.9,0.1l1.2,0.6l1.8-1.4h0.8l0.6,1.1h2.6l1-1.3l1.2,0.3l1.3,1.6l2.3,1.3l1.9,0.6l1,0.5l1.6,1.3l2-0.9l1.7,0.7l0.4,4
		l-0.1,6.3l0.5,6.3l0.5,2.3l1.8,2.9l0.6,3.2l2.8,3.6l0.1,2l0.5,0.5l-0.5,5.5l-1.9,3.3l1,1.4l-0.4,1.5l-0.5,4.9l-1,2.2l0.2,2.3
		l-3.7,1l-6.4,3l-0.6,1.3l-1.7,1.3l-1.4,1l-0.9,0.5l-3.7,3.5l-1.8,1.4l-3.5,2.1l-3.7,1.6l-4.1,2.2l-1.2,1l-3.8,2.3l-2.2,0.4
		l-2.5,3.6l-2.7,0.2l-0.6,1.3l1.5,1.3l-1,3.6l-0.8,3l-0.8,2.5l-0.5,2.9l0.5,1.6l1.2,4.5l0.7,4.1l1.1,1.8l-0.6,1l-2,1.3l-3.7-2.5
		l-3.6-0.8l-0.8,0.3l-2.1-0.4l-2.7-2l-3.4-0.7l-5-2.2l-1.4-2.5l-0.9-4.3l-2.1-1.3l-0.4-1.5l0.4-0.4l0.2-2.2l-0.8-0.4l-0.5-0.7
		l0.9-2.8l-1.1-1.5l-2.1-0.9l-2.2-2.8l-2.3-4.4l-2.8-1.7l0.1-1.3l-3.4-8l-0.6-2.7l-1.2-1.3l-0.1-1L250,311l-1.7-2v-0.7l-1.7-1.4
		l-4.4-0.8l-4.9-0.4l-2-1.5l-3,1.2l-2.3,1l-1.5,2.1l-0.6,2.4l-2.9,4l-1.6,1.6l-1.7-0.6l-1.2-0.8l-1.3-0.4l-2.5-1.5v-0.5l-1.2-1.3
		l-3.4-1.4l-4.9-5.1l-1.5-3v-5.3l-2.1-4.2l-0.3-1.8l-1.1-0.6l-0.8-1.4l-3.2-1.4l-0.9-1.1l-4.7-5.2l-0.9-2.1l-3-1.5l-1-2.8l-1.7-1.9
		l-1.3-0.4l-0.5-3l5.2,0.5l19,1.8l19,1.1l1.5-12.7l2.5-36.3l1.1-12.2l0.9,0.1 M298.5,361.5l-0.4-4.7l-1.8-4.7l-0.4-4.6l1-5.4
		l2.1-4.5l2.3-3.5l2.1-2.3l0.4,0.1l-3.1,4.4l-2.9,4.3l-1.3,4.4l-0.2,3.4l0.6,4l1.7,4.7l0.3,3.4l0.1,0.9L298.5,361.5L298.5,361.5z"/>
	<polygon fill="#FFFFFF" stroke="#0094FF" stroke-width="1.5" points="185.1,272.5 184.6,269.4 190.2,269.7 210,271.7 227.8,272.8
		229.2,260.5 231.7,224 232.9,211.4 233.9,211.4 234.4,204.2 166.5,197.2 155.1,275.9 165.2,277.2 166,270.7 185.1,272.5 	"/>
	<polygon fill="#FFFFFF" stroke="#0094FF" stroke-width="1.5" points="314.4,152.7 316.6,157.3 316.5,158.8 318.7,162.4
		320.5,164.5 317.2,164.5 288.8,163.9 262.1,163.3 247.6,162.8 248.3,148.8 227.2,146.9 230,118.2 240.2,118.8 253.3,119.6
		265,120.3 280.5,121.1 287.5,120.8 288.9,122.3 292,124.2 292.8,124.8 295.6,123.9 298.1,123.6 299.9,123.5 301.1,124.3
		303.8,125.4 305.7,126.5 306,127.5 306.6,128.8 307.8,128.8 308.3,128.9 308.9,131.9 310.8,137.4 311.2,139.9 312.9,142.4
		313.2,145.7 314.3,148.5 314.4,152.7 	"/>
	<polygon fill="#FFFFFF" stroke="#0094FF" stroke-width="1.5" points="307.4,79.7 307,74.2 305.9,69.7 304.7,61.2 304.4,54
		303.2,52 302.1,48.6 302.1,41.8 302.5,39.3 301.3,35.8 282.6,35.4 270.4,35 253.1,34.1 238.1,32.7 233.6,76.6 269.4,78.8
		307.4,79.7 	"/>
	<polygon fill="#FFFFFF" stroke="#0094FF" stroke-width="1.5" points="232.3,89.1 162.5,80.3 153.3,138.1 227.3,147 232.3,89.1 	"/>
	<polygon fill="#FFFFFF" stroke="#0094FF" stroke-width="1.5" points="238.1,32.7 218,30.9 198.9,28.5 179.8,25.9 158.6,22.4
		146.6,20.2 125.2,15.7 122.3,29.6 124.5,34.5 123.7,37.5 124.8,40.5 127,41.4 129.9,48.4 131.7,50.5 132,51.2 134.2,52 134.6,53.3
		129.9,64.9 129.9,66.5 131.6,68.6 132.2,68.6 135.3,66.6 135.8,65.9 136.8,66.3 136.6,69.8 138.4,78 140.4,79.6 141,80.1
		142.2,81.6 141.9,83.8 142.3,86.1 143.1,86.7 144.6,85.2 146.3,85.2 148.5,86.2 150.1,85.6 152.8,85.6 155.2,86.7 157,86.4
		157.3,84.4 159.2,83.9 160.1,84.9 160.4,86.9 161.3,87.5 162.5,80.3 232.3,89.1 238.1,32.7 	"/>
	<polygon fill="#FFFFFF" stroke="#0094FF" stroke-width="1.5" points="245.1,205.2 248.3,148.8 174.2,140.5 166.3,198 245.1,205.2
		"/>
	<path fill="#FFFFFF" stroke="#0094FF" stroke-width="1.5" d="M91.4,245.2l2.6-0.4l1-1.3l0.4-1.9l-2.3-0.4l-0.4-0.5l0.3-1.3
		l-0.1-0.4l1.3-0.4l2-1.8l0.4-3.3l0.9-2.2l1.3-1.4l2.3-1l1.1-1.1l0.1-1.4l-0.7-0.4l-0.7-0.7l-0.8-3.8l-1.8-3.1l0.4-2.3l-1.6-0.7
		l-45.1-68.1l12.4-44.1L20.4,93l-1,3.1l-0.1,4.9l-3.4,7.7l-2,1.7l-0.3,0.7l-1.2,0.6l-0.9,2.7l-0.6,2.1l1.8,2.7l1.1,2.7l0.7,2.3
		l-0.2,4.3l-1.2,2l-0.4,3.8l-0.7,2.4l1.2,2.6l1.8,2.9l1.5,3.2l0.9,2.6l-0.3,2.1l-0.2,0.3v1.4l3.7,4.1l-0.3,1.6l-0.4,1.5l-0.5,1.3
		l0.1,5.4l1.4,2.4l1.3,1.7l1.8,0.3l0.7,1.8l-0.8,2.3l-1.4,1.1h-0.8l-0.5,2.5l0.3,1.9l2.1,2.8l1.1,3.5l0.9,3.1l0.9,2l2.2,3.8l1,1.7
		l0.3,1.9l1.1,0.7v1.6l-0.6,1.3l-1.2,4.7l-0.3,1.3l1.6,1.8l2.7,0.3l2.9,1.2l2.5,1.4H41l1.9,2l1.7,3.1l0.7,1.5l2.6,1.4l3.1,0.6l1,1.4
		l0.4,2.1l-1,0.4l0.3,0.7l2.1,0.5l1.8,0.1l2.1-1.1l2.5,2.8l0.5,1.5l1.7,2.7l0.2,2.1v6.1l0.3,1.2l6.5,1l12.9,1.8L91.4,245.2
		L91.4,245.2z M33.8,216.6l0.9,1l-0.1,0.9l-2.1,0l-0.4-0.8l-0.5-1L33.8,216.6L33.8,216.6z M35,216.6l0.8-0.4l2.3,1.4l2,0.8l-0.6,0.4
		l-3-0.2l-1.1-1.1L35,216.6L35,216.6z M48.6,229.6l1.2,1.5l0.6,0.7l1,0.4l0.4-1L51,230l-1.7-1.3l-0.7,0.1V229.6L48.6,229.6z
		 M47.6,235.2l1.2,2.1l0.8,1.3l-1,0.2l-0.9-0.8c0,0-0.5-1-0.5-1.2v-1.4L47.6,235.2L47.6,235.2z"/>

		<path id="WI_1_" inkscape:connector-curvature="0" sodipodi:nodetypes="ccccccccccccccccccccccccccccccccccccccccccccccccccccccccccccccccccccccccccccccccccccccccc" fill="#FFFFFF" stroke="#0094FF" stroke-width="1.5" d="
		M398.5,124.4l0-2.1l-0.8-2.9l-0.4-4l-0.7-1.6l0.6-2l0.5-1.9l0.9-1.7l-0.4-2.2l-0.4-2.3l0.3-1.2l1.3-1.6l0.1-1.8l-0.5-0.8l0.4-1.7
		l-0.3-2.7l1.8-3.7l1.9-4.4l0.1-1.5l-0.2-0.6l-0.5,0.3l-2.7,4.1l-1.8,2.6l-1.3,1.2l-0.5,1.5l-1.3,0.5l-0.7,1.3l-0.9-0.2l-0.1-1.2
		l0.8-1.6l1.4-3l1.2-1.1l0.6-1.5l-1.7-1.2l-1.3-6.7l-2.3-0.9l-1.3-1.5l-7.9-1.8l-1.9-0.7l-5.3-1.4l-5.1-0.8l-2.5-3.3l-0.5,0.4
		l-0.8-0.1l-0.4-0.7l-0.9,0.2l-0.7,0.1l-1.2,0.6l-0.6-0.4l0.4-1.3l1.3-2l0.7-0.7l-1.3-0.9l-1.4,0.5l-1.9,1.3l-4.8,2.1l-1.9,0.4
		l-1.9-0.3l-0.6-0.6l-1.4,1.8l-0.1,1.8V76l-0.7,1l-3.4,2.5l-1.5,3.9l0.3,0.1l1.6,1.3l0.4,2.1l-1.2,2.1v2.5l0.3,4.3l1.9,1.9h2.2
		l1.2,2.1l2.2,0.3l2.5,3.7l4.6,2.7l1.3,1.8l0.6,4.8l0.4,2.2l1.5,1l0.1,0.9l-1.3,2.2l0.1,2.1l1.6,2.5l1.6,0.7l1.9,0.3l0.9,0.9
		L398.5,124.4L398.5,124.4z"/>
</g>
</svg>
