<?xml version="1.0" encoding="utf-8"?>
<!-- Generator: Adobe Illustrator 16.0.0, SVG Export Plug-In . SVG Version: 6.00 Build 0)  -->
<!DOCTYPE svg PUBLIC "-//W3C//DTD SVG 1.1//EN" "http://www.w3.org/Graphics/SVG/1.1/DTD/svg11.dtd">
<svg version="1.1" id="Layer_2" xmlns="http://www.w3.org/2000/svg" xmlns:xlink="http://www.w3.org/1999/xlink" x="0px" y="0px"
	 width="800px" height="440px" viewBox="0 0 800 440" enable-background="new 0 0 800 440" xml:space="preserve">
<path fill="#FFFFFF" d="M508.183,130.103c-3.626,0-4.685,3.758-4.685,7.057v1.383h9.3
	C512.599,133.134,511.94,130.103,508.183,130.103z"/>
<path fill="#FFFFFF" d="M443.828,193.271c3.755,0,5.208-2.506,5.208-8.835c-0.064-5.343-0.791-9.231-5.208-9.231
	c-4.617,0-5.146,3.957-5.146,9.231C438.682,190.766,440.137,193.271,443.828,193.271z"/>
<path fill="#FFFFFF" d="M357.366,263.771v59.763c2.022,0.461,4.062,0.879,6.113,1.263v-59.7l5.66,1.279v59.394
	c1.905,0.288,3.825,0.534,5.752,0.756v-58.964l5.844,1.277v58.263c1.938,0.155,3.886,0.271,5.841,0.356v-57.339l5.84,1.274v56.217
	c0.487,0.004,0.973,0.019,1.46,0.019c1.466,0,2.927-0.021,4.384-0.061v-54.895l5.843,1.282v53.346
	c1.956-0.121,3.903-0.271,5.841-0.458v-51.618l5.841,1.193v49.745c1.99-0.267,3.969-0.569,5.938-0.906V277.69l5.837,1.279v45.18
	c1.932-0.405,3.85-0.848,5.754-1.318v-42.583l5.841,1.193v39.834c1.932-0.554,3.846-1.15,5.746-1.773v-36.787l5.851,1.273v33.478
	c2.025-0.752,4.033-1.543,6.019-2.372v-29.828l5.85,1.288v25.963c1.934-0.897,3.853-1.819,5.745-2.788v-21.905l5.844,1.192v17.557
	c1.974-1.115,3.921-2.27,5.843-3.464v-12.82l5.841,1.28v7.746c4.762-3.244,9.34-6.737,13.726-10.454l-151.015-32.575l-21.176,8.398
	l-27.021-4.285l-29.749,11.253c1.392,1.592,2.813,3.156,4.264,4.693l22.653-8.826v28.767c1.887,1.376,3.803,2.714,5.751,4.011
	v-32.777l20.447,3.193v41.169c2.402,1.14,4.838,2.225,7.304,3.251v-45.336l14.605-5.381v55.994c1.932,0.595,3.883,1.147,5.844,1.672
	V262.5L357.366,263.771z"/>
<path fill="#FFFFFF" d="M327.426,254.644l21.176-8.855l158.606,36.226c0.607-0.582,1.205-1.167,1.803-1.758l-160.363-38.799
	c-1.1,1.103-21.222,8.348-21.222,8.348l-27.021-5.205l-39.583,14.649c1.023,1.428,2.073,2.833,3.141,4.226l36.535-13.393
	L327.426,254.644z"/>
<polygon fill="#FFFFFF" points="30.557,327.592 47.455,327.592 47.455,245.519 78.143,245.519 78.143,231.008 0,231.008 0,245.519 
	30.557,245.519 "/>
<path fill="#FFFFFF" d="M112.604,231.008h-17.98L57.59,327.592h17.434l9.057-25.521h38.522l9.059,25.521h16.553l0.998-1.462
	L112.604,231.008z M88.676,289.304l14.596-41.624h0.271h0.134l14.467,41.624H88.676z"/>
<polygon fill="#FFFFFF" points="167.542,327.592 192.008,290.663 216.072,327.592 236.625,327.592 202.422,277.539 234.325,231.008 
	215.397,231.008 192.555,265.096 170.65,231.008 150.506,231.008 182.413,277.539 149.213,326.13 149.776,327.592 "/>
<polygon fill="#FFFFFF" points="149.776,327.592 149.213,326.13 148.215,327.592 "/>
<polygon fill="#FFFFFF" points="9.211,437.427 26.113,437.427 26.113,394.506 69.777,394.506 69.777,380.681 26.113,380.681 
	26.113,355.354 75.861,355.354 75.861,340.842 9.211,340.842 "/>
<path fill="#FFFFFF" d="M122.276,338.658c-28.988,0-46.29,22.982-46.29,50.474c0,27.494,17.302,50.479,46.29,50.479
	c28.99,0,46.295-22.985,46.295-50.479C168.571,361.641,151.266,338.658,122.276,338.658z M122.276,425.789
	c-20.722,0-29.392-18.192-29.392-36.657c0-18.462,8.67-36.654,29.392-36.654c20.727,0,29.395,18.192,29.395,36.654
	C151.67,407.597,143.002,425.789,122.276,425.789z"/>
<path fill="#FFFFFF" d="M237.057,397.112c0,12.983-0.809,28-22.681,28c-21.876,0-22.681-15.017-22.681-28v-56.271h-16.905v61.81
	c0,24.738,15.819,36.978,39.586,36.978c23.766,0,39.584-12.239,39.584-36.978v-61.81h-16.904V397.112z"/>
<polygon fill="#FFFFFF" points="326.747,411.996 326.477,411.996 282.518,340.842 264.698,340.842 264.698,437.427 280.765,437.427 
	280.765,366.409 281.169,366.409 324.995,437.427 342.807,437.427 342.807,340.842 326.747,340.842 "/>
<path fill="#FFFFFF" d="M397.529,340.863h-39.951v96.548l39.951,0.001c29.667,0,42.52-21.661,42.52-48.28
	C440.049,362.518,427.196,340.863,397.529,340.863z M391.057,423.594h-16.582V354.68h16.582c26.424,0,32.088,15.131,32.088,34.452
	C423.145,408.46,417.48,423.594,391.057,423.594z"/>
<path fill="#FFFFFF" d="M475.566,340.842l-37.035,96.585h17.434l9.055-25.521h38.527l9.058,25.521h18.117l-37.176-96.585H475.566z
	 M469.62,399.146l14.597-41.628h0.268h0.133l14.469,41.628H469.62z"/>
<polygon fill="#FFFFFF" points="514.509,355.354 545.055,355.354 545.055,437.427 561.959,437.427 561.959,355.354 592.644,355.354 
	592.644,340.842 514.509,340.842 "/>
<rect x="598.473" y="340.842" fill="#FFFFFF" width="16.894" height="96.585"/>
<path fill="#FFFFFF" d="M668.948,338.658c-28.985,0-46.294,22.982-46.294,50.474c0,27.494,17.309,50.479,46.294,50.479
	c28.997,0,46.297-22.985,46.297-50.479C715.245,361.641,697.945,338.658,668.948,338.658z M668.948,425.789
	c-20.723,0-29.388-18.192-29.388-36.657c0-18.461,8.665-36.653,29.388-36.653c20.736,0,29.394,18.192,29.394,36.653
	C698.342,407.597,689.685,425.789,668.948,425.789z"/>
<polygon fill="#FFFFFF" points="783.934,340.843 783.934,411.996 783.674,411.996 739.699,340.843 721.887,340.843 721.887,437.427 
	737.953,437.427 737.953,366.409 738.355,366.409 782.182,437.427 800,437.427 800,340.843 "/>
<path fill="#FFFFFF" d="M298.215,186.684c-0.66,0-1.192,0.527-1.192,1.184v10.726c0,0.655,0.532,1.19,1.192,1.19
	c0.653,0,1.186-0.535,1.186-1.19v-10.726C299.401,187.211,298.868,186.684,298.215,186.684z"/>
<path fill="#FFFFFF" d="M306.974,184.93c-0.653,0-1.186,0.526-1.186,1.183v10.727c0,0.65,0.532,1.184,1.186,1.184
	c0.659,0,1.188-0.533,1.188-1.184v-10.727C308.161,185.456,307.633,184.93,306.974,184.93z"/>
<path fill="#FFFFFF" d="M315.651,183.649c-0.66,0-1.191,0.527-1.191,1.184v10.725c0,0.656,0.532,1.19,1.191,1.19
	c0.654,0,1.186-0.534,1.186-1.19v-10.725C316.836,184.177,316.305,183.649,315.651,183.649z"/>
<path fill="#FFFFFF" d="M324.501,182.916c-0.653,0-1.185,0.532-1.185,1.188v10.728c0,0.655,0.532,1.19,1.185,1.19
	c0.658,0,1.186-0.535,1.186-1.19v-10.728C325.687,183.448,325.159,182.916,324.501,182.916z"/>
<path fill="#FFFFFF" d="M332.809,182.83c-0.657,0-1.186,0.527-1.186,1.185v10.721c0,0.655,0.528,1.188,1.186,1.188
	c0.656,0,1.188-0.533,1.188-1.188v-10.721C333.997,183.357,333.464,182.83,332.809,182.83z"/>
<path fill="#FFFFFF" d="M340.933,183.468c-0.656,0-1.188,0.529-1.188,1.183v10.727c0,0.655,0.532,1.189,1.188,1.189
	c0.657,0,1.189-0.534,1.189-1.189V184.65C342.122,183.997,341.59,183.468,340.933,183.468z"/>
<path fill="#FFFFFF" d="M290.998,188.764c-0.649,0-1.185,0.521-1.185,1.183v10.724c0,0.652,0.536,1.188,1.185,1.188
	c0.657,0,1.193-0.535,1.193-1.188v-10.724C292.191,189.285,291.655,188.764,290.998,188.764z"/>
<path fill="#FFFFFF" d="M284.249,192.658c-0.581,0-1.049,0.474-1.049,1.056v9.398c0,0.576,0.468,1.051,1.049,1.051
	c0.576,0,1.043-0.475,1.043-1.051v-9.398C285.292,193.132,284.825,192.658,284.249,192.658z"/>
<path fill="#FFFFFF" d="M278.36,196.45c-0.583,0-1.052,0.469-1.052,1.05v8.127c0,0.576,0.469,1.05,1.052,1.05
	c0.581,0,1.05-0.474,1.05-1.05V197.5C279.41,196.919,278.941,196.45,278.36,196.45z"/>
<path fill="#FFFFFF" d="M322.083,243.705c8.904,0.017,12.563,2.361,12.609-0.153c0.035-1.865-4.258-2.867-12.789-2.702
	c-10.73,0.192-11.914,1.02-11.879,3.25C310.045,245.703,312.452,243.688,322.083,243.705z"/>
<path fill="#FFFFFF" d="M332.535,153.959c-0.554,0-1,0.445-1,1.003v1.916c0,0.555,0.446,1.004,1,1.004
	c0.557,0,1.004-0.449,1.004-1.004v-1.916C333.539,154.404,333.092,153.959,332.535,153.959z"/>
<path fill="#FFFFFF" d="M325.233,153.912c-0.555,0-1.004,0.448-1.004,1.004v1.915c0,0.559,0.45,1.007,1.004,1.007
	c0.552,0,1.007-0.448,1.007-1.007v-1.915C326.24,154.36,325.785,153.912,325.233,153.912z"/>
<path fill="#FFFFFF" d="M317.837,154.369c-0.554,0-1.001,0.45-1.001,1.007v1.912c0,0.556,0.447,1.004,1.001,1.004
	s1.008-0.448,1.008-1.004v-1.912C318.845,154.819,318.391,154.369,317.837,154.369z"/>
<path fill="#FFFFFF" d="M310.628,155.466c-0.553,0-1.001,0.449-1.001,1.003v1.917c0,0.554,0.448,1.003,1.001,1.003
	c0.553,0,1.003-0.449,1.003-1.003v-1.917C311.631,155.915,311.181,155.466,310.628,155.466z"/>
<path fill="#FFFFFF" d="M303.69,157.382c-0.557,0-1.004,0.45-1.004,1.004v1.369c0,0.554,0.447,1.005,1.004,1.005
	c0.554,0,1.004-0.451,1.004-1.005v-1.369C304.694,157.832,304.244,157.382,303.69,157.382z"/>
<path fill="#FFFFFF" d="M297.393,159.479c-0.555,0-1.008,0.451-1.008,1.009v0.727c0,0.555,0.454,1.005,1.008,1.005
	c0.554,0,1.005-0.45,1.005-1.005v-0.727C298.397,159.93,297.946,159.479,297.393,159.479z"/>
<path fill="#FFFFFF" d="M291.729,161.899c-0.554,0-1.002,0.451-1.002,1.005v0.731c0,0.554,0.448,1.005,1.002,1.005
	c0.556,0,1.008-0.451,1.008-1.005v-0.731C292.737,162.351,292.286,161.899,291.729,161.899z"/>
<path fill="#FFFFFF" d="M393.876,0.371c-90.366,0-163.629,73.261-163.629,163.628c0,34.096,10.434,65.754,28.277,91.964l4.726-2.141
	v-17.804c0-3.009,3.286-3.374,3.286-1.459c0,0,0,11.872,0,14.06c0,3.286,3.194,4.107,3.194,0.729c0-2.097,0-20.176,0-20.265
	c0-3.282,4.387-3.743,4.387-1.73c0,4.199,0,17.156,0,19.537c0,2.37,3.373,2.004,3.373,0c0-2.014,0-22.825,0-22.644
	c0-2.644,5.298-3.287,5.298-1.278c0,0,0,17.711,0,20.721c0,2.645,3.101,2.56,3.101,0c0-2.282,0-22.632,0-22.729
	c0-2.101,7.303-3.374,7.303-0.91c0,0.182,0,16.885,0,19.902c0,3.008,3.285,2.463,3.285,0.181c0-2.28,0-18.894,0-21.181
	c0-2.372,1.941-3.49,3.47-2.623c2.371,1.343,3.287-0.114,3.468,2.257c0.238,3.097,0,17.352,0,19.353c0,2.28,3.288,2.098,3.288-0.183
	c0-1.273,0-20.632,0-21.634c0-0.55,4.292-2.098,4.648-0.15c0.306,1.663,3.748,0.517,3.748,2.433c0,2.471,0,17.166,0,18.26
	c0,2.007,3.196,2.007,3.196,0c0-1.191,0-19.989,0-21.457c0-1.638,4.748-1.092,4.744,1.031c0,1.755,4.066,0.497,4.109,1.71
	c0.093,2.555,0,17.068,0,18.808c0,2.098,3.197,2.005,3.197,0c0-1.647,0-20.45,0-21.641c0-1.091,3.74-2.008,4.188,0.103
	c0.4,1.901,4.119,1.137,4.119,3.277c0,4.109,0,15.522,0,18.532c0,2.374,3.193,1.733,3.193-0.545c0-2.283,0-16.616,0-19.358
	c0-1.372,3.6-1.959,4.564-0.352c1.37,2.27,3.744,1.037,3.744,2.634c0,3.198,0.091,14.885,0,16.894c0,2.917,3.197,3.288,3.197,0.272
	c0-2.373-0.035-17.446,0-17.53c1.001-2.373,4.925,4.199,6.755,1.461c0,0,4.653-5.751-1.276-7.298
	c-42.652-11.158-72.118,0.085-85.266,6.936c-0.902,0.468-3.896,1.893-6.64,3.499c-2.555,1.509-4.672,3.152-4.584,2.8
	c1.477-5.915,1.275-6.027,8.335-10.08c25.736-14.779,59.973-16.333,92.079-7.996c7.028,1.825,12.868,5.109,12.868,3.563
	c0-1.555-3.522-3.212-10.767-5.752c-10.413-3.647-60.71-14.97-99.504,10.222c-1.688,1.095,4.656-6.207,8.673-7.851v-6.297
	l-2.831-4.747v-3.38c23.461-17.432,64.813-16.613,84.896-11.315c6.785,1.785,11.773,4.563,11.908,2.912
	c0.139-1.649-12.135-5.574-14.924-6.201c-21.997-4.925-50.188-3.738-73.266,5.377c-3.044,1.2-5.549,2.877-5.781,2.428
	c-0.394-0.777,2.314-4.43,3.737-5.794c18.713-17.891,61.069-12.688,63.351-12.416c5.826,0.697,15.066,3.287,15.159,2.042
	c0.095-1.245-5.948-3.255-14.698-4.322c-30.671-3.744-48.384,2.646-56.854,6.358c-1.721,0.754-2.583,1.292-3.274,0.952
	c-0.7-0.326,0.292-3.094,0.879-4.484c0,0,7.578-19.258,29.693-33.208c-0.058,0.038,1.801-5.951,5.91-9.146c0,0,0-6.572,0-8.306
	c0-1.737-2.895-5.536-2.895-5.536s-0.71-1.458-0.025-2.407c4.471-6.205,8.033-9.036,8.033-11.409c0-3.014,0.729-18.987,2.92-18.987
	c2.193,0,2.918,16.521,2.918,19.716c0,3.015,4.569,5.846,7.947,10.775c0.618,0.905-0.184,2.464-0.184,2.464
	s-2.463,2.921-2.559,5.385c-0.125,3.377-0.045,8.229,0.042,8.295c4.432,3.297,6.025,9.226,5.894,9.141
	c28.117,18.258,29.77,41.617,30.579,42.176c7.579,5.198,11.688,14.693,11.688,14.693s0.27,2.005,0.035,4.207
	c-0.228,2.2-3.095,4.731-3.095,4.731l0.043,4.302c5.479,3.103,11.595,10.127,13.058,12.68c0.865,1.531-0.644,7.583-0.644,7.583
	s-1.734,4.015-3.558,7.115c-0.397,0.679,0,10.957,0,10.957l126.34,29.708c26.72-29.122,43.032-67.947,43.032-110.585
	C557.502,73.632,484.246,0.371,393.876,0.371z M508.513,123.904c10.616,0,12.989,7.12,12.989,18v2.045h-18.004v2.836
	c0,4.154,1.121,8.242,4.485,8.242c3.035,0,4.287-2.308,4.814-6.66h8.179c-0.334,8.242-4.287,12.859-12.86,12.859
	c-13.188,0-13.717-10.155-13.717-18.993C494.399,132.74,496.246,123.904,508.513,123.904z M380.591,147.51v-1.912h9.495v1.386
	c0,4.417,1.253,7.252,6.262,7.252c2.901,0,5.673-1.846,5.673-5.804c0-4.284-2.175-5.868-8.441-8.042
	c-8.439-2.9-12.329-6.396-12.329-14.242c0-9.168,5.604-13.849,14.572-13.849c8.44,0,14.574,3.627,14.574,12.66v1.318h-9.103
	c0-4.417-1.514-6.99-5.142-6.99c-4.286,0-5.408,2.705-5.408,5.474c0,2.902,0.859,4.681,4.88,6.396l7.32,3.164
	c7.122,3.102,8.968,6.728,8.968,12.464c0,9.956-6.068,14.441-16.354,14.441C384.813,161.227,380.591,156.214,380.591,147.51z
	 M418.111,215.691h-9.493v-32.97h-9.3v-6.198h0.856c6.198,0,10.024-2.374,10.948-7.517h6.989V215.691z M425.825,160.302h-9.101
	v-35.477h9.101V160.302z M425.825,120.476h-9.101v-7.78h9.101V120.476z M443.297,216.612c-6.725,0-12.856-2.833-12.989-11.803h9.103
	c0,3.498,1.119,5.605,4.285,5.605c5.011,0,5.802-5.012,5.802-11.867v-2.243h-0.131c-1.582,2.374-4.685,3.957-8.772,3.957
	c-8.308,0-11.405-6.2-11.405-14.573c0-10.683,4.682-16.682,15.097-16.682c13.059,0,14.707,10.417,14.707,21.824
	C458.992,204.087,458.729,216.612,443.297,216.612z M459.123,160.302h-9.099V135.84c0-3.563-1.188-4.946-3.889-4.946
	c-3.103,0-4.817,1.91-4.817,5.868v23.54h-9.099v-35.477h8.704v4.156h0.131c1.912-3.496,5.21-5.077,9.036-5.077
	c5.671,0,9.032,3.1,9.032,10.089V160.302z M474.751,216.612c-9.031,0-13.519-5.472-13.519-14.373v-0.197h9.101
	c0.133,5.406,1.059,8.373,5.21,8.373c4.615,0,5.211-3.429,5.211-7.518c0-4.153-0.926-7.979-6.136-7.979h-3.164v-6.195h3.102
	c3.954,0,5.403-3.562,5.403-7.387c0-4.353-1.449-6.131-4.547-6.131c-4.091,0-4.815,3.164-4.815,7.583h-8.702
	c0-9.168,4.878-13.781,13.713-13.781c8.439,0,13.454,3.759,13.454,12c0,5.605-2.705,9.298-7.122,10.286v0.132
	c5.997,0.925,8.306,5.144,8.306,11.014C490.245,208.701,487.675,216.612,474.751,216.612z M477.85,155.027
	c3.035,0,4.418-2.573,4.418-8.308h8.706c0,9.296-3.891,14.507-13.519,14.507c-9.099,0-13.584-4.42-13.584-18.663
	c0-14.57,6.001-18.659,14.375-18.659s12.728,5.34,12.728,13.715h-8.706c0-3.43-0.658-7.123-4.086-7.123
	c-4.485,0-5.212,3.957-5.212,12.135C472.97,151.4,473.763,155.027,477.85,155.027z M508.05,215.691h-9.956
	c1.451-11.276,5.404-25.189,14.571-37.586h-19.65v-8.178h28.751v7.253C514.05,188.063,509.567,202.502,508.05,215.691z"/>
<g>
</g>
<g>
</g>
<g>
</g>
<g>
</g>
<g>
</g>
<g>
</g>
<g>
</g>
<g>
</g>
<g>
</g>
<g>
</g>
<g>
</g>
<g>
</g>
<g>
</g>
<g>
</g>
<g>
</g>
</svg>
