<?xml version="1.0" encoding="utf-8"?>
<!-- Generator: Adobe Illustrator 19.2.0, SVG Export Plug-In . SVG Version: 6.00 Build 0)  -->
<svg version="1.1" id="Layer_1" xmlns="http://www.w3.org/2000/svg" xmlns:xlink="http://www.w3.org/1999/xlink" x="0px" y="0px"
	 viewBox="0 0 128 128" style="enable-background:new 0 0 128 128;" xml:space="preserve">
<style type="text/css">
	.st0{fill:#FFFFFF;}
</style>
<path class="st0" d="M116,41H12C5.4,41,0,35.6,0,29v-6c0-6.6,5.4-12,12-12h104c6.6,0,12,5.4,12,12v6C128,35.6,122.6,41,116,41z"/>
<path class="st0" d="M116,79H12C5.4,79,0,73.6,0,67v-6c0-6.6,5.4-12,12-12h104c6.6,0,12,5.4,12,12v6C128,73.6,122.6,79,116,79z"/>
<path class="st0" d="M116,117H12c-6.6,0-12-5.4-12-12v-6c0-6.6,5.4-12,12-12h104c6.6,0,12,5.4,12,12v6C128,111.6,122.6,117,116,117z
	"/>
</svg>
