<?xml version="1.0" encoding="utf-8"?>
<!-- Generator: Adobe Illustrator 19.2.1, SVG Export Plug-In . SVG Version: 6.00 Build 0)  -->
<svg version="1.1" id="Layer_1" xmlns="http://www.w3.org/2000/svg" xmlns:xlink="http://www.w3.org/1999/xlink" x="0px" y="0px"
	 viewBox="0 0 128 128" style="enable-background:new 0 0 128 128;" xml:space="preserve">
<style type="text/css">
	.st0{fill:#FFFFFF;}
</style>
<path class="st0" d="M116,35H12C5.4,35,0,29.6,0,23l0,0c0-6.6,5.4-12,12-12h104c6.6,0,12,5.4,12,12l0,0C128,29.6,122.6,35,116,35z"
	/>
<path class="st0" d="M116,76H12C5.4,76,0,70.6,0,64l0,0c0-6.6,5.4-12,12-12h104c6.6,0,12,5.4,12,12l0,0C128,70.6,122.6,76,116,76z"
	/>
<path class="st0" d="M116,117H12c-6.6,0-12-5.4-12-12l0,0c0-6.6,5.4-12,12-12h104c6.6,0,12,5.4,12,12l0,0
	C128,111.6,122.6,117,116,117z"/>
</svg>
