<svg id="Layer_1" data-name="Layer 1" xmlns="http://www.w3.org/2000/svg" viewBox="0 0 30 30" fill="#fff"><path d="M12.1,6.77c-0.43.16-1.48,2.59-1.48,7.53s1.06,7.41,1.49,7.54c0.4-.12,1.46-2.55,1.46-7.54s-1-7.37-1.48-7.53M12.1,23C10,23,9.43,17.54,9.43,14.3S10,5.57,12.1,5.57s2.67,5.49,2.67,8.73S14.21,23,12.1,23"/><path d="M24.93,11.26h0ZM14.06,8.16a24.54,24.54,0,0,1,.69,6.14,25.27,25.27,0,0,1-.7,6.2,17.88,17.88,0,0,1,10.68-3.15,8.75,8.75,0,0,0,.4-3,8.62,8.62,0,0,0-.4-3.05,18,18,0,0,1-10.66-3.1M12.11,23H12a0.6,0.6,0,0,1,.11-1.18c0.41-.12,1.48-2.55,1.48-7.53,0-4.3-.85-7.13-1.46-7.52a0.6,0.6,0,0,1,.58-1,3.53,3.53,0,0,1,.57.34l0.48,0.35c1.81,1.36,4.84,3.63,11.21,3.63a0.62,0.62,0,0,1,.2,0,1.88,1.88,0,0,1,.95,1.51,13.31,13.31,0,0,1,.25,2.7c0,1.58-.18,4.23-1.39,4.23-6.33,0-9.36,2.29-11.17,3.66l-0.51.38a2,2,0,0,1-1.13.46"/><path d="M26.08,17.15h1.07c0.9,0,1.66-1.3,1.66-2.85S28,11.45,27.15,11.45H26.08a15.32,15.32,0,0,1,.24,2.85,15.38,15.38,0,0,1-.24,2.84m-0.77.59h0Zm1.84,0.6H25.31a0.6,0.6,0,0,1-.6-0.6,0.62,0.62,0,0,1,0-.2,10.93,10.93,0,0,0,.38-3.24,10.89,10.89,0,0,0-.38-3.25,0.6,0.6,0,0,1,.56-0.8h1.84c1.6,0,2.85,1.78,2.85,4s-1.25,4-2.85,4"/><path d="M21.52,24a0.93,0.93,0,0,0,.28.2l0,0a2.91,2.91,0,0,0,1.57.44c0.33-.55.21-3.39-0.12-6L22,18.87a1.6,1.6,0,0,1-.4.48l-0.12.12a0.66,0.66,0,0,0,.12.13,1.25,1.25,0,0,1,0,2,0.91,0.91,0,0,0-.12.12,0.61,0.61,0,0,0,.12.13,1.25,1.25,0,0,1,0,2L21.52,24m1.74,1.87a4.65,4.65,0,0,1-2-.59,1.57,1.57,0,0,1-1-1.26,1.29,1.29,0,0,1,.52-1L21,22.9a0.58,0.58,0,0,0-.12-0.13,1.25,1.25,0,0,1,0-2L21,20.62a0.62,0.62,0,0,0-.12-0.13,1.26,1.26,0,0,1,0-2L21,18.33a0.6,0.6,0,0,1,.52-0.6l2.25-.3a0.6,0.6,0,0,1,.67.51c0.65,4.63.53,7.24-.35,7.75a1.56,1.56,0,0,1-.79.19"/><path d="M6.92,15H0.42A0.42,0.42,0,0,1,0,14.61a0.41,0.41,0,0,1,.42-0.42H6.92a0.43,0.43,0,0,1,.42.42,0.43,0.43,0,0,1-.42.42"/><path d="M8.79,8a0.41,0.41,0,0,1-.24.22A0.43,0.43,0,0,1,8,7.93L6.84,4.68a0.42,0.42,0,0,1,.25-0.54,0.32,0.32,0,0,1,.14,0,0.43,0.43,0,0,1,.4.28L8.81,7.64a0.46,0.46,0,0,1,0,.32"/><path d="M8.81,21.57L7.64,24.82a0.44,0.44,0,0,1-.54.25,0.4,0.4,0,0,1-.24-0.22,0.4,0.4,0,0,1,0-.32L8,21.28A0.4,0.4,0,0,1,8.23,21a0.37,0.37,0,0,1,.18,0l0.15,0a0.42,0.42,0,0,1,.25.54"/><path d="M7.63,11.7a0.43,0.43,0,0,1-.58.13L3.14,9.32A0.41,0.41,0,0,1,3,9.06,0.48,0.48,0,0,1,3,8.73a0.46,0.46,0,0,1,.27-0.18H3.37a0.44,0.44,0,0,1,.22.06l3.9,2.51a0.42,0.42,0,0,1,.13.58"/><path d="M7.68,17.83a0.38,0.38,0,0,1-.18.27L3.59,20.61A0.43,0.43,0,0,1,3,20.48,0.38,0.38,0,0,1,3,20.17a0.42,0.42,0,0,1,.18-0.27L7,17.39a0.45,0.45,0,0,1,.23-0.06H7.36a0.41,0.41,0,0,1,.27.18,0.39,0.39,0,0,1,.06.32"/></svg>
