<svg id="Layer_1" data-name="Layer 1" xmlns="http://www.w3.org/2000/svg" viewBox="0 0 30 30" fill="#fff"><path d="M17.72,1.48A10.79,10.79,0,1,0,28.51,12.27,10.8,10.8,0,0,0,17.72,1.48m0,23.07A12.27,12.27,0,1,1,30,12.27,12.29,12.29,0,0,1,17.72,24.55"/><path d="M0.74,30a0.74,0.74,0,0,1-.52-1.27l8.64-8.64a0.74,0.74,0,0,1,1,1L1.27,29.78A0.74,0.74,0,0,1,.74,30"/><rect x="8.08" y="18.17" width="19.36" height="0.85"/><path d="M11.72,18.17h2.47V11.4H11.72v6.77ZM14.32,19H11.59a0.72,0.72,0,0,1-.72-0.72v-7a0.72,0.72,0,0,1,.72-0.72h2.73a0.72,0.72,0,0,1,.72.72v7a0.72,0.72,0,0,1-.72.72"/><path d="M16.49,18.17H19V13.95H16.49v4.23ZM19.09,19H16.36a0.72,0.72,0,0,1-.72-0.72V13.82a0.72,0.72,0,0,1,.72-0.72h2.73a0.72,0.72,0,0,1,.72.72V18.3a0.72,0.72,0,0,1-.72.72"/><path d="M21.26,18.17h2.47V8H21.26V18.17ZM23.86,19H21.13a0.72,0.72,0,0,1-.72-0.72V7.88a0.72,0.72,0,0,1,.72-0.72h2.73a0.72,0.72,0,0,1,.72.72V18.3a0.72,0.72,0,0,1-.72.72"/></svg>
