<svg id="Layer_1" data-name="Layer 1" xmlns="http://www.w3.org/2000/svg" viewBox="0 0 30 30"><title>icon</title><path d="M14.09,12.62a2.65,2.65,0,0,1-1.78.75C10,13.37,9,10.38,9,8.58a3.15,3.15,0,0,1,.58-2,2.43,2.43,0,0,1,1.84-.89c2.18,0,3.31,3,3.31,5A2.76,2.76,0,0,1,14.09,12.62Z"/><path d="M16.2,21.29c0,1.67-1.34,2.91-3.86,2.91-2.81,0-4.62-1.38-4.62-3.29A3,3,0,0,1,10,18.14a10.2,10.2,0,0,1,2.76-.43,4.18,4.18,0,0,1,.6,0C15.33,19.19,16.2,19.91,16.2,21.29Z"/><path d="M29.06,0H0.94A1,1,0,0,0,0,1V29a1,1,0,0,0,.94,1H29.06A1,1,0,0,0,30,29V1A1,1,0,0,0,29.06,0ZM11,25.32c-3.81,0-5.65-1.86-5.65-3.85a3.89,3.89,0,0,1,2-3.28,11.09,11.09,0,0,1,5-1.24,2.86,2.86,0,0,1-.79-1.83,2.47,2.47,0,0,1,.26-1.05c-0.29,0-.58.05-0.84,0.05A4.2,4.2,0,0,1,6.71,9.89,4.89,4.89,0,0,1,8.39,6.29a7.89,7.89,0,0,1,5-1.61h5.18l-1.71,1.1H15.2a4.56,4.56,0,0,1,1.86,3.64c0,2-1.1,2.93-2.2,3.82a1.9,1.9,0,0,0-.74,1.32,1.48,1.48,0,0,0,.68,1.16l0.95,0.75c1.15,1,2.2,1.91,2.2,3.77C18,22.77,15.56,25.32,11,25.32ZM25,14.67H22.38v2.71h-1.3V14.67H18.45V13.33h2.63V10.63h1.3v2.69H25v1.34Z"/></svg>
