<svg id="Layer_1" data-name="Layer 1" xmlns="http://www.w3.org/2000/svg" viewBox="0 0 30 30" fill="#fff"><path d="M1.54,7.44H25.15V25.81H1.54V7.44ZM0,27.36H26.7V5.89H0V27.36Z"/><polygon points="3.31 2.64 3.31 6.63 4.85 6.63 4.85 4.19 28.46 4.2 28.46 22.19 25.96 22.19 25.96 23.73 30 23.73 30 2.65 3.31 2.64"/><rect x="4.07" y="10.34" width="8.22" height="0.73"/><rect x="4.07" y="13.3" width="8.22" height="0.73"/><rect x="4.07" y="16.26" width="8.22" height="0.73"/><rect x="4.07" y="19.22" width="18.55" height="0.73"/><rect x="4.07" y="22.18" width="18.55" height="0.73"/><path d="M15.28,16.26h6.61V11.07H15.28v5.19ZM22.63,17H14.55V10.34h8.08V17Z"/></svg>
