<svg id="Layer_1" data-name="Layer 1" xmlns="http://www.w3.org/2000/svg" viewBox="0 0 30 30"><title>PDF</title><path d="M29.31,13.39H21.63V1.8a0.69,0.69,0,0,0-.69-0.69H7.14a0.69,0.69,0,0,0-.49.2L0.2,7.76a0.7,0.7,0,0,0-.2.49V28.2a0.69,0.69,0,0,0,.69.69H20.94a0.69,0.69,0,0,0,.69-0.69V23.57h7.68A0.69,0.69,0,0,0,30,22.88v-8.8A0.69,0.69,0,0,0,29.31,13.39ZM6.45,3.47V7.56H2.36Zm13.81,24H1.38V8.94H7.14a0.69,0.69,0,0,0,.69-0.69V2.5H20.25V13.39H8.06a0.69,0.69,0,0,0-.69.69v8.8a0.69,0.69,0,0,0,.69.69h12.2V27.5Zm8.37-5.31H8.75V14.77H28.62v7.42ZM12.39,19.58H13a1.85,1.85,0,0,0,2-1.89,1.82,1.82,0,0,0-2-1.85h-2v5.4h1.32V19.58Zm0-2.59h0.37c0.54,0,.94.15,0.94,0.7a0.76,0.76,0,0,1-.94.74H12.39V17Zm8.86,1.55a2.58,2.58,0,0,0-2.82-2.7h-2v5.4h2A2.58,2.58,0,0,0,21.24,18.54ZM17.71,17h0.76a1.42,1.42,0,0,1,1.43,1.55,1.42,1.42,0,0,1-1.43,1.55H17.71V17Zm6.23,4.25H22.61v-5.4h4.15V17H23.94v1.06H26V19.2H23.94v2Z"/></svg>