<svg id="Layer_1" data-name="Layer 1" xmlns="http://www.w3.org/2000/svg" viewBox="0 0 30 30"><title>icon</title><path d="M23.9,25a13.43,13.43,0,0,0,4.5-10A13.35,13.35,0,0,0,1.7,15a13.45,13.45,0,0,0,4.4,9.9c0.1-.1.3-0.1,0.4-0.2,1.8-.7,3.9-1,5.3-1.7a1.28,1.28,0,0,0,.2-2,7.42,7.42,0,0,1-2.1-3.9c-0.6-.4-1.9-3-0.7-3.5A5.72,5.72,0,0,1,11,7.4c3-2.5,7.7.8,8.9-1.6a0.19,0.19,0,0,1,.3,0,3.66,3.66,0,0,1,.1,3.9,9.44,9.44,0,0,1,.2,3.9c1.5,0.4,0,3.1-.7,3.6a6.8,6.8,0,0,1-2.1,3.9,1.18,1.18,0,0,0,.2,2c1.4,0.8,3.5,1,5.3,1.7a1.85,1.85,0,0,1,.7.2h0ZM15,30A15,15,0,1,1,30,15,15,15,0,0,1,15,30h0Z"/></svg>