<svg id="Layer_1" data-name="Layer 1" xmlns="http://www.w3.org/2000/svg" viewBox="0 0 30 30"><title>tf</title><path d="M15,0A15.24,15.24,0,0,0,0,15.47a15.72,15.72,0,0,0,2.59,8.69L3.18,22.5s3.64-1.87,5.45-1.87a6.7,6.7,0,0,1,3.64.94,3.59,3.59,0,0,0-3.64-1.87,11.31,11.31,0,0,0-5.45,1.88l-0.91-.94a1.1,1.1,0,0,1,.91-0.94s2.73-1.87,4.55-1.87c0.91,0,2.73,0,3.64.94a3.59,3.59,0,0,0-3.64-1.87c-1.82,0-4.55,1.88-4.55,1.88a3.3,3.3,0,0,1,.91-1.87c0-1.87,3.64-4.69,3.64-4.69V10.31L8.64,7.5l0.91,2.81v1.88s3.64,2.81,3.64,4.69a3.3,3.3,0,0,1,.91,1.88,0.91,0.91,0,0,1-.91.94s1.82,0,1.82.94l-0.91.94V22.5l12,3.42A15.67,15.67,0,0,0,30,15.47,15.24,15.24,0,0,0,15,0Z"/><polygon points="10.46 23.44 8.64 24.38 6.82 23.44 4.09 25.31 3.18 25.31 4.09 26.25 6.82 24.38 6.82 28.13 7.73 29.06 7.73 24.84 8.64 25.31 9.54 24.84 9.54 29.06 10.46 30 10.46 24.38 12.27 24.84 12.27 30 13.18 30 13.18 25.08 15 25.55 15 30 15.91 30 15.91 25.78 17.73 26.25 17.73 30 18.64 30 18.64 26.48 20.45 26.95 20.45 30 21.36 29.06 21.36 27.19 25 28.13 25 27.19 10.46 23.44"/></svg>