<svg id="Layer_1" data-name="Layer 1" xmlns="http://www.w3.org/2000/svg" viewBox="0 0 30 30"><title>icon</title><path id="path22" d="M30,5.7a12.31,12.31,0,0,1-3.53,1,6.17,6.17,0,0,0,2.71-3.4,12.31,12.31,0,0,1-3.91,1.49,6.16,6.16,0,0,0-10.49,5.61A17.48,17.48,0,0,1,2.09,3.94,6.16,6.16,0,0,0,4,12.15a6.12,6.12,0,0,1-2.79-.77s0,0.05,0,.08a6.16,6.16,0,0,0,4.94,6,6.2,6.2,0,0,1-2.78.11,6.16,6.16,0,0,0,5.75,4.27,12.36,12.36,0,0,1-7.65,2.63A12.6,12.6,0,0,1,0,24.42a17.43,17.43,0,0,0,9.44,2.76c11.32,0,17.51-9.38,17.51-17.51q0-.4,0-0.8A12.53,12.53,0,0,0,30,5.7"/></svg>
