<svg id="Layer_1" data-name="Layer 1" xmlns="http://www.w3.org/2000/svg" viewBox="0 0 30 30"><title>icon</title><path id="YouTube" d="M23.65,21.94H22V21a0.78,0.78,0,0,1,.78-0.77h0.11a0.78,0.78,0,0,1,.78.77Zm-6.18-2a0.7,0.7,0,0,0-.76.62v4.65a0.78,0.78,0,0,0,1.52,0V20.52A0.7,0.7,0,0,0,17.47,19.89Zm10-2.6v8.85A4,4,0,0,1,23.41,30H6.59A4,4,0,0,1,2.5,26.14V17.29a4,4,0,0,1,4.09-3.86H23.41A4,4,0,0,1,27.5,17.29ZM7.71,27.1V17.78H9.8V16.4H4.24v1.36H6V27.1H7.71ZM14,19.17H12.22v5a8.82,8.82,0,0,1,0,1.21c-0.14.39-.78,0.8-1,0a9.9,9.9,0,0,1,0-1.21v-5H9.46V24.1c0,0.76,0,1.32,0,1.58A1.59,1.59,0,0,0,9.91,27a2.1,2.1,0,0,0,2.66-.89v1H14V19.17h0Zm5.56,5.7V20.73c0-1.58-1.18-2.52-2.79-1.25V16.4H15V27l1.43,0,0.13-.66C18.38,28,19.53,26.88,19.52,24.87ZM25,24.32h-1.3c0,0.05,0,.11,0,0.18v0.73a0.71,0.71,0,0,1-.71.71H22.69A0.71,0.71,0,0,1,22,25.23V23.32h3V22.19a17.72,17.72,0,0,0-.09-2.11c-0.21-1.48-2.3-1.72-3.35-1a2,2,0,0,0-.73,1,5.53,5.53,0,0,0-.22,1.75v2.47C20.57,28.43,25.56,27.85,25,24.32ZM18.28,10.91a1.18,1.18,0,0,0,.42.53,1.21,1.21,0,0,0,.71.2,1.11,1.11,0,0,0,.67-0.21,1.6,1.6,0,0,0,.49-0.62l0,0.68h1.94V3.25H20.94V9.66a0.64,0.64,0,0,1-1.27,0V3.25H18.08V8.8c0,0.71,0,1.18,0,1.42A2.39,2.39,0,0,0,18.28,10.91ZM12.41,6.26a6.86,6.86,0,0,1,.2-1.85,2,2,0,0,1,2-1.48,2.4,2.4,0,0,1,1.15.26,1.92,1.92,0,0,1,.74.68,2.67,2.67,0,0,1,.36.86A6.84,6.84,0,0,1,17,6.07V8.16a11.28,11.28,0,0,1-.09,1.68,2.67,2.67,0,0,1-.38,1,1.81,1.81,0,0,1-.75.69,2.38,2.38,0,0,1-1.05.22,2.92,2.92,0,0,1-1.12-.19A1.54,1.54,0,0,1,12.88,11a2.54,2.54,0,0,1-.36-0.92,8.9,8.9,0,0,1-.11-1.62V6.26h0Zm1.52,3.27a0.77,0.77,0,1,0,1.54,0V5.14a0.77,0.77,0,1,0-1.54,0V9.53ZM8.56,11.75h1.83V5.43L12.55,0h-2L9.4,4,8.24,0h-2l2.3,5.43v6.32Z"/></svg>